<svg width="164" height="84" viewBox="0 0 164 84" fill="none" xmlns="http://www.w3.org/2000/svg">
<path d="M88.471 83.996C94.1596 83.9157 101.488 83.3233 107.102 83.0823C108.628 82.6572 110.213 82.3841 111.822 82.269L112.07 82.771L113.536 82.4999C114.169 82.6003 112.405 82.6806 113.536 82.7911L114.07 82.4296C114.194 82.6104 117.92 82.1987 115.461 82.8011C117.398 82.6204 119.348 82.4196 121.311 82.1886C122.553 82.038 121.982 81.6765 123.447 81.6062C123.77 81.7167 122.95 81.777 123.099 81.9477C127.533 81.6866 127.856 80.2306 131.893 79.608L131.583 79.7486C132.216 79.4775 133.508 79.1863 133.495 79.106C132.8 78.7345 132.887 79.5578 131.558 79.5277C131.558 79.0959 132.986 78.9654 132.8 78.6642C133.575 78.5345 134.319 78.3002 134.998 77.9713C136.476 77.881 138.302 77.0777 139.47 77.0476C140.209 76.4456 141.045 75.9257 141.954 75.5013C143.121 75.4008 141.954 75.8828 143.307 75.5013V75.19C144.413 74.7381 144.289 74.8787 144.314 74.9992C145.481 74.4871 145.046 74.2461 146.562 73.6938L145.941 74.2963C146.922 73.6938 147.357 73.493 148.772 72.7098C148.859 72.8504 148.288 73.1717 147.841 73.3625C148.884 73.242 149.083 72.4688 149.443 72.268C149.245 72.268 148.276 72.7801 148.549 72.268C149.257 71.8964 149.716 71.1333 150.399 71.043L149.878 71.7057C151.12 70.6313 150.375 71.0028 151.952 69.9786C151.952 70.0489 151.952 70.0689 151.952 70.1292C152.623 69.2054 154.064 68.4724 155.331 67.2976L155.157 67.5687C155.591 67.0466 155.641 66.6349 155.902 66.3839C155.094 66.9763 155.206 66.7353 154.921 66.6449C156.163 66.0023 155.815 65.0082 157.305 63.6326C157.442 63.7431 157.305 64.225 156.796 64.5463C156.796 65.3094 157.107 65.6107 156.399 66.6449C156.871 66.0224 157.417 65.2894 157.467 65.5404L157.231 65.1287C157.516 64.7572 157.802 64.4961 158.013 64.2149C157.877 63.9237 157.007 64.7271 157.504 63.7932C158.001 62.8594 158.324 63.492 158.237 63.251C159.044 61.8252 158.237 62.4879 159.193 61.2428C159.149 61.4272 159.064 61.6038 158.945 61.7649C159.752 60.8913 160.187 59.355 160.895 59.2145C160.963 59.3143 160.999 59.4266 160.999 59.5408C160.999 59.655 160.963 59.7673 160.895 59.8672H160.82C160.671 61.1223 161.156 58.863 161.479 59.3852C161.317 59.3852 161.479 59.0237 161.603 58.5819C161.727 58.1401 161.988 57.5777 162.137 57.2564L161.702 57.397C161.354 54.9369 162.398 57.6782 162.944 55.3888C162.944 53.8826 162.77 55.921 162.659 54.9972C163.021 54.0985 163.213 53.1609 163.23 52.2158C163.379 51.8142 163.59 50.9808 164 50.9004C163.973 50.6264 163.973 50.3511 164 50.077C164 49.7758 164 49.4445 163.913 49.0729C163.934 48.5738 163.806 48.0778 163.54 47.627C163.49 48.1486 163.561 48.6733 163.752 49.1733C163.975 49.7486 163.975 50.3653 163.752 50.9406L163.354 50.4486C163.336 49.7954 163.257 49.1442 163.118 48.5006C163.019 47.8579 162.919 47.2655 162.857 46.8438C162.857 47.0245 162.746 47.1149 162.634 47.0145C162.412 46.3882 162.151 45.7715 161.851 45.1669C161.514 44.5957 161.256 43.9963 161.081 43.3796C161.342 43.0783 161.628 44.0222 161.913 44.6849C161.75 43.7696 161.441 42.8752 160.994 42.024C161.131 41.9336 161.243 42.1947 161.392 42.4859C161.541 42.7771 161.615 43.1286 161.802 43.1788C161.556 42.599 161.265 42.0323 160.932 41.4818C160.311 41.4015 160.373 40.1564 159.578 39.2226C159.295 38.7413 158.967 38.2781 158.597 37.8369C158.315 37.5516 158.008 37.2831 157.678 37.0336C157.082 36.6219 156.585 36.3307 155.927 35.8487C155.79 35.4671 155.815 35.3165 156.038 35.3868C156.274 36.0094 156.361 35.8387 156.622 35.9592C155.989 35.2764 155.74 34.1618 156.25 34.4631C155.157 33.3887 156.374 35.0053 155.641 34.3827C155.231 33.8505 154.772 33.3786 154.3 32.8363C154.3 33.1476 154.697 33.6999 153.815 33.0372C153.132 32.4347 152.909 32.033 152.064 31.2699C152.288 31.3201 152.064 30.798 152.735 31.4206C152.399 30.9788 151.753 30.3562 151.306 30.2658C151.691 30.7679 151.306 30.4365 150.785 30.0951C150.263 29.7537 149.754 29.4224 149.977 29.8441L149.182 28.84C149.393 29.0308 149.555 28.9504 149.841 29.2617C149.841 28.7998 148.959 28.6492 148.599 28.3781C148.238 28.107 147.357 27.2936 147.431 27.133C146.927 26.8656 146.53 26.4853 146.288 26.0385C145.729 25.7373 146.065 26.1791 145.829 26.149L144.152 24.9139C144.214 24.7131 144.487 24.2211 144.798 24.3516C144.016 24.0203 144.14 24.5926 143.146 23.9098C144.003 24.0203 142.028 22.8153 143.146 23.0462C142.3 22.1726 141.249 21.4425 140.053 20.8975C139.258 20.7669 140.96 21.6505 140.674 21.8413C139.78 21.3031 138.769 20.9046 137.693 20.6665C136.829 20.4837 136.029 20.1398 135.358 19.6623L135.818 20.0138C135.18 19.7035 134.49 19.4701 133.769 19.321C134.365 19.2005 133.011 17.7847 130.887 16.7906C130.601 16.8609 131.819 17.6742 131.297 17.7445L129.893 17.0918C129.819 17.0215 130.005 17.0918 130.204 17.0918C128.962 16.5596 128.204 15.5656 127.571 15.7564L126.614 14.7523L126.987 15.184C126.274 15.0404 125.583 14.835 124.925 14.5715C123.9 14.3058 122.977 13.8322 122.242 13.1958C122.416 13.4368 122.851 13.9991 121.671 13.5674C122.019 13.0553 119.373 12.3625 119.572 12.1114C119.1 11.9106 118.33 11.4286 118.168 11.6294L118.442 11.3282C118.057 11.7399 116.33 11.0672 114.952 10.6555C115.597 10.1434 113.473 10.1333 113.163 9.38022C112.679 9.72162 110.679 8.73761 110.232 9.0288C109.176 8.69744 109.486 8.32593 109.288 8.09498H108.716C107.582 7.52587 106.394 7.02896 105.164 6.60885L103.922 6.66909L103.599 6.36787C103.376 6.36787 102.357 6.21728 102.941 6.51851L102.345 6.33778C102.109 6.74947 101.438 6.23733 100.159 6.10679C99.9103 5.96622 100.022 5.88593 100.308 5.89597C99.6992 5.73531 100.047 5.57461 99.7738 5.35371C100.159 5.56457 97.2895 5.56458 98.8545 6.17709C98.8545 6.37791 97.9106 6.26744 97.3517 6.0365L97.1282 5.56459L96.2587 5.81562C95.5595 5.63861 94.8852 5.40302 94.2466 5.11273C95.0291 5.2533 96.2463 4.74122 94.2466 4.30945C94.9894 4.40768 95.7423 4.44802 96.4948 4.42994C96.0849 4.31948 95.8861 4.23913 96.6065 4.21905C94.9794 3.9881 95.9854 4.33955 94.408 4.03832C94.6068 3.70696 94.2093 3.49609 92.8679 3.0342L93.8119 3.51622C93.7457 3.55256 93.6682 3.57341 93.5882 3.57646C93.9609 3.69696 94.0603 3.77726 94.0975 3.92788C93.787 3.85759 92.1475 3.9279 91.9488 3.69695C93.3523 4.55045 89.0673 3.59653 89.974 4.12871C89.7629 4.199 88.732 4.00822 88.5954 3.81744C89.9864 3.81744 87.7258 3.22503 87.999 3.01416C87.4898 3.01416 88.9679 3.47602 88.2724 3.48607C87.6555 3.36246 87.0736 3.14429 86.5584 2.84342H86.8938C86.5087 2.70284 86.1113 2.5924 85.6517 2.48195C85.4157 2.62253 86.7695 2.95391 85.6517 2.88362C85.3784 2.76313 84.2232 2.68277 84.2978 2.54219C84.8939 2.38154 84.571 2.00001 85.5398 2.08034C84.7325 1.98997 82.1739 1.64857 83.1303 2.14059L82.1863 1.97989C82.7453 2.22088 84.3474 2.74304 82.4347 2.50205V2.44181L81.056 2.5121L80.5096 2.24097C80.5096 2.33134 80.2859 2.39162 79.7891 2.33137C79.6898 2.20083 79.2302 2.11042 79.2923 1.96984C77.8515 1.81922 77.9384 2.02005 77.7397 2.10038C76.9324 2.03009 76.6468 1.91968 77.0567 1.75902C75.9637 1.56823 74.0385 1.41761 73.3305 1.18666C71.8277 1.18666 73.6287 1.28703 72.7344 1.45773C71.7449 1.05419 70.6504 0.847658 69.5422 0.855288C68.176 0.795041 66.6484 0.855288 65.4436 0.855288C66.0646 1.43768 64.7728 0.855308 64.3008 1.37745C64.8349 1.21679 62.0403 0.84524 64.1642 0.784993C63.7295 0.784993 63.2948 0.784993 62.9222 0.784993C62.4875 0.634376 63.0215 0.58415 63.5059 0.513862C63.9903 0.443574 64.4127 0.403434 63.7544 0.162446C62.2888 0.162446 61.2702 0.75486 59.6183 0.523913C60.1896 0.142349 58.3018 0.644419 58.724 0.222691C59.1554 0.12194 59.6047 0.0811999 60.053 0.102202L59.7425 0.0218554C56.538 -0.118721 58.8234 0.453657 57.1591 0.74485C55.2215 0.845262 55.619 0.473727 55.4948 0.292986C54.8937 0.253393 54.2887 0.297552 53.7061 0.423526C54.9482 0.152415 55.9047 0.61432 55.3706 0.87539C54.5011 0.453662 52.4889 0.875371 51.9797 1.10632C54.7618 1.50796 53.8924 1.10629 56.5007 1.51798C56.8485 1.3774 56.7864 0.945668 58.3389 1.11637C57.3701 1.30715 58.4135 1.34729 58.6867 1.40754C58.3887 1.17659 59.7549 1.32723 60.2393 1.23686C60.6616 1.42764 59.2953 1.759 60.8603 1.86945L61.1708 1.32725C61.7794 1.41762 60.8975 1.72887 62.2141 1.60837C61.4937 1.88953 62.413 2.0502 60.6493 2.12048C62.7359 2.59242 63.8785 1.89957 65.5304 1.79916C65.3566 1.79916 65.3317 1.88952 65.1702 1.91965C65.6539 1.82658 66.1522 1.79275 66.6483 1.81926C67.7165 2 65.7665 2.03012 66.0397 2.19078L67.7911 2.26107C68.2506 2.20083 68.6977 2.1707 68.8468 2.32132C68.4649 2.45274 68.0917 2.60022 67.7289 2.76313C68.3499 2.67276 68.9709 2.55225 69.592 2.492C69.3684 2.65266 71.0576 2.91374 69.7534 2.94387L72.4487 3.08446L72.6225 3.46596C73.2683 3.46596 73.3057 3.38563 72.5356 3.27518C73.3171 3.32122 74.1016 3.32122 74.8831 3.27518C75.7401 3.27518 76.3984 3.36559 76.1251 3.69695C77.9492 3.69353 79.7712 3.79418 81.5778 3.99817C79.5656 3.99817 83.7017 4.75124 81.5778 4.60062C82.7453 4.94202 83.0806 4.60063 84.0618 4.67091C84.9189 4.95207 84.4345 5.24326 83.4408 5.23322H84.6083V5.30351L85.6393 5.24327C86.6081 5.61479 85.7634 5.64493 86.8067 5.88592L87.1172 5.61479L87.788 5.92606C87.552 5.73528 88.1979 5.78548 89.03 5.92606V5.99635L89.9864 6.10679C89.0052 6.10679 90.8185 6.32769 90.3217 6.47831C91.1166 6.63897 91.1415 6.62897 92.5823 6.90008L92.3959 6.62895C94.3211 6.84986 92.396 6.9603 93.8741 7.31174V7.05066C94.7586 7.41959 95.7176 7.65764 96.7058 7.75356C97.5424 7.8419 98.3561 8.03856 99.1155 8.33596C98.1839 8.15522 98.3081 8.49658 98.3454 8.4263C100.024 8.83275 101.728 9.16791 103.45 9.43041C103.798 9.93247 103.872 10.0731 105.226 10.6454C106.27 10.9266 106.468 10.9467 106.878 10.8462C107.81 11.2881 109.747 11.7198 109.673 11.9809C109.996 11.8604 110.542 12.3223 111.163 12.3323V12.4729V12.2118C112.641 13.3063 114.244 12.985 115.734 14.0795H115.399L116.181 14.2602C116.181 14.4008 115.908 14.3506 115.796 14.4711C116.926 14.8928 118.007 15.3748 119.1 15.8568L118.554 15.4049C119.275 15.5582 119.962 15.8022 120.59 16.1279C119.05 15.907 121.683 16.5998 121.721 16.9513L120.951 16.7404C121.932 17.122 121.932 17.122 122.006 16.8709C123.248 17.3529 122.565 17.6842 123.857 17.9654L123.062 17.5838C122.913 17.3428 123.621 17.4232 124.155 17.6843C124.267 17.7746 124.577 18.0558 124.155 17.8851C125.186 18.2566 126.552 19.0399 127.049 19.1503C127.509 19.4817 127.223 19.5519 126.9 19.4616C129.061 20.305 127.782 19.9736 129.943 20.8171L129.819 20.9175L130.626 21.1284L131.409 21.8915L131.185 21.5501C131.843 21.8268 132.46 22.1637 133.023 22.5542H132.564C134.452 23.478 134.414 24.0202 136.29 24.7532C136.377 24.8536 136.066 24.7532 135.905 24.693C137.681 25.3657 136.787 25.6971 138.612 26.3297C138.463 26.3297 138.612 26.5004 138.451 26.5104L139.234 26.8519L138.96 27.0426H139.842L140.028 27.5547L140.401 27.615C140.65 28.5388 141.991 28.9103 142.562 29.9244L142.711 29.5328C145.754 30.7578 147.518 34.0011 150.064 36.2303L149.729 36.3608C150.176 36.6219 150.549 36.9131 150.971 37.1942C151.207 37.877 150.437 36.9934 150.424 37.2545C151.505 38.2586 151.306 37.4553 152.387 38.7506C152.685 39.5338 151.989 38.62 151.642 38.359C152.176 38.9414 152.884 39.6744 153.38 40.3672C153.832 40.9817 154.206 41.6309 154.498 42.3052H154.635C154.94 42.7789 155.206 43.2686 155.43 43.7712C155.691 44.3033 155.802 44.8657 156.014 45.3577C155.852 45.3577 155.728 45.1368 155.604 44.8958C155.664 45.2992 155.825 45.6886 156.076 46.0405L155.629 45.7292C155.877 46.4823 156.436 47.9282 156.15 48.1491C156.262 48.0386 156.572 48.0386 156.622 48.7114C156.374 48.9223 156.486 49.3641 156.622 49.9063C156.806 50.4598 156.836 51.0394 156.709 51.6033C156.585 51.4727 156.56 50.6996 156.548 50.9205C156.487 51.428 156.572 51.9401 156.796 52.4166L156.597 52.256C156.597 53.0793 156.597 53.9328 156.473 54.7662C155.902 55.0374 155.815 57.0556 155.48 56.7745C155.082 57.6079 156.038 56.1318 155.604 57.2062C155.256 57.4271 155.281 58.2104 154.958 58.0497C154.958 58.0497 154.958 57.9694 154.958 57.9292L154.585 58.6622L154.511 58.0899C154.384 58.2994 154.319 58.5295 154.319 58.7626C154.319 58.9957 154.384 59.2258 154.511 59.4354C153.977 59.9475 153.554 60.8211 153.057 60.9315L153.145 60.6905C152.052 62.3373 150.275 62.6987 149.543 64.1045C149.418 64.1045 149.369 64.1045 149.543 63.9338C149.232 64.215 148.909 64.476 148.574 64.7472V64.4057C148.151 64.9279 147.692 65.4099 147.195 65.9521L147.096 65.8216C145.598 66.8919 144.03 67.8974 142.401 68.8339L142.612 68.6532C140.898 69.7778 140.736 69.4163 139.42 70.1694C139.439 70.1203 139.479 70.0778 139.532 70.0489L138.29 70.5911L138.501 70.3401C137.693 71.0229 135.483 70.9928 136.228 71.0229C135.68 71.3093 135.176 71.6462 134.725 72.027C133.21 72.4989 134.278 71.9768 133.284 72.1274C132.391 72.4833 131.455 72.7626 130.49 72.9608V72.8102C129.782 73.0009 129.359 73.2018 128.353 73.4328L128.639 73.3122C127.062 73.9448 126.453 73.3123 125.298 74.1557C124.553 74.1557 123.224 74.4569 123.224 74.1557C121.149 74.6578 119.497 74.9389 117.336 75.2904C116.914 74.8486 116.877 75.3707 115.523 75.2301L115.647 75.4711C112.579 75.7924 108.928 75.4711 105.524 75.7221L105.4 75.4711L104.742 75.7924L93.3275 75.9431C92.0349 76.2177 90.7016 76.346 89.3654 76.3246H89.5269C86.7287 76.5103 83.9164 76.5103 81.1182 76.3246C81.3045 76.2141 81.0188 76.1338 81.3541 76.0735C80.6461 76.3447 79.6401 76.0736 79.0191 76.0033L79.7395 76.2242C78.8981 76.3772 78.0166 76.2809 77.2554 75.9531L75.9264 76.1639C75.8394 76.1639 75.7153 76.0937 75.7029 76.0535L75.4544 76.174L74.7838 75.8025C73.8909 75.8092 73.0037 75.9208 72.1505 76.1339C72.0387 76.0134 70.8216 75.8426 71.778 75.8527C70.1882 75.702 68.5984 75.5816 67.021 75.4109L67.7413 75.5916C67.8158 75.8527 66.3626 75.8928 65.6298 75.7221C66.6234 75.5916 65.754 75.3707 65.369 75.1498C64.6983 75.2301 65.9031 75.4109 65.5429 75.5313C64.5435 75.634 63.5294 75.5898 62.5495 75.4008H63.0588C61.9409 75.4008 61.4938 74.8987 60.4008 74.8184C59.3947 74.9188 58.7116 74.6477 58.8358 75.1096C57.4199 75.0393 58.3514 74.7481 57.9043 74.6578C56.9135 74.7357 55.9171 74.5676 55.0476 74.1758C54.1534 74.718 51.3214 73.4729 50.924 73.9549L49.8434 73.493C49.7689 73.6336 49.4708 73.9248 48.5269 73.8545C47.6823 73.5733 47.9555 73.3524 47.7195 73.1616L47.0115 73.6035C42.1178 72.2981 35.535 71.4346 30.7904 69.3962C28.2151 68.798 25.7473 67.9305 23.4499 66.8156L23.7479 66.8859C23.0027 66.4742 22.2948 66.0424 21.5992 65.6006C22.0836 65.9521 22.5432 66.3236 23.0525 66.665C22.5473 66.5108 22.0608 66.3193 21.5992 66.0927C19.0114 64.2921 16.5718 62.3567 14.296 60.2989C12.3211 59.1844 13.9483 59.0237 12.346 57.8087C12.4951 57.9092 12.6317 57.9091 12.7807 57.9895C11.6019 56.7105 10.5314 55.3686 9.57629 53.973C10.396 53.973 9.11673 52.8384 9.57629 52.9087L9.22848 52.8183C9.22848 52.3865 9.10427 51.4527 9.37752 51.5531L8.85581 50.8201L9.15388 50.7196C9.02981 50.0348 8.97165 49.3432 8.97998 48.6512C8.91629 48.0627 9.11458 47.4752 9.53899 46.9944C9.55533 45.4021 9.97818 43.8296 10.781 42.3754C11.6541 40.6748 12.7937 39.0718 14.1718 37.6059C14.517 36.868 15.0263 36.1873 15.6746 35.5977C15.9976 35.427 16.3081 35.2663 16.6559 35.1157C17.2272 34.4229 17.6122 33.489 18.4692 33.0573C18.4837 33.0752 18.4914 33.0961 18.4914 33.1175C18.4914 33.1389 18.4837 33.1598 18.4692 33.1778C19.1399 32.505 20.0591 32.0833 20.5559 31.3202C21.4378 30.6775 22.4065 30.1654 22.3693 30.5771C22.2078 30.3562 22.6798 30.0148 23.1891 29.7538C23.5537 29.5899 23.9313 29.4456 24.3194 29.3219L26.4059 28.0467L27.5238 27.364L28.9149 26.641C29.9085 26.1289 31.0015 25.4963 32.2808 24.8938C38.8039 21.8215 45.7761 19.4198 53.0355 17.7445C61.3442 15.8239 69.8295 14.4439 78.4105 13.6176C86.4093 12.7842 93.315 12.3424 97.1902 11.7098C97.7119 11.4688 99.1775 11.3182 98.631 11.0169C99.7489 10.9366 100.258 11.3884 100.482 11.1374C98.954 10.9466 100.978 10.4948 99.488 10.1333H100.457C100.656 9.9626 99.1403 10.3241 99.3762 10.0028L99.103 10.4647C98.5835 10.4487 98.0764 10.3316 97.6249 10.1233C96.8921 10.294 96.3829 10.9165 94.6688 10.6253H95.1532C93.7373 10.6253 94.2839 10.3241 93.9858 10.2437H94.2963L93.0543 10.0229C93.961 10.1735 95.4638 9.78186 94.6813 9.81198C92.9672 9.70153 95.1161 9.92243 93.8368 9.99271C93.0543 9.99271 93.2653 9.77181 93.3026 9.6212H91.8742C91.8742 9.40029 92.8182 9.62123 92.2469 9.40032L90.446 9.65135C90.0982 9.08904 88.5084 9.93249 87.6638 9.45051C88.9059 9.27981 87.5395 9.26979 87.7383 9.08905L84.571 9.21959C84.2605 9.1493 85.3908 9.01874 84.9188 9.06894C84.3102 8.93841 83.9376 9.22959 83.6767 9.23963C83.3911 9.08901 81.3169 9.38022 81.379 9.0087C79.193 8.88821 80.5096 9.52078 78.4851 9.43041C78.1994 9.21955 80.0748 9.27985 79.1557 9.10915C78.4725 9.17944 77.7771 9.2296 77.094 9.31997C77.2307 9.18446 77.4061 9.07798 77.6052 9.00974C77.8044 8.9415 78.0211 8.91353 78.2366 8.92835C75.4047 8.99864 73.1939 8.82795 71.0328 8.74762C68.747 8.63629 66.4534 8.79875 64.2264 9.22964C63.4439 9.07902 64.7107 8.97861 65.1951 8.72758C61.4689 9.64132 59.7923 8.9284 56.6126 9.60116V9.82203C51.9674 9.96261 46.8253 11.6897 41.8571 12.9248H42.5028C41.7553 13.3567 40.9663 13.7395 40.1431 14.0694C39.9692 14.0092 40.4908 13.4469 39.1369 13.9992C39.4723 13.9992 40.0934 13.8486 39.9692 13.9992C36.8847 14.6916 33.909 15.6686 31.1009 16.9111L28.5051 18.0558C27.6232 18.4474 26.7413 18.8289 25.8967 19.2908L23.4126 20.5962C22.5804 21.0179 21.7607 21.4296 21.0155 21.8915L18.047 23.8395C17.0161 24.4721 16.1219 25.2452 15.1406 25.9381C13.1469 27.3558 11.2715 28.8788 9.52656 30.4968C5.85454 33.7821 3.08594 37.6596 1.40352 41.8734C1.92518 40.5981 2.29787 41.3111 1.78863 42.2249C0.909031 43.3101 0.422837 44.5727 0.385108 45.8698C0.310585 46.4823 0.385138 47.1049 0.260933 47.7475C0.241502 48.4381 0.154182 49.1264 0 49.8059C0.257998 52.3027 0.862199 54.7682 1.80106 57.156C2.66901 59.4167 4.13063 61.4992 6.08606 63.2611L5.89973 63.482C6.22372 63.9537 6.6436 64.378 7.14177 64.7371H7.0549C8.2897 65.9825 9.62134 67.1631 11.0418 68.2716L11.3399 68.1109C12.2839 68.7736 11.638 68.6331 12.7186 69.2054L12.5695 69.2958C13.0167 69.5066 13.4886 69.6774 13.9357 69.8581C13.4017 70.1995 16.7055 71.6555 17.3887 72.2178C18.7798 72.8704 21.4998 73.8946 23.5989 74.7883C23.8597 75.19 26.5178 76.1639 28.1946 76.7965C31.5729 77.8007 36.4417 78.8048 40.7268 79.6683V79.3269L41.8571 79.4976C41.8571 79.5679 41.9688 79.6282 41.7825 79.6382C42.565 80.1603 44.3908 79.9495 45.2354 80.3109C44.7386 79.9394 44.4654 80.1503 43.8319 80.0398C42.9501 79.7386 43.9064 79.5679 45.074 79.9193V79.9896H45.9558C45.9558 80.2507 46.7259 80.4917 46.7631 80.7528C50.4893 81.2046 52.9733 81.1143 56.8112 81.6464C56.3641 81.8874 59.5562 81.8773 58.7116 82.289C61.0218 82.289 58.3887 81.8573 59.4941 81.6062C60.1276 81.6765 60.8231 81.6062 60.9101 81.797C60.5871 81.8874 61.382 82.1485 60.9101 82.1485L62.4378 82.2589C62.5744 82.2589 62.2267 82.3392 62.0528 82.3593C65.2076 82.3593 67.555 83.1626 70.3869 83.0522C70.6105 82.8915 69.2815 82.9317 69.5051 82.761C72.3618 82.5903 71.9892 83.243 74.6223 83.1325L74.0633 83.3434C74.9187 83.1319 75.8296 83.1145 76.6964 83.2931C76.92 83.5944 75.4544 83.484 74.8085 83.5844C75.7649 83.6547 78.2117 83.6647 77.4789 83.3735C78.2264 83.3655 78.9688 83.4746 79.6649 83.6948C79.6649 83.6245 78.5969 83.4638 79.28 83.3534C81.2372 83.5539 83.207 83.6646 85.1797 83.6848C85.1797 83.755 85.3039 83.8655 85.1797 83.9057C86.5211 83.4036 86.3471 84.0563 88.471 83.996Z" fill="#DD5543"/>
</svg>
