<svg width="263" height="97" viewBox="0 0 263 97" fill="none" xmlns="http://www.w3.org/2000/svg">
<path d="M229.573 63.0767C231.151 62.5615 232.248 63.0767 232.248 61.5039C230.616 62.0463 229.573 61.4497 229.573 63.0767Z" fill="#DD5543"/>
<path d="M263 33.3955C257.395 31.8293 257.892 35.4661 254.33 37.0058C252.811 35.4661 254.33 32.3602 251.711 31.8293C251.711 38.2004 250.349 33.8733 247.573 33.422C249.076 31.6617 250.459 29.7991 251.711 27.8473C246.132 29.387 243.067 33.5017 237.462 29.8914C236.965 34.0326 231.883 39.1827 227.299 38.6783C230.862 42.2886 223.213 44.3327 221.17 46.4033C221.17 43.7487 222.716 43.7487 222.716 41.2533C219.415 43.0585 216.22 44.8371 213.077 46.5626C218.918 39.7323 224.118 32.3647 228.609 24.5555C218.944 21.9009 220.489 8.62763 209.305 6.98174C203.909 14.1493 195.633 20.839 189.451 27.5288C189.844 26.6527 190.263 25.8032 190.63 24.8741C186.806 16.2199 183.008 7.56576 170.304 8.46834C168.969 9.02582 167.685 9.63641 166.402 10.2735H166.218L164.883 11.123C161.42 13.0595 158.102 15.251 154.955 17.68L154.248 18.1578C151.839 14.5209 147.543 11.6539 140.681 9.92841C138.674 5.64997 135.332 2.16067 131.173 0C118.443 4.75182 110.219 12.8485 101.13 20.6532L94.1887 17.9985C84.1831 12.6892 71.0344 12.9813 63.8052 20.8921C64.3029 20.8921 65.3244 21.9274 63.8052 21.9274V20.8921C59.7192 18.2375 57.1785 26.0421 51.5733 25.5112C51.5733 30.6612 55.1354 24.4759 54.1925 30.8205C52.8044 31.1537 51.3515 31.0812 50.0024 30.6113C48.6533 30.1414 47.4633 29.2935 46.5705 28.1658C41.9868 29.7055 45.5228 34.3512 41.9606 35.8909C41.9606 33.2362 41.4629 32.2806 40.4414 31.7762C41.9606 37.4306 34.8362 42.0762 33.317 40.51C33.317 38.9703 38.9222 36.9262 33.317 36.8997C31.7978 38.4659 29.7548 37.4306 29.7548 39.5543C34.8362 38.5456 30.2525 43.1646 27.1356 43.1646C23.0757 44.7043 26.1403 39.0499 22.0542 40.51C20.3184 41.7611 19.0605 43.5796 18.492 45.66C22.0542 47.1997 22.0542 40.51 23.5733 44.1203C16.9466 50.81 4.21701 52.3497 0 62.7029C5.60522 64.2691 5.23852 60.6323 8.66975 59.0926C10.1889 60.6588 8.66975 63.7382 11.289 64.2691C11.289 57.5529 12.8082 62.7294 15.8727 62.7294C15.8727 60.6588 16.3704 59.6235 17.3919 59.1191C19.1677 58.7603 20.9178 58.2814 22.6305 57.6856C18.2361 61.7184 14.411 66.3456 11.2629 71.4367C16.8157 69.7111 19.7492 65.4902 25.4592 68.9413C25.8259 64.8 30.6977 59.4907 35.36 59.8624C31.6931 56.3582 39.2627 54.0752 41.2534 51.8984C41.2534 54.5531 39.7866 54.5531 39.8652 57.2077L47.7229 52.4825C42.7379 58.5727 38.2611 65.0724 34.3386 71.9145C44.0298 74.5691 42.4844 87.8424 53.6949 89.4352C58.5667 82.9578 65.8221 76.8256 71.7416 70.8526C75.0942 78.9759 78.997 86.5416 90.836 86.0638C91.5956 85.7718 92.329 85.4267 93.0886 85.1081C94.343 85.8565 95.7321 86.3438 97.1746 86.5416L108.856 78.5777C111.266 82.1615 115.509 84.9754 122.241 86.6744C124.261 90.9503 127.598 94.4444 131.749 96.6293C144.217 92.0102 152.467 84.1524 161.242 76.5336C165.314 78.4445 169.505 80.0851 173.788 81.4447C174.521 81.4447 175.229 81.4447 175.936 81.312C184.448 83.4091 193.642 81.7898 199.247 75.6576C198.723 75.6576 197.728 74.6222 199.247 74.6222V75.6576C203.307 78.3122 205.848 70.481 211.453 71.0119C211.453 65.8353 207.891 72.0472 208.834 65.8354C210.222 65.5021 211.675 65.5747 213.024 66.0445C214.373 66.5144 215.563 67.3624 216.456 68.49C221.039 66.9238 217.477 62.2781 221.039 60.7384C221.039 63.3931 221.563 64.3487 222.585 64.8797C221.039 59.1987 228.164 54.5531 229.709 56.0928C229.709 57.659 224.104 59.7031 229.709 59.7031C231.228 58.1634 233.271 59.1987 233.271 57.0485C228.164 58.0838 232.748 53.4381 235.891 53.4381C239.951 51.8984 236.912 57.5794 240.972 56.0928C242.708 54.8417 243.966 53.0231 244.534 50.9428C240.972 49.4031 240.972 56.0928 239.453 52.4825C246.211 45.2618 258.914 43.6956 263 33.3955ZM13.8559 58.8271C13.1042 58.566 12.4497 58.0771 11.9812 57.4266C11.5127 56.7761 11.2528 55.9954 11.2367 55.1902C13.2797 54.6858 13.2797 56.2255 14.7989 56.2521C14.8775 57.7918 13.8559 57.2608 13.8559 58.8271ZM175.36 66.791H173.186C174.495 65.915 175.805 65.0655 177.219 64.1364C177.376 64.6142 177.56 65.0655 177.743 65.5168L175.36 66.791ZM74.7275 61.4817C74.7231 61.3367 74.7544 61.1929 74.8184 61.0632C74.8824 60.9335 74.9772 60.8219 75.0942 60.7384C74.9574 60.9694 74.8349 61.2088 74.7275 61.4552V61.4817ZM185.915 35.9174C185.915 34.3777 186.937 34.8821 188.534 34.3777C188.456 35.8909 187.434 35.3865 185.915 35.8909V35.9174ZM29.6501 45.4477H32.2693C31.7455 45.952 32.2693 46.483 33.2646 46.483C33.7361 49.058 27.607 49.0314 29.6501 45.4211V45.4477ZM88.0595 29.2277H90.1026C88.7406 30.1569 87.3524 31.0594 85.8856 31.8824C85.7284 31.4311 85.5713 31.0329 85.3879 30.6081L88.0595 29.2277ZM233.481 50.4649H230.862C231.359 49.9606 230.862 49.4296 229.84 49.4296L232.145 47.7041C233.455 47.6775 234.502 48.5801 233.481 50.4118V50.4649ZM245.687 37.0589L244.089 37.404C245.163 36.3156 246.184 35.2007 247.18 34.0592C247.075 35.6254 246.603 36.5546 245.582 37.0058L245.687 37.0589ZM248.306 39.7136C248.306 38.1739 249.327 38.6783 249.327 37.0589C250.079 37.3117 250.735 37.7948 251.204 38.4416C251.673 39.0883 251.933 39.8667 251.947 40.6693C249.747 41.1206 249.747 39.5809 248.201 39.5809L248.306 39.7136Z" fill="#DD5543"/>
<path d="M39.1318 34.8457C37.5804 35.3609 36.457 34.8457 36.457 36.4185C38.0887 35.8762 39.1318 36.4185 39.1318 34.8457Z" fill="#DD5543"/>
</svg>
