<svg width="78" height="6" viewBox="0 0 78 6" fill="none" xmlns="http://www.w3.org/2000/svg">
<path d="M38.595 5.40346C39.5788 5.40346 40.8549 5.24708 41.8307 5.36291C42.092 5.1823 42.3799 5.10068 42.6683 5.12548L42.692 5.42085L42.9567 5.33976C43.0594 5.43242 42.7552 5.38608 42.9567 5.5077L43.0594 5.32816C43.0594 5.43241 43.7231 5.43242 43.2846 5.62354L44.292 5.66988C44.5172 5.66988 44.4264 5.42662 44.6871 5.5077C44.7385 5.60036 44.6002 5.56564 44.616 5.67568C45.3548 5.92471 45.4852 5.13705 46.1686 5.29921L46.1094 5.33396C46.2279 5.26446 46.4531 5.28185 46.457 5.24131C46.3741 4.94015 46.3306 5.39769 46.1212 5.21236C46.1449 4.96333 46.386 5.08492 46.3781 4.8938C46.5361 4.99226 46.6348 4.85329 46.7731 4.84749C47.0102 5.01545 47.3578 4.91118 47.5356 5.11388C47.6812 4.94116 47.8559 4.82913 48.0413 4.78956C48.223 4.99226 47.9979 4.9749 48.2428 5.05598L48.2863 4.91119C48.4877 4.91119 48.4561 4.98069 48.4443 5.05018C48.6616 5.05018 48.63 4.85329 48.8986 4.95753L48.7446 5.09073C48.9308 5.05564 49.1193 5.05564 49.3056 5.09073C49.3056 5.17181 49.1871 5.16603 49.108 5.13707C49.2542 5.35715 49.3688 5.05018 49.4478 5.07913C49.4478 5.01543 49.2344 4.98069 49.3293 4.8417C49.4675 4.8417 49.6256 4.65058 49.7243 4.8417L49.5703 4.98069C49.8626 4.87065 49.7283 4.80114 50.0562 4.86485C50.0562 4.86485 50.0562 4.91119 50.0562 4.94594C50.2695 4.7664 50.5421 4.94594 50.8463 4.94594L50.7871 4.98649C50.9135 4.93436 50.9846 4.80693 51.0518 4.81851C50.874 4.73164 50.9254 4.69112 50.9096 4.55212C51.1427 4.79537 51.2691 4.27414 51.6484 4.41893C51.6417 4.44819 51.6306 4.47473 51.6157 4.49648C51.6008 4.51823 51.5826 4.53456 51.5626 4.54413C51.5426 4.55371 51.5214 4.55628 51.5006 4.55163C51.4798 4.54698 51.46 4.53526 51.4429 4.51737C51.3125 4.76062 51.2967 4.96911 51.0478 5.09653C51.194 5.03861 51.3639 5.00386 51.3284 5.09653L51.3758 4.87065C51.4627 4.87065 51.5338 4.87065 51.597 4.87065C51.6365 4.72586 51.4232 4.63319 51.6247 4.54053C51.8262 4.44786 51.7471 4.77797 51.7827 4.67372C52.0987 4.58685 51.9131 4.43049 52.2173 4.50578C52.1857 4.50578 52.1264 4.5637 52.1027 4.54632C52.32 4.63899 52.6361 4.50577 52.6993 4.78376C52.6677 4.84747 52.6597 4.92856 52.5768 4.9054V4.86485C52.3397 5.06176 52.7783 4.81274 52.7032 5.05598C52.7032 4.91119 52.9916 4.94593 53.1299 4.97489L53.0864 4.80695C53.5447 4.30309 53.0627 5.13705 53.5171 5.07913C53.8015 4.9691 53.4065 5.03281 53.5842 4.91119C53.7778 4.94594 53.8489 5.09652 54.1295 5.02123C54.2085 5.09073 54.3705 5.17759 54.3823 5.36871C54.5561 5.29342 54.9038 5.45559 55.0026 5.27026C54.7102 5.1081 54.7102 5.46716 54.3665 5.21812L54.4653 5.03859C54.6992 5.00716 54.9346 5.00716 55.1685 5.03859C55.1369 4.99805 55.1211 4.95173 55.1408 4.91119C55.4806 4.84749 55.5794 4.66215 55.9073 4.72586C55.9508 4.89381 55.7572 4.85907 55.6149 4.87645C55.8283 5.01544 55.8401 4.87644 56.1681 4.94594C56.1681 5.09652 55.9468 4.94593 55.9073 5.07913L56.2708 5.03859C56.3261 4.79535 56.5473 5.03862 56.7725 4.99808C57.2979 4.99808 57.3809 4.68531 57.6772 4.49419C57.7562 4.56368 57.776 4.62741 57.7444 4.69111C57.614 4.57528 57.6377 4.69111 57.5903 4.72586C57.7681 4.72586 57.9854 4.98068 57.8748 5.07913C58.1592 5.01543 57.776 4.94015 57.9499 4.87065L58.3449 4.9054C58.3015 4.77219 58.1632 4.74323 58.3449 4.65057C58.5025 4.62563 58.6614 4.62563 58.819 4.65057C58.7835 4.70848 58.8822 4.84169 58.7163 4.8301C58.823 4.88223 58.9889 4.89382 59.056 4.7722C58.819 4.65058 59.4512 4.68533 59.2813 4.48263L59.5183 4.61002C59.463 4.61002 59.4551 4.68532 59.3761 4.65636C59.4393 4.85328 59.5736 4.61584 59.6566 4.59846C59.7395 4.58109 59.9607 4.67372 59.9766 4.74901C60.0556 4.70268 60.2413 4.74904 60.2729 4.85329C60.3874 4.82433 60.2729 4.73167 60.3203 4.66796L60.7154 4.71427C60.7154 4.81851 60.7509 5.11968 60.6917 5.15443C60.8418 5.06755 60.7549 4.84748 60.9761 4.87065C60.8418 5.06756 61.2606 5.0502 61.067 5.28186C61.2756 5.4357 61.5122 5.48843 61.7426 5.43244C61.873 5.28186 61.5372 5.32238 61.553 5.15443C62.11 5.15443 62.1653 4.6911 62.5683 4.81851L62.4656 4.75481C62.6051 4.75094 62.7414 4.693 62.8606 4.58687C62.7777 4.78378 63.1135 5.16602 63.5362 5.16602C63.5757 5.06177 63.311 4.93437 63.39 4.778H63.6745C63.6745 4.778 63.6745 4.83012 63.6192 4.84749C63.8799 4.80695 64.0775 5.1776 64.1644 4.94594L64.4054 5.28186L64.3106 5.13707C64.3501 5.04441 64.6385 5.04439 64.7057 5.00964C64.7993 4.9687 64.8983 4.9621 64.994 4.99037C65.0898 5.01865 65.1793 5.08095 65.2548 5.17182C65.2074 5.08495 65.0928 4.87643 65.322 4.86485C65.322 5.20655 65.7961 5.03282 65.7803 5.20657C65.8711 5.20657 66.0331 5.32819 66.0489 5.20657L66.0252 5.41505C66.0568 5.12548 66.3926 5.16602 66.6534 5.13127C66.5822 5.5251 66.9339 5.13127 67.0484 5.49034C67.1077 5.22973 67.5107 5.41504 67.5621 5.18338C67.7596 5.18338 67.7319 5.43243 67.7833 5.52509L67.8781 5.42665C68.0993 5.55489 68.3301 5.6443 68.5656 5.69303L68.7749 5.46719L68.85 5.57723C68.8816 5.51932 69.0555 5.49032 68.9488 5.39766H69.0594C69.0594 5.13704 69.2174 5.33397 69.4545 5.22972C69.5019 5.27026 69.49 5.33396 69.4545 5.36871C69.5651 5.36871 69.5177 5.50771 69.5769 5.59459C69.4979 5.52509 69.972 5.14285 69.6836 5.01544C69.6836 4.9054 69.8417 4.83592 69.9483 4.88804L70.0115 5.11968L70.1459 4.88224C70.3158 4.85328 70.3869 5.00387 70.541 5.03283C70.3987 5.03283 70.2209 5.47296 70.5844 5.47875C70.446 5.511 70.3124 5.5776 70.1893 5.67568C70.2644 5.67568 70.2999 5.71041 70.1893 5.80887C70.4777 5.74516 70.2881 5.6641 70.5844 5.64673C70.5844 5.85522 70.6476 5.92471 70.8925 6L70.7069 5.84362C70.718 5.8215 70.7313 5.80199 70.7463 5.78572C70.6752 5.78572 70.6555 5.72781 70.6436 5.64673C70.6989 5.64673 70.9716 5.39768 71.015 5.52509C70.7385 5.19498 71.5128 5.28763 71.335 5.08493C71.3666 5.02702 71.5642 5.02123 71.5839 5.12548C71.3469 5.27606 71.7578 5.36871 71.7183 5.5135C71.8052 5.45558 71.5365 5.35135 71.655 5.27606C71.7719 5.28677 71.8831 5.354 71.9711 5.46719L71.9158 5.5077L72.1291 5.60618C72.1647 5.50193 71.9237 5.42084 72.1291 5.37451C72.1805 5.41505 72.382 5.37451 72.3741 5.4498C72.2792 5.59459 72.3464 5.78571 72.1726 5.81467C72.3148 5.81467 72.7652 5.81466 72.5677 5.59459H72.7375C72.6348 5.50192 72.3425 5.33398 72.6783 5.31661V5.35715L72.9153 5.20657L73.0141 5.31661C73.0141 5.26448 73.0497 5.21234 73.1366 5.22392C73.1366 5.28184 73.2393 5.31079 73.2314 5.39766C73.4842 5.39766 73.4645 5.28763 73.5001 5.22392C73.6383 5.22392 73.6897 5.25868 73.6225 5.3803C73.8457 5.37826 74.0679 5.42311 74.2823 5.5135C74.5431 5.42662 74.231 5.46717 74.385 5.33396C74.5984 5.70462 75.2305 5.50192 75.6532 5.47875C75.5465 5.15443 75.7678 5.47876 75.8508 5.16022C75.7599 5.25868 76.2459 5.42665 75.8745 5.50194H76.0997C76.2458 5.68148 75.7046 5.61198 75.9495 5.86681C76.2024 5.86681 76.3762 5.53088 76.6685 5.66408C76.5619 5.88416 76.8977 5.60037 76.8148 5.84362C76.7516 5.9247 76.6725 5.89573 76.5895 5.90732L76.637 5.95366C77.1861 6.05211 76.8029 5.69884 77.0953 5.55984C77.4311 5.55984 77.356 5.75677 77.3718 5.86681C77.4719 5.91459 77.5798 5.91459 77.68 5.86681C77.4745 5.98843 77.3086 5.69884 77.4074 5.55984C77.5457 5.83204 77.9012 5.61776 78 5.52509C77.5299 5.21814 77.6681 5.48455 77.2098 5.16022C77.1466 5.23551 77.1506 5.46719 76.8819 5.35715C77.0557 5.2529 76.8819 5.22971 76.8266 5.18917C76.8779 5.32238 76.637 5.22973 76.554 5.28186C76.4829 5.17182 76.7239 4.98649 76.4513 4.91699L76.392 5.22392C76.2853 5.1718 76.4434 4.99807 76.2142 5.06178C76.3407 4.90541 76.1826 4.80116 76.4947 4.7722C76.1313 4.48263 75.9218 4.88803 75.6334 4.98649C75.665 4.98649 75.669 4.92277 75.6967 4.9054C75.6335 4.98648 75.5228 4.9749 75.4359 4.98649C75.2502 4.9112 75.59 4.85328 75.5426 4.7664H75.2345C75.1515 4.80695 75.0724 4.83011 75.0448 4.7664C75.1153 4.67914 75.1814 4.58429 75.2423 4.48263L74.9144 4.69111C74.95 4.58687 74.6497 4.49999 74.8828 4.43628H74.4048L74.3653 4.222C74.2507 4.25675 74.2468 4.29729 74.385 4.33204C74.2231 4.27413 73.6541 4.67374 73.745 4.26255C73.4277 4.36313 73.1053 4.42512 72.781 4.44788C73.1326 4.26255 72.3859 4.18724 72.7534 4.10616C72.5361 4.00771 72.4887 4.23939 72.3188 4.26834C72.1608 4.17568 72.2319 3.96718 72.4057 3.89768L72.2042 3.98456V3.96717L72.0264 4.08301C71.8407 3.96718 71.9869 3.86873 71.7973 3.83398L71.7499 4.01931L71.6235 3.90927C71.6709 3.99614 71.5563 4.03088 71.4141 4.04247V3.96717L71.2441 3.99612C71.414 3.88608 71.0861 3.94979 71.1691 3.81659C71.0376 3.80244 70.9055 3.80244 70.774 3.81659L70.8175 3.94402C70.4738 4.04827 70.8175 3.75866 70.5291 3.7355V3.88608C70.134 3.62547 69.8495 4.00193 69.5572 3.83398C69.727 3.80502 69.6836 3.63127 69.6797 3.6776C69.3657 3.66841 69.0523 3.71904 68.7473 3.82818C68.6564 3.6139 68.6327 3.5502 68.3522 3.44016C68.1586 3.44016 68.127 3.44016 68.0599 3.58495C67.8742 3.48649 67.5146 3.58494 67.5067 3.43436C67.4593 3.55599 67.3369 3.39961 67.2302 3.49806V3.43436V3.58495C66.9062 3.23167 66.6573 3.72971 66.3255 3.41697L66.3887 3.38222L66.2425 3.42857C66.2425 3.36486 66.282 3.33011 66.2899 3.24323L65.6301 3.16214L65.7565 3.28378C65.6182 3.28378 65.5155 3.42278 65.3615 3.28378C65.6341 3.09266 65.1442 3.24904 65.1086 3.07529L65.2509 3.03475C65.0573 3.03475 65.0572 3.03475 65.0651 3.17954C64.8123 3.17954 64.9111 2.87835 64.6701 3.01156H64.8321C64.8795 3.10422 64.7531 3.21427 64.6424 3.19689C64.6187 3.19689 64.5437 3.09843 64.6424 3.08685C64.4409 3.1216 64.1486 3.00577 64.0577 3.0521C63.955 2.99419 63.9945 2.89573 64.0577 2.86677C63.6271 2.94206 63.876 2.81465 63.4335 2.86677V2.78572L63.2794 2.86677L63.0779 2.66408L63.149 2.77992C63.0182 2.81056 62.8848 2.81056 62.754 2.77992L62.829 2.66408C62.434 2.66408 62.3747 2.40924 61.9836 2.54245C61.9599 2.54245 62.0231 2.48453 62.0507 2.46716C61.6912 2.62932 61.7939 2.22394 61.4305 2.42665C61.4542 2.38611 61.4305 2.33396 61.4305 2.29921L61.2685 2.36291V2.20077L61.1302 2.4382L61.0354 2.25287L60.9722 2.33396C60.8102 1.99805 60.5771 2.21812 60.3282 1.9633L60.3638 2.17758C59.7554 2.57719 59.0087 1.85328 58.2857 2.02703V1.86485L57.9854 2.05018C57.8274 1.91119 58.0802 1.91117 58.0328 1.81851C57.7167 1.90538 57.8985 2.06178 57.5271 2.10232C57.3414 1.9807 57.5943 1.98067 57.6851 1.92275C57.323 2.02189 56.9526 2.03948 56.5868 1.97489C56.5868 1.97489 56.5631 2.027 56.5868 2.03279C56.324 2.06755 56.0595 2.06755 55.7967 2.03279C55.7967 1.9575 55.8678 1.94592 55.931 1.92855C55.8401 1.92855 55.7137 1.86484 55.6386 1.92855L55.7334 1.78376C55.5398 1.78376 55.1646 1.88222 55.1211 1.71427C55.1448 1.77797 55.1211 1.89959 54.967 1.8938C54.8722 1.63318 54.5087 1.99805 54.2401 1.85905C54.2717 1.80114 54.4692 1.78376 54.4139 1.78376C54.2796 1.71426 54.1571 1.8359 54.0188 1.91119L54.0544 1.81275L53.4302 1.95174C53.3393 1.69112 52.8415 1.98068 52.885 1.79536C52.6637 1.79536 53.0706 1.91119 52.7901 1.94014C52.7151 1.8301 52.5373 1.98646 52.5491 1.81851H52.5807H52.3832L52.5057 1.65636C52.3398 1.69111 52.2133 1.85327 52.2054 1.97489C52.0434 1.88223 51.8103 1.9749 51.7432 1.80695L51.8064 1.7664C51.356 1.83011 51.0636 1.30888 50.7081 1.58687C50.6804 1.58687 50.6844 1.51738 50.7397 1.52317H50.4631L50.5303 1.39574L50.0246 1.65057V1.56948C49.7204 1.52894 49.2344 1.56948 48.8394 1.56948L48.8986 1.53473C48.472 1.65056 48.5035 1.44207 48.1756 1.53473C48.1841 1.51959 48.195 1.50767 48.2073 1.49998H47.9267L47.9899 1.41889C47.7806 1.59264 47.4013 1.16408 47.5277 1.32045C47.4092 1.39574 47.2038 1.48842 47.1682 1.59267C46.86 1.59267 47.0931 1.48262 46.9074 1.40154C46.7218 1.32046 46.6428 1.52895 46.3425 1.44208V1.35519C46.2042 1.35519 46.1133 1.4189 45.9197 1.42469L45.979 1.38994C45.6551 1.5521 45.5839 1.12355 45.3271 1.48263C45.1928 1.40734 44.9321 1.44786 44.9558 1.2799C44.5607 1.37257 44.2446 1.40731 43.8495 1.45944C43.7903 1.18144 43.7627 1.45946 43.5296 1.30309V1.45364C42.9725 1.45364 42.3443 1.04825 41.7201 1.07142V0.926628L41.5937 1.08301C40.9299 0.978763 40.0766 0.87449 39.5472 0.839741C39.3188 0.972047 39.0731 1.02748 38.8281 1.00192H38.8558C38.3536 1.07587 37.8473 1.06616 37.3466 0.97297C37.3822 0.915055 37.3466 0.868729 37.3901 0.833979C37.2597 0.984559 37.0819 0.833979 36.9713 0.833979L37.0977 0.949781C37.0249 0.994674 36.9446 1.00653 36.8671 0.983822C36.7896 0.96111 36.7186 0.904885 36.6631 0.822385L36.4221 0.967173C36.4051 0.951775 36.3914 0.929711 36.3826 0.903475L36.3391 0.978767L36.2206 0.78184C36.1614 0.816589 35.8453 0.845537 35.7465 1.02507C35.7228 0.961367 35.5056 0.897655 35.6754 0.874489L34.8181 0.764449L34.9485 0.839741C34.9485 0.990321 34.7035 1.06562 34.5534 0.990326C34.7312 0.886079 34.5534 0.781839 34.502 0.6718C34.3835 0.74709 34.6008 0.805002 34.5376 0.886083C34.3656 0.978241 34.1791 0.996342 34.0003 0.938222L34.0872 0.880286C33.8857 0.926618 33.8027 0.666003 33.6052 0.666003C33.4235 0.776042 33.2971 0.665999 33.3287 0.915034C33.0679 0.949783 33.2339 0.735505 33.1509 0.706548C33.0644 0.753492 32.9712 0.767492 32.88 0.747234C32.7887 0.726976 32.7025 0.673115 32.6294 0.59071C32.4792 0.955576 31.9459 0.422751 31.8827 0.729701L31.6773 0.544404C31.6697 0.624253 31.6427 0.697429 31.6014 0.750592C31.5601 0.803755 31.507 0.83336 31.452 0.833979C31.294 0.735524 31.3375 0.590732 31.29 0.503859L31.1755 0.810791C30.2589 0.422759 29.0342 0.590712 28.0149 0.266387C27.4999 0.359419 26.9807 0.392366 26.4622 0.364868L26.5215 0.330085L25.9961 0.225842L26.3911 0.382224C26.2889 0.431077 26.1825 0.458386 26.0751 0.463314C25.3993 0.24989 24.7057 0.183525 24.0167 0.266387C23.5505 0.608086 23.7165 -0.0637378 23.27 0.185297C23.3095 0.185297 23.3253 0.104244 23.3569 0.0694953C22.9469 0.148561 22.5415 0.272432 22.1441 0.440125C22.2033 0.086843 21.8319 0.440127 21.8793 0.26059L21.8359 0.405378C21.7332 0.312713 21.4843 0.277986 21.5198 0.173738L21.3065 0.353274V0.202689C21.0299 0.202689 20.4294 0.301159 20.2832 0C19.406 0.173617 18.5187 0.210504 17.6362 0.11004C17.4551 0.220697 17.2593 0.270182 17.0633 0.254828L16.85 0.0810543C16.6485 0.133178 16.4549 0.370629 16.2495 0.26059C16.2471 0.25339 16.2458 0.245474 16.2458 0.237437C16.2458 0.229399 16.2471 0.221483 16.2495 0.214283C16.048 0.254824 15.8544 0.167928 15.6608 0.335882C15.4356 0.335882 15.2183 0.249008 15.2855 0.0810543C15.2657 0.376422 14.8075 0.0810543 14.8075 0.0810543H14.3057C13.9857 0.0810543 13.5155 0.0810543 12.9624 0.0810543C11.8325 0.121595 10.3036 0.127412 8.68378 0.324323C5.44415 0.608108 1.86872 1.48261 0.553117 2.55404C0.474102 2.71041 0.221233 2.85522 0.335805 3.0058C0.142218 3.09846 0.0276554 2.86101 0 3.0058C0.284455 3.05213 -0.0474188 3.3938 0.237036 3.52122L0.071135 3.58495C0.0434796 3.69499 0.288423 3.42858 0.264719 3.6197L0.288398 3.34168C0.390116 3.33845 0.489367 3.38763 0.568887 3.48067C0.68741 3.35326 0.734864 2.97684 1.05883 3.07529L0.975828 3.11004C1.22868 3.05213 1.14574 3.25482 1.205 3.28378H1.14573L1.3709 3.37643C1.20102 3.31851 0.975847 3.58494 1.09437 3.5444C1.40253 3.5444 1.01139 3.49226 1.23264 3.41697C1.37091 3.37643 1.34327 3.52703 1.34722 3.6139L1.59612 3.55596C1.59612 3.68338 1.43019 3.55599 1.54081 3.68919L1.84503 3.49806C1.93194 3.80501 2.17685 3.28376 2.34673 3.55596C2.12549 3.67179 2.37439 3.65445 2.34673 3.76448L2.89985 3.64285C2.95516 3.6776 2.76157 3.77025 2.84453 3.7355C2.95515 3.805 3.01049 3.62549 3.0658 3.6197C3.12111 3.6139 3.46088 3.5386 3.46088 3.75289C3.85595 3.83976 3.59916 3.46331 3.96263 3.53281C4.01794 3.65443 3.68211 3.60231 3.84804 3.71234L4.21153 3.6139C4.18387 3.6834 4.15622 3.82818 4.01399 3.82239C5.01354 3.82239 5.59429 4.44787 6.47136 4.15251C6.60568 4.28571 6.38442 4.26255 6.30145 4.37838C6.93753 4.07722 7.23383 4.60425 7.78299 4.52317V4.40154C8.57314 4.71428 9.48974 4.40153 10.3668 4.47103L10.2601 4.38994C10.4014 4.2823 10.5534 4.20802 10.7105 4.16986C10.7342 4.23357 10.6157 4.44788 10.8686 4.37838C10.8133 4.33784 10.7066 4.2973 10.7342 4.2336C11.4967 4.52317 13.0731 4.30308 14.2899 4.43628C15.1236 4.36099 15.9927 4.36677 16.8579 4.38415C17.7232 4.40152 18.5884 4.45364 19.4101 4.38415C19.1573 4.38415 19.2639 4.08301 19.4536 4.15251C19.9672 4.67374 20.3464 4.06563 20.8758 4.43628C21.8319 4.27991 22.6814 4.74903 23.5742 4.36679V4.51158C23.7086 4.58687 23.7441 4.51158 23.8863 4.47683V4.51737C24.2142 4.58108 24.6172 4.44788 24.8029 4.51737V4.3494C25.0005 4.3494 24.9017 4.48261 25.1071 4.39574V4.47683L25.3442 4.32624C25.3165 4.62161 25.8972 4.36678 26.0513 4.50578C26.4217 4.41233 26.7987 4.38704 27.1734 4.43049C27.2445 4.58107 27.7146 4.60424 28.0149 4.69111C28.6036 4.69111 29.4411 4.69111 30.1878 4.76061V4.56948H30.3814C30.3814 4.61002 30.4051 4.63319 30.3814 4.65057C30.5276 4.87644 30.8318 4.61002 30.9859 4.75481C30.8911 4.57527 30.8515 4.72009 30.7409 4.7085C30.5829 4.61005 30.7409 4.43628 30.9542 4.54053V4.58107L31.1044 4.48842C31.1044 4.639 31.2506 4.71427 31.2624 4.86485C31.9064 4.86485 32.3528 4.63321 33.0126 4.73745C32.9415 4.89962 33.4907 4.73743 33.3484 5.00384C33.7435 4.91697 33.2892 4.76639 33.4788 4.57527C33.5894 4.57527 33.7079 4.51158 33.7237 4.62162C33.6724 4.68532 33.8107 4.80113 33.7237 4.81851H33.9885C34.0161 4.81851 33.9568 4.88222 33.9252 4.8996C34.4704 4.7606 34.8813 5.14284 35.3712 5.00384C35.4107 4.89959 35.1816 4.9633 35.2171 4.85905C35.7149 4.67952 35.6478 5.07335 36.1061 4.94594L36.0073 5.08493C36.1574 4.99806 36.2285 4.87643 36.4656 5.00384C36.5051 5.17759 36.2562 5.13128 36.1376 5.20657C36.3036 5.20657 36.7263 5.20654 36.6039 5.03859C36.8053 4.99805 36.8725 5.15444 36.9989 5.20657C36.9989 5.16023 36.8132 5.07914 36.9357 5.00964C37.2714 5.10871 37.6126 5.163 37.955 5.17182C37.955 5.21815 37.955 5.28184 37.955 5.29921C38.2631 5.05597 38.2276 5.43242 38.595 5.40346Z" fill="#053D4C"/>
</svg>
