<svg width="29" height="29" viewBox="0 0 29 29" fill="none" xmlns="http://www.w3.org/2000/svg">
<path d="M1.17736 14.8495C0.7756 14.461 0.770205 13.8187 1.16538 13.4235L13.8814 0.707504C14.2719 0.316998 14.905 0.316977 15.2955 0.707457L17.5884 3L17.0891 4.49976L19.5884 5L28.0235 13.4355C28.414 13.826 28.414 14.4592 28.0235 14.8497L15.3029 27.5702C14.9095 27.9636 14.2707 27.9603 13.8814 27.5628L11.1966 24.8216L10.1966 20.3216L9.08936 22.5L1.17736 14.8495Z" fill="#89CEC0"/>
<path d="M25.6466 12.1006L24.7839 11.5496C23.7372 10.8811 23.2106 9.63669 23.4596 8.41992L23.642 7.52827C23.7551 6.98697 23.5725 6.42926 23.1594 6.03559C22.7419 5.64602 22.1506 5.47378 21.5853 5.5804L20.3738 5.80118C19.2313 6.00937 18.0713 5.53951 17.3957 4.59493L16.7456 3.68585C16.089 2.77138 14.4888 2.77138 13.8322 3.68585L13.1824 4.5945C12.5067 5.5393 11.3463 6.00914 10.2036 5.80062L8.9969 5.5804C8.41857 5.47789 7.83155 5.64602 7.41846 6.03969C7.00537 6.43336 6.82274 6.98697 6.9358 7.52827L7.11824 8.41992C7.3672 9.63669 6.84066 10.8811 5.79396 11.5496L4.93123 12.1006C4.44422 12.4123 4.15723 12.9249 4.15723 13.4785C4.15723 14.0321 4.44856 14.5447 4.93123 14.8522L5.79396 15.4033C6.84066 16.0718 7.3672 17.3162 7.11824 18.5329L6.9358 19.4246C6.82274 19.9659 7.00537 20.5236 7.41846 20.9132C7.83155 21.3027 8.41423 21.475 8.9969 21.3683L10.2036 21.1481C11.3463 20.9396 12.5067 21.4094 13.1824 22.3542L13.8322 23.2629C14.1583 23.7222 14.7062 23.9969 15.2889 23.9969C15.8716 23.9969 16.4195 23.7222 16.7456 23.267L17.3957 22.3579C18.0713 21.4133 19.2313 20.9435 20.3738 21.1517L21.5853 21.3724C22.1679 21.4832 22.7506 21.3068 23.1637 20.9173C23.5768 20.5277 23.7551 19.97 23.6464 19.4287L23.4639 18.537C23.215 17.3203 23.7415 16.0759 24.7882 15.4074L25.6509 14.8563C26.1336 14.5488 26.4249 14.0321 26.4249 13.4826C26.4206 12.9249 26.1336 12.4123 25.6466 12.1006ZM21.7566 14.9588C21.1429 15.3514 20.8338 16.082 20.9798 16.7958V16.7958C21.23 18.0183 20.1652 19.1068 18.9375 18.8829L18.7325 18.8455C18.008 18.7133 17.2716 19.012 16.843 19.6109V19.6109C16.0816 20.6749 14.4953 20.6721 13.7345 19.6077V19.6077C13.3066 19.009 12.5701 18.7093 11.8461 18.8415L11.6439 18.8784C10.4168 19.1025 9.35231 18.0136 9.6024 16.7914V16.7914C9.74836 16.0782 9.4398 15.3481 8.8262 14.9563V14.9563C7.74349 14.265 7.74349 12.6838 8.8262 11.9924V11.9924C9.4398 11.6006 9.74834 10.8705 9.60239 10.1573V10.1573C9.3523 8.9351 10.4166 7.84596 11.6439 8.06981L11.8494 8.1073C12.5741 8.23947 13.3102 7.94104 13.7388 7.34189V7.34189C14.4987 6.27938 16.082 6.2827 16.8423 7.34498V7.34498C17.2708 7.94379 18.0079 8.24361 18.7323 8.11149L18.941 8.07342C20.1668 7.84983 21.2301 8.93642 20.9801 10.1571V10.1571C20.8339 10.8708 21.1427 11.6008 21.7568 11.9929V11.9929C22.8395 12.6843 22.8388 14.2664 21.7566 14.9588V14.9588ZM15.2889 9.23418C12.7973 9.23418 10.7667 11.1492 10.7667 13.499C10.7667 15.8487 12.7973 17.7638 15.2889 17.7638C17.7805 17.7638 19.8112 15.8487 19.8112 13.499C19.8112 11.1492 17.7805 9.23418 15.2889 9.23418Z" fill="#053D4C"/>
</svg>
