<svg width="29" height="29" viewBox="0 0 29 29" fill="none" xmlns="http://www.w3.org/2000/svg">
<path d="M0.731066 14.8495C0.329311 14.461 0.323916 13.8187 0.719088 13.4235L13.4351 0.707504C13.8256 0.316998 14.4587 0.316977 14.8492 0.707457L17.1421 3L16.6428 4.49976L19.1421 5L27.5772 13.4355C27.9677 13.826 27.9677 14.4592 27.5772 14.8497L14.8566 27.5702C14.4632 27.9636 13.8244 27.9603 13.4351 27.5628L10.7504 24.8216L9.75035 20.3216L8.64307 22.5L0.731066 14.8495Z" fill="#F78A84"/>
<path d="M8.89324 14.8389L8.21582 16.9389H9.57066L8.89324 14.8389Z" fill="#053D4C"/>
<path d="M21.9677 5.69336H11.129V9.08046H13.8387V10.4353H5.03226C3.88065 10.4353 3 11.3159 3 12.4676V19.9192C3 21.0708 3.88065 21.9514 5.03226 21.9514H5.70968V25.4063L9.97742 21.9514H14.5161V17.2095H21.9677C23.1194 17.2095 24 16.3288 24 15.1772V7.72562C24 6.574 23.1194 5.69336 21.9677 5.69336V5.69336ZM10.3161 19.174L9.97742 18.0901H7.87742L7.47097 19.174H5.84516L8.08065 13.145H9.70645L11.9419 19.174H10.3161ZM20.6129 13.8224V15.1772C19.7323 15.1772 18.7839 14.9063 17.971 14.4998C17.1581 14.9063 16.2097 15.1095 15.2613 15.1772L15.1935 13.8224C15.6677 13.8224 16.1419 13.7546 16.6161 13.6192C16.0065 13.0095 15.6 12.2643 15.3968 11.4514H16.8194C17.0226 12.0611 17.429 12.5353 17.9032 12.9417C18.6484 12.3321 19.1226 11.4514 19.1903 10.4353H15.1258V9.08046H17.1581V7.72562H18.5129V9.08046H20.7484L20.8161 9.75788C20.8839 11.1805 20.3419 12.603 19.3258 13.6192C19.8 13.7546 20.2065 13.8224 20.6129 13.8224V13.8224Z" fill="#053D4C"/>
</svg>
