<svg width="44" height="4" viewBox="0 0 44 4" fill="none" xmlns="http://www.w3.org/2000/svg">
<path d="M21.7715 3.6023C22.3265 3.6023 23.0463 3.49805 23.5968 3.57527C23.7442 3.45487 23.9066 3.40045 24.0693 3.41698L24.0826 3.6139L24.232 3.55984C24.2899 3.62162 24.1183 3.59072 24.232 3.6718L24.2899 3.55211C24.2899 3.62161 24.6643 3.62161 24.4169 3.74902L24.9853 3.77992C25.1123 3.77992 25.061 3.61775 25.2081 3.6718C25.2371 3.73358 25.1591 3.71043 25.168 3.78378C25.5848 3.94981 25.6583 3.4247 26.0439 3.53281L26.0104 3.55597C26.0773 3.50964 26.2043 3.52124 26.2065 3.49421C26.1597 3.29344 26.1352 3.59846 26.0171 3.47491C26.0305 3.30888 26.1664 3.38995 26.162 3.26253C26.2511 3.32817 26.3068 3.23552 26.3848 3.23166C26.5186 3.34363 26.7147 3.27412 26.815 3.40925C26.8971 3.29411 26.9957 3.21942 27.1002 3.19304C27.2027 3.32817 27.0757 3.3166 27.2139 3.37065L27.2384 3.27413C27.3521 3.27413 27.3342 3.32046 27.3276 3.36679C27.4501 3.36679 27.4323 3.23552 27.5838 3.30502L27.4969 3.39382C27.602 3.37043 27.7083 3.37043 27.8134 3.39382C27.8134 3.44787 27.7465 3.44402 27.702 3.42471C27.7844 3.57143 27.8491 3.36678 27.8936 3.38609C27.8936 3.34362 27.7733 3.32046 27.8268 3.2278C27.9048 3.2278 27.9939 3.10038 28.0496 3.2278L27.9627 3.32046C28.1276 3.2471 28.0518 3.20076 28.2368 3.24323C28.2368 3.24323 28.2368 3.27413 28.2368 3.29729C28.3572 3.1776 28.5109 3.29729 28.6826 3.29729L28.6491 3.32432C28.7205 3.28957 28.7606 3.20462 28.7984 3.21234C28.6982 3.15442 28.7271 3.12741 28.7182 3.03475C28.8497 3.19691 28.921 2.84943 29.135 2.94595C29.1312 2.96546 29.1249 2.98315 29.1165 2.99766C29.1081 3.01216 29.0979 3.02304 29.0866 3.02942C29.0753 3.03581 29.0633 3.03752 29.0516 3.03442C29.0399 3.03132 29.0287 3.0235 29.0191 3.01158C28.9455 3.17374 28.9366 3.31274 28.7962 3.39768C28.8787 3.35907 28.9745 3.33591 28.9545 3.39768L28.9812 3.2471C29.0302 3.2471 29.0703 3.2471 29.106 3.2471C29.1283 3.15057 29.008 3.08879 29.1216 3.02702C29.2353 2.96524 29.1907 3.18531 29.2107 3.11581C29.389 3.0579 29.2843 2.95366 29.4559 3.00385C29.4381 3.00385 29.4046 3.04247 29.3913 3.03088C29.5138 3.09266 29.6921 3.00385 29.7278 3.18917C29.71 3.23164 29.7055 3.28571 29.6587 3.27026V3.24323C29.525 3.37451 29.7724 3.20849 29.73 3.37065C29.73 3.27413 29.8927 3.29729 29.9707 3.31659L29.9462 3.20463C30.2047 2.86873 29.9328 3.4247 30.1891 3.38609C30.3496 3.31273 30.1267 3.35521 30.227 3.27413C30.3362 3.29729 30.3763 3.39768 30.5346 3.34749C30.5791 3.39382 30.6705 3.45173 30.6772 3.57914C30.7753 3.52895 30.9714 3.63706 31.0271 3.51351C30.8622 3.4054 30.8622 3.64477 30.6683 3.47875L30.724 3.35906C30.8559 3.3381 30.9887 3.3381 31.1207 3.35906C31.1029 3.33203 31.0939 3.30116 31.1051 3.27413C31.2967 3.23166 31.3525 3.1081 31.5374 3.15057C31.562 3.26254 31.4528 3.23938 31.3725 3.25096C31.4929 3.34363 31.4996 3.25096 31.6845 3.29729C31.6845 3.39768 31.5597 3.29729 31.5374 3.38609L31.7425 3.35906C31.7737 3.1969 31.8985 3.35908 32.0255 3.33205C32.3219 3.33205 32.3687 3.12354 32.5359 2.99612C32.5804 3.04246 32.5916 3.08494 32.5738 3.12741C32.5002 3.05019 32.5136 3.12741 32.4869 3.15057C32.5871 3.15057 32.7097 3.32045 32.6473 3.38609C32.8078 3.34362 32.5916 3.29343 32.6897 3.2471L32.9125 3.27026C32.888 3.18146 32.81 3.16215 32.9125 3.10038C33.0014 3.08375 33.0911 3.08375 33.18 3.10038C33.1599 3.13899 33.2156 3.22779 33.122 3.22007C33.1822 3.25482 33.2758 3.26255 33.3137 3.18147C33.18 3.10039 33.5365 3.12355 33.4407 2.98842L33.5744 3.07335C33.5432 3.07335 33.5388 3.12355 33.4942 3.10424C33.5299 3.23552 33.6056 3.07723 33.6524 3.06564C33.6992 3.05406 33.824 3.11582 33.8329 3.16601C33.8775 3.13512 33.9822 3.16603 34.0001 3.23553C34.0647 3.21622 34.0001 3.15444 34.0268 3.11197L34.2497 3.14284C34.2497 3.21234 34.2698 3.41312 34.2363 3.43628C34.321 3.37837 34.272 3.23165 34.3968 3.2471C34.321 3.37837 34.5572 3.3668 34.448 3.52124C34.5657 3.6238 34.6992 3.65895 34.8292 3.62163C34.9027 3.52124 34.7133 3.54825 34.7222 3.43628C35.0364 3.43628 35.0676 3.1274 35.2949 3.21234L35.237 3.16987C35.3157 3.16729 35.3926 3.12867 35.4598 3.05791C35.413 3.18919 35.6025 3.44401 35.8409 3.44401C35.8632 3.37452 35.7139 3.28958 35.7585 3.18533H35.919C35.919 3.18533 35.919 3.22008 35.8878 3.23166C36.0348 3.20464 36.1463 3.45173 36.1953 3.29729L36.3312 3.52124L36.2778 3.42471C36.3 3.36294 36.4627 3.36292 36.5006 3.33976C36.5534 3.31247 36.6093 3.30807 36.6633 3.32692C36.7173 3.34577 36.7678 3.3873 36.8104 3.44788C36.7837 3.38996 36.719 3.25096 36.8483 3.24323C36.8483 3.47103 37.1157 3.35521 37.1068 3.47104C37.1581 3.47104 37.2495 3.55212 37.2584 3.47104L37.245 3.61003C37.2628 3.41698 37.4522 3.44401 37.5993 3.42085C37.5592 3.6834 37.7576 3.42085 37.8222 3.66023C37.8556 3.48648 38.083 3.61002 38.1119 3.45558C38.2234 3.45558 38.2077 3.62162 38.2367 3.68339L38.2902 3.61776C38.415 3.70326 38.5452 3.76286 38.678 3.79536L38.7961 3.64479L38.8385 3.71815C38.8563 3.67954 38.9544 3.66022 38.8942 3.59844H38.9566C38.9566 3.42469 39.0457 3.55598 39.1795 3.48648C39.2062 3.51351 39.1995 3.55597 39.1795 3.57914C39.2419 3.57914 39.2151 3.67181 39.2485 3.72972C39.204 3.68339 39.4714 3.42857 39.3087 3.34362C39.3087 3.27026 39.3979 3.22394 39.458 3.25869L39.4937 3.41312L39.5695 3.25483C39.6653 3.23552 39.7054 3.33591 39.7923 3.35522C39.7121 3.35522 39.6118 3.64864 39.8168 3.6525C39.7388 3.674 39.6634 3.7184 39.594 3.78378C39.6363 3.78378 39.6564 3.80694 39.594 3.87258C39.7567 3.83011 39.6497 3.77607 39.8168 3.76448C39.8168 3.90348 39.8525 3.94981 39.9907 4L39.8859 3.89575C39.8922 3.881 39.8997 3.86799 39.9082 3.85714C39.8681 3.85714 39.8569 3.81854 39.8503 3.76448C39.8815 3.76448 40.0352 3.59845 40.0598 3.68339C39.9038 3.46332 40.3405 3.52509 40.2403 3.38995C40.2581 3.35134 40.3695 3.34749 40.3807 3.41698C40.247 3.51737 40.4787 3.57914 40.4565 3.67566C40.5055 3.63705 40.3539 3.56757 40.4208 3.51737C40.4867 3.52451 40.5494 3.56933 40.5991 3.64479L40.5679 3.6718L40.6882 3.73745C40.7083 3.66796 40.5723 3.61389 40.6882 3.583C40.7172 3.61003 40.8308 3.58301 40.8264 3.6332C40.7729 3.72972 40.8108 3.85714 40.7128 3.87644C40.793 3.87644 41.0471 3.87644 40.9356 3.72972H41.0314C40.9735 3.66795 40.8086 3.55599 40.998 3.5444V3.57143L41.1317 3.47104L41.1874 3.5444C41.1874 3.50965 41.2075 3.47489 41.2565 3.48261C41.2565 3.52122 41.3145 3.54052 41.31 3.59844C41.4526 3.59844 41.4415 3.52509 41.4616 3.48261C41.5396 3.48261 41.5685 3.50579 41.5307 3.58687C41.6565 3.58551 41.7819 3.61541 41.9028 3.67566C42.0499 3.61775 41.8739 3.64478 41.9608 3.55597C42.0811 3.80308 42.4377 3.66794 42.6762 3.6525C42.616 3.43628 42.7408 3.6525 42.7876 3.44015C42.7363 3.50579 43.0105 3.61777 42.801 3.66796H42.928C43.0105 3.78765 42.7051 3.74132 42.8433 3.9112C42.986 3.9112 43.084 3.68725 43.2489 3.77605C43.1887 3.92277 43.3782 3.73358 43.3314 3.89575C43.2957 3.9498 43.2512 3.93049 43.2044 3.93821L43.2311 3.96911C43.5409 4.03474 43.3247 3.79922 43.4896 3.70656C43.6791 3.70656 43.6367 3.83784 43.6456 3.9112C43.7021 3.94306 43.763 3.94306 43.8195 3.9112C43.7036 3.99229 43.61 3.79922 43.6657 3.70656C43.7437 3.88803 43.9443 3.74517 44 3.68339C43.7348 3.47876 43.8128 3.65637 43.5543 3.44015C43.5186 3.49034 43.5208 3.64479 43.3693 3.57143C43.4673 3.50194 43.3693 3.48648 43.3381 3.45945C43.367 3.54825 43.2311 3.48649 43.1843 3.52124C43.1442 3.44788 43.2801 3.32433 43.1264 3.27799L43.0929 3.48261C43.0328 3.44787 43.1219 3.33205 42.9926 3.37452C43.064 3.27027 42.9748 3.20077 43.1509 3.18147C42.9458 2.98842 42.8277 3.25869 42.665 3.32432C42.6828 3.32432 42.6851 3.28185 42.7007 3.27026C42.665 3.32432 42.6026 3.3166 42.5536 3.32432C42.4488 3.27413 42.6405 3.23552 42.6138 3.1776H42.44C42.3932 3.20463 42.3486 3.22007 42.333 3.1776C42.3728 3.11943 42.41 3.05619 42.4444 2.98842L42.2594 3.12741C42.2795 3.05791 42.1101 2.99999 42.2416 2.95752H41.9719L41.9496 2.81467C41.885 2.83783 41.8828 2.86486 41.9608 2.88803C41.8694 2.84942 41.5485 3.11583 41.5998 2.8417C41.4208 2.90875 41.2389 2.95008 41.056 2.96525C41.2543 2.8417 40.8331 2.7915 41.0404 2.73744C40.9178 2.67181 40.891 2.82626 40.7952 2.84556C40.7061 2.78379 40.7462 2.64478 40.8442 2.59845L40.7306 2.65638V2.64478L40.6303 2.72201C40.5255 2.64479 40.608 2.57915 40.501 2.55599L40.4743 2.67954L40.403 2.60618C40.4297 2.6641 40.3651 2.68725 40.2849 2.69498V2.64478L40.189 2.66408C40.2848 2.59072 40.0999 2.6332 40.1467 2.54439C40.0725 2.53496 39.998 2.53496 39.9238 2.54439L39.9483 2.62935C39.7544 2.69884 39.9483 2.50578 39.7856 2.49033V2.59072C39.5628 2.41698 39.4023 2.66796 39.2374 2.55599C39.3332 2.53668 39.3087 2.42084 39.3065 2.45173C39.1294 2.44561 38.9526 2.47936 38.7805 2.55212C38.7293 2.40926 38.7159 2.3668 38.5577 2.29344C38.4485 2.29344 38.4306 2.29344 38.3927 2.38997C38.288 2.32433 38.0852 2.38996 38.0807 2.28958C38.054 2.37066 37.9849 2.2664 37.9247 2.33204V2.28958V2.38997C37.742 2.15444 37.6016 2.48648 37.4144 2.27798L37.45 2.25482L37.3676 2.28571C37.3676 2.24324 37.3899 2.22007 37.3943 2.16216L37.0221 2.1081L37.0934 2.18919C37.0154 2.18919 36.9575 2.28185 36.8706 2.18919C37.0243 2.06177 36.748 2.16603 36.728 2.05019L36.8082 2.02316C36.699 2.02316 36.699 2.02316 36.7034 2.11969C36.5608 2.11969 36.6165 1.9189 36.4806 2.00771H36.5719C36.5987 2.06948 36.5274 2.14284 36.465 2.13126C36.4516 2.13126 36.4092 2.06562 36.465 2.0579C36.3513 2.08107 36.1864 2.00385 36.1351 2.03474C36.0772 1.99613 36.0995 1.93049 36.1351 1.91118C35.8922 1.96137 36.0326 1.87643 35.783 1.91118V1.85714L35.6961 1.91118L35.5824 1.77605L35.6225 1.85328C35.5487 1.87371 35.4735 1.87371 35.3997 1.85328L35.442 1.77605C35.2192 1.77605 35.1857 1.60616 34.9651 1.69497C34.9517 1.69497 34.9874 1.65635 35.003 1.64477C34.8002 1.75288 34.8581 1.48263 34.6531 1.61776C34.6665 1.59074 34.6531 1.55598 34.6531 1.53281L34.5617 1.57527V1.46718L34.4837 1.62547L34.4302 1.50191L34.3946 1.55597C34.3032 1.33204 34.1717 1.47875 34.0313 1.30886L34.0514 1.45172C33.7081 1.71813 33.2869 1.23552 32.8791 1.35135V1.24323L32.7097 1.36679C32.6206 1.27412 32.7632 1.27412 32.7365 1.21234C32.5582 1.27025 32.6607 1.37452 32.4512 1.40155C32.3464 1.32047 32.4891 1.32044 32.5403 1.28183C32.336 1.34793 32.1271 1.35966 31.9208 1.31659C31.9208 1.31659 31.9074 1.35133 31.9208 1.35519C31.7725 1.37837 31.6233 1.37837 31.475 1.35519C31.475 1.305 31.5151 1.29728 31.5508 1.2857C31.4995 1.2857 31.4282 1.24323 31.3859 1.2857L31.4394 1.18917C31.3302 1.18917 31.1185 1.25481 31.094 1.14284C31.1073 1.18531 31.0939 1.26639 31.007 1.26253C30.9535 1.08879 30.7485 1.33203 30.597 1.23937C30.6148 1.20076 30.7262 1.18917 30.695 1.18917C30.6192 1.14284 30.5502 1.22394 30.4722 1.27413L30.4922 1.2085L30.1401 1.30116C30.0888 1.12741 29.808 1.32046 29.8325 1.1969C29.7077 1.1969 29.9373 1.27412 29.7791 1.29343C29.7367 1.22007 29.6364 1.32431 29.6431 1.21234H29.6609H29.5495L29.6186 1.10424C29.525 1.12741 29.4537 1.23551 29.4492 1.31659C29.3578 1.25482 29.2263 1.3166 29.1885 1.20463L29.2241 1.1776C28.9701 1.22007 28.8051 0.872584 28.6046 1.05791C28.589 1.05791 28.5912 1.01159 28.6224 1.01545H28.4664L28.5043 0.930493L28.219 1.10038V1.04632C28.0474 1.01929 27.7733 1.04632 27.5504 1.04632L27.5838 1.02315C27.3432 1.10037 27.361 0.961377 27.176 1.02315C27.1808 1.01306 27.1869 1.00511 27.1938 0.999988H27.0356L27.0713 0.945928C26.9531 1.06176 26.7392 0.776051 26.8105 0.880298C26.7437 0.930491 26.6278 0.992279 26.6077 1.06178C26.4339 1.06178 26.5654 0.988412 26.4606 0.934358C26.3559 0.880304 26.3113 1.0193 26.1419 0.961388V0.903463C26.0639 0.903463 26.0127 0.945932 25.9034 0.949793L25.9369 0.926628C25.7541 1.03474 25.714 0.749035 25.5692 0.988417C25.4934 0.938224 25.3463 0.965237 25.3597 0.853268C25.1368 0.915044 24.9585 0.938209 24.7356 0.972958C24.7022 0.78763 24.6866 0.972974 24.5551 0.868727V0.969094C24.2409 0.969094 23.8865 0.698833 23.5344 0.714277V0.617752L23.4631 0.722007C23.0887 0.652509 22.6073 0.582994 22.3087 0.559828C22.1798 0.648031 22.0412 0.684988 21.9031 0.667947H21.9186C21.6354 0.717246 21.3498 0.710775 21.0673 0.648647C21.0874 0.610037 21.0673 0.579152 21.0918 0.555986C21.0183 0.656373 20.918 0.555986 20.8556 0.555986L20.9269 0.633188C20.8858 0.663116 20.8405 0.671023 20.7968 0.655881C20.7531 0.64074 20.713 0.603256 20.6818 0.548257L20.5458 0.644782C20.5362 0.634517 20.5285 0.619808 20.5235 0.602316L20.499 0.652511L20.4322 0.521227C20.3987 0.544393 20.2204 0.563691 20.1647 0.683383C20.1513 0.640911 20.0288 0.598437 20.1246 0.582993L19.641 0.509632L19.7145 0.559828C19.7145 0.660214 19.5763 0.710411 19.4917 0.660217C19.5919 0.590719 19.4917 0.521226 19.4627 0.447867C19.3958 0.49806 19.5184 0.536668 19.4828 0.590722C19.3857 0.652161 19.2805 0.664228 19.1796 0.625482L19.2287 0.586857C19.115 0.617745 19.0682 0.444002 18.9568 0.444002C18.8543 0.517361 18.783 0.443999 18.8008 0.610022C18.6537 0.633189 18.7473 0.490337 18.7005 0.471032C18.6517 0.502328 18.5991 0.511661 18.5477 0.498156C18.4962 0.484651 18.4476 0.448744 18.4063 0.393807C18.3216 0.637051 18.0208 0.281834 17.9851 0.486467L17.8692 0.362936C17.8649 0.416168 17.8498 0.464952 17.8264 0.500395C17.8031 0.535837 17.7732 0.555573 17.7422 0.555986C17.653 0.490349 17.6775 0.393821 17.6508 0.335906L17.5862 0.540527C17.0691 0.28184 16.3783 0.393808 15.8033 0.177591C15.5128 0.239613 15.2199 0.261578 14.9274 0.243245L14.9608 0.220057L14.6644 0.150561L14.8873 0.254816C14.8297 0.287385 14.7696 0.305591 14.709 0.308876C14.3278 0.166593 13.9366 0.12235 13.5479 0.177591C13.2849 0.405391 13.3785 -0.0424918 13.1267 0.123532C13.149 0.123532 13.1579 0.0694963 13.1757 0.0463302C12.9444 0.0990405 12.7157 0.181621 12.4915 0.293417C12.525 0.0578953 12.3155 0.293418 12.3422 0.173727L12.3177 0.270252C12.2597 0.208476 12.1193 0.185324 12.1394 0.115826L12.0191 0.235516V0.135126C11.863 0.135126 11.5243 0.200772 11.4418 0C10.947 0.115745 10.4465 0.140336 9.94864 0.0733601C9.84647 0.147131 9.73601 0.180121 9.62547 0.169885L9.50514 0.0540362C9.39148 0.0887853 9.28228 0.247086 9.16639 0.173727C9.16501 0.168927 9.16429 0.163649 9.16429 0.158291C9.16429 0.152933 9.16501 0.147655 9.16639 0.142855C9.05273 0.169883 8.94353 0.111952 8.83432 0.223922C8.70729 0.223922 8.5847 0.166005 8.62258 0.0540362C8.61144 0.250948 8.35293 0.0540362 8.35293 0.0540362H8.06989C7.88937 0.0540362 7.62415 0.0540362 7.31214 0.0540362C6.67475 0.0810633 5.81228 0.0849413 4.89854 0.216216C3.07106 0.405405 1.05415 0.988408 0.312015 1.70269C0.267442 1.80694 0.124798 1.90348 0.189429 2.00386C0.0802255 2.06564 0.0156005 1.90734 0 2.00386C0.160462 2.03475 -0.0267491 2.26253 0.133713 2.34748L0.0401274 2.38997C0.024527 2.46332 0.1627 2.28572 0.149329 2.41313L0.162686 2.22779C0.220066 2.22563 0.276053 2.25842 0.320911 2.32045C0.38777 2.2355 0.414539 1.98456 0.597287 2.05019L0.550467 2.07336C0.6931 2.03475 0.646316 2.16988 0.679745 2.18919H0.64631L0.773331 2.25095C0.677499 2.21234 0.550478 2.38996 0.617337 2.36294C0.791171 2.36294 0.57053 2.32817 0.695334 2.27798C0.773336 2.25095 0.757744 2.35135 0.759973 2.40927L0.900378 2.37064C0.900378 2.45558 0.806772 2.37066 0.869174 2.45946L1.04078 2.33204C1.08981 2.53667 1.22797 2.18917 1.3238 2.37064C1.19899 2.44786 1.3394 2.4363 1.3238 2.50966L1.63581 2.42857C1.66701 2.45173 1.55781 2.5135 1.60461 2.49033C1.66701 2.53666 1.69822 2.41699 1.72942 2.41313C1.76063 2.40927 1.95229 2.35907 1.95229 2.50193C2.17515 2.55984 2.0303 2.30887 2.23533 2.35521C2.26653 2.43629 2.07709 2.40154 2.17069 2.4749L2.37574 2.40927C2.36013 2.4556 2.34453 2.55212 2.2643 2.54826C2.82815 2.54826 3.15575 2.96525 3.65051 2.76834C3.72628 2.85714 3.60147 2.8417 3.55467 2.91892C3.91348 2.71815 4.08062 3.0695 4.3904 3.01545V2.93436C4.83613 3.14285 5.35318 2.93436 5.84794 2.98069L5.78776 2.92663C5.86747 2.85487 5.95322 2.80535 6.04183 2.77991C6.0552 2.82238 5.98835 2.96525 6.13098 2.91892C6.09978 2.89189 6.03962 2.86487 6.05522 2.8224C6.48534 3.01545 7.37457 2.86872 8.06099 2.95752C8.53123 2.90733 9.02153 2.91118 9.50961 2.92276C9.99768 2.93435 10.4857 2.9691 10.9493 2.92276C10.8067 2.92276 10.8668 2.722 10.9738 2.76834C11.2635 3.11583 11.4775 2.71042 11.7761 2.95752C12.3154 2.85328 12.7946 3.16602 13.2983 2.91119V3.00772C13.3741 3.05791 13.3941 3.00772 13.4743 2.98455V3.01158C13.6593 3.05405 13.8866 2.96525 13.9914 3.01158V2.8996C14.1028 2.8996 14.0471 2.98841 14.163 2.93049V2.98455L14.2967 2.88416C14.2811 3.08107 14.6087 2.91119 14.6956 3.00385C14.9046 2.94155 15.1172 2.92469 15.3286 2.95366C15.3687 3.05404 15.6339 3.06949 15.8033 3.12741C16.1353 3.12741 16.6078 3.12741 17.029 3.17374V3.04632H17.1382C17.1382 3.07335 17.1516 3.08879 17.1382 3.10038C17.2207 3.25096 17.3923 3.07335 17.4792 3.16987C17.4257 3.05018 17.4034 3.14672 17.341 3.139C17.2519 3.07337 17.341 2.95752 17.4614 3.02702V3.05405L17.5461 2.99228C17.5461 3.09267 17.6285 3.14285 17.6352 3.24323C17.9985 3.24323 18.2503 3.0888 18.6225 3.1583C18.5824 3.26641 18.8922 3.15829 18.8119 3.33589C19.0348 3.27798 18.7785 3.1776 18.8855 3.05018C18.9479 3.05018 19.0147 3.00772 19.0236 3.08108C18.9947 3.12355 19.0727 3.20076 19.0236 3.21234H19.173C19.1886 3.21234 19.1551 3.25482 19.1373 3.2664C19.4449 3.17373 19.6766 3.42856 19.953 3.33589C19.9753 3.2664 19.846 3.30887 19.8661 3.23937C20.1469 3.11968 20.109 3.38224 20.3675 3.29729L20.3118 3.38995C20.3965 3.33204 20.4366 3.25095 20.5703 3.33589C20.5926 3.45172 20.4522 3.42085 20.3853 3.47104C20.4789 3.47104 20.7174 3.47103 20.6483 3.35906C20.762 3.33203 20.7999 3.43629 20.8712 3.47104C20.8712 3.44016 20.7664 3.38609 20.8355 3.33976C21.0249 3.40581 21.2174 3.442 21.4105 3.44788C21.4105 3.47877 21.4105 3.52123 21.4105 3.53281C21.5843 3.37065 21.5643 3.62161 21.7715 3.6023Z" fill="#053D4C"/>
</svg>
