<svg width="131" height="6" viewBox="0 0 131 6" fill="none" xmlns="http://www.w3.org/2000/svg">
<path d="M64.8198 5.40346C66.472 5.40346 68.6152 5.24708 70.2542 5.36291C70.6929 5.1823 71.1766 5.10068 71.6608 5.12548L71.7006 5.42085L72.1452 5.33976C72.3177 5.43242 71.8068 5.38608 72.1452 5.5077L72.3177 5.32816C72.3177 5.43241 73.4324 5.43242 72.6959 5.62354L74.3879 5.66988C74.7661 5.66988 74.6135 5.42662 75.0514 5.5077C75.1377 5.60036 74.9055 5.56564 74.932 5.67568C76.1728 5.92471 76.3918 5.13705 77.5396 5.29921L77.4401 5.33396C77.6392 5.26446 78.0174 5.28185 78.024 5.24131C77.8847 4.94015 77.8117 5.39769 77.46 5.21236C77.4998 4.96333 77.9046 5.08492 77.8913 4.8938C78.1568 4.99226 78.3226 4.85329 78.5549 4.84749C78.953 5.01545 79.5368 4.91118 79.8354 5.11388C80.08 4.94116 80.3734 4.82913 80.6848 4.78956C80.99 4.99226 80.6118 4.9749 81.0232 5.05598L81.0961 4.91119C81.4345 4.91119 81.3815 4.98069 81.3616 5.05018C81.7265 5.05018 81.6734 4.85329 82.1246 4.95753L81.8659 5.09073C82.1786 5.05564 82.4953 5.05564 82.8081 5.09073C82.8081 5.17181 82.609 5.16603 82.4763 5.13707C82.7218 5.35715 82.9142 5.05018 83.047 5.07913C83.047 5.01543 82.6886 4.98069 82.8479 4.8417C83.0801 4.8417 83.3455 4.65058 83.5114 4.8417L83.2526 4.98069C83.7436 4.87065 83.518 4.80114 84.0687 4.86485C84.0687 4.86485 84.0687 4.91119 84.0687 4.94594C84.427 4.7664 84.8849 4.94594 85.3958 4.94594L85.2963 4.98649C85.5086 4.93436 85.628 4.80693 85.7408 4.81851C85.4422 4.73164 85.5285 4.69112 85.502 4.55212C85.8934 4.79536 86.1058 4.27414 86.7428 4.41893C86.7317 4.44819 86.7129 4.47473 86.6878 4.49648C86.6628 4.51823 86.6323 4.53455 86.5987 4.54413C86.5652 4.55371 86.5295 4.55628 86.4946 4.55163C86.4597 4.54698 86.4265 4.53526 86.3977 4.51737C86.1787 4.76062 86.1522 4.96911 85.7342 5.09653C85.9797 5.03861 86.2651 5.00386 86.2053 5.09653L86.285 4.87065C86.4309 4.87065 86.5503 4.87065 86.6565 4.87065C86.7228 4.72586 86.3646 4.63319 86.703 4.54053C87.0414 4.44786 86.9086 4.77797 86.9683 4.67372C87.4992 4.58685 87.1874 4.43049 87.6983 4.50578C87.6452 4.50578 87.5456 4.5637 87.5058 4.54632C87.8708 4.63899 88.4016 4.50577 88.5078 4.78376C88.4547 4.84747 88.4414 4.92856 88.302 4.9054V4.86485C87.9039 5.06176 88.6405 4.81274 88.5144 5.05598C88.5144 4.91119 88.9987 4.94593 89.231 4.97489L89.158 4.80695C89.9277 4.30309 89.1182 5.13705 89.8812 5.07913C90.359 4.96909 89.6955 5.03281 89.994 4.91119C90.3192 4.94594 90.4386 5.09652 90.9097 5.02123C91.0424 5.09073 91.3145 5.17759 91.3344 5.36871C91.6263 5.29342 92.2102 5.45559 92.3761 5.27026C91.8851 5.1081 91.8851 5.46716 91.3078 5.21812L91.4737 5.03859C91.8666 5.00716 92.2619 5.00716 92.6548 5.03859C92.6017 4.99805 92.5751 4.95173 92.6083 4.91119C93.1789 4.84749 93.3449 4.66215 93.8956 4.72586C93.9686 4.89381 93.6435 4.85907 93.4046 4.87644C93.7629 5.01544 93.7828 4.87644 94.3335 4.94594C94.3335 5.09652 93.9619 4.94593 93.8956 5.07913L94.5061 5.03859C94.599 4.79535 94.9705 5.03862 95.3487 4.99808C96.2312 4.99808 96.3705 4.68531 96.8682 4.49418C97.0009 4.56368 97.0341 4.62741 96.981 4.69111C96.762 4.57528 96.8018 4.69111 96.7222 4.72586C97.0208 4.72586 97.3857 4.98068 97.1999 5.07913C97.6777 5.01543 97.0341 4.94015 97.326 4.87065L97.9896 4.9054C97.9166 4.77219 97.6843 4.74323 97.9896 4.65057C98.2542 4.62563 98.5211 4.62563 98.7858 4.65057C98.7261 4.70848 98.8919 4.84169 98.6133 4.8301C98.7924 4.88223 99.0711 4.89382 99.1839 4.7722C98.7858 4.65058 99.8474 4.68533 99.5621 4.48263L99.9602 4.61002C99.8673 4.61002 99.8541 4.68532 99.7214 4.65636C99.8275 4.85328 100.053 4.61584 100.192 4.59846C100.332 4.58109 100.703 4.67372 100.73 4.74901C100.863 4.70268 101.174 4.74904 101.228 4.85329C101.42 4.82433 101.228 4.73167 101.307 4.66796L101.971 4.71427C101.971 4.81851 102.03 5.11968 101.931 5.15443C102.183 5.06755 102.037 4.84748 102.409 4.87065C102.183 5.06756 102.886 5.0502 102.561 5.28186C102.912 5.43569 103.309 5.48843 103.696 5.43244C103.915 5.28186 103.351 5.32238 103.377 5.15443C104.313 5.15443 104.406 4.6911 105.083 4.81851L104.91 4.75481C105.144 4.75094 105.373 4.693 105.574 4.58687C105.434 4.78378 105.998 5.16602 106.708 5.16602C106.775 5.06177 106.33 4.93437 106.463 4.778H106.941C106.941 4.778 106.941 4.83012 106.848 4.84749C107.286 4.80695 107.617 5.1776 107.763 4.94594L108.168 5.28186L108.009 5.13707C108.075 5.04441 108.56 5.04439 108.672 5.00964C108.83 4.9687 108.996 4.9621 109.157 4.99037C109.317 5.01865 109.468 5.08095 109.595 5.17182C109.515 5.08495 109.323 4.87643 109.707 4.86485C109.707 5.20655 110.504 5.03282 110.477 5.20657C110.63 5.20657 110.902 5.32819 110.928 5.20657L110.888 5.41505C110.942 5.12548 111.506 5.16602 111.943 5.13127C111.824 5.5251 112.415 5.13127 112.607 5.49034C112.707 5.22973 113.383 5.41504 113.47 5.18338C113.801 5.18338 113.755 5.43243 113.841 5.52509L114 5.42665C114.372 5.55489 114.759 5.6443 115.155 5.69303L115.507 5.46719L115.633 5.57723C115.686 5.51932 115.978 5.49032 115.799 5.39766H115.984C115.984 5.13704 116.25 5.33397 116.648 5.22972C116.728 5.27026 116.708 5.33396 116.648 5.36871C116.834 5.36871 116.754 5.50771 116.854 5.59459C116.721 5.52509 117.517 5.14285 117.033 5.01544C117.033 4.9054 117.298 4.83592 117.477 4.88804L117.583 5.11968L117.809 4.88224C118.094 4.85328 118.214 5.00387 118.473 5.03283C118.234 5.03283 117.935 5.47296 118.546 5.47875C118.313 5.511 118.089 5.5776 117.882 5.67568C118.008 5.67568 118.068 5.71041 117.882 5.80887C118.366 5.74516 118.048 5.6641 118.546 5.64673C118.546 5.85522 118.652 5.92471 119.063 6L118.751 5.84362C118.77 5.8215 118.792 5.80199 118.818 5.78572C118.698 5.78572 118.665 5.72781 118.645 5.64673C118.738 5.64673 119.196 5.39768 119.269 5.52509C118.804 5.19498 120.105 5.28763 119.806 5.08493C119.859 5.02702 120.191 5.02123 120.224 5.12548C119.826 5.27605 120.516 5.36871 120.45 5.5135C120.596 5.45558 120.145 5.35135 120.344 5.27606C120.54 5.28677 120.727 5.35399 120.875 5.46719L120.782 5.5077L121.14 5.60618C121.2 5.50193 120.795 5.42084 121.14 5.37451C121.226 5.41505 121.565 5.37451 121.551 5.4498C121.392 5.59459 121.505 5.78571 121.213 5.81467C121.452 5.81467 122.208 5.81466 121.877 5.59459H122.162C121.989 5.50192 121.498 5.33398 122.062 5.31661V5.35715L122.46 5.20657L122.626 5.31661C122.626 5.26448 122.686 5.21234 122.832 5.22392C122.832 5.28184 123.004 5.31079 122.991 5.39766C123.416 5.39766 123.383 5.28763 123.442 5.22392C123.675 5.22392 123.761 5.25868 123.648 5.3803C124.023 5.37826 124.396 5.42311 124.756 5.5135C125.194 5.42662 124.67 5.46717 124.929 5.33396C125.287 5.70462 126.349 5.50192 127.059 5.47875C126.879 5.15442 127.251 5.47876 127.39 5.16022C127.238 5.25868 128.054 5.42665 127.43 5.50194H127.808C128.054 5.68148 127.145 5.61198 127.556 5.86681C127.981 5.86681 128.273 5.53088 128.764 5.66408C128.585 5.88416 129.149 5.60037 129.009 5.84362C128.903 5.9247 128.771 5.89573 128.631 5.90732L128.711 5.95366C129.633 6.05211 128.989 5.69884 129.48 5.55984C130.044 5.55984 129.918 5.75677 129.945 5.86681C130.113 5.91459 130.294 5.91459 130.463 5.86681C130.117 5.98843 129.839 5.69884 130.005 5.55984C130.237 5.83204 130.834 5.61776 131 5.52509C130.21 5.21814 130.443 5.48455 129.673 5.16022C129.567 5.23551 129.573 5.46719 129.122 5.35715C129.414 5.2529 129.122 5.22971 129.029 5.18917C129.116 5.32238 128.711 5.22973 128.571 5.28186C128.452 5.17182 128.857 4.98649 128.399 4.91699L128.299 5.22392C128.12 5.1718 128.386 4.99807 128.001 5.06178C128.213 4.90541 127.948 4.80116 128.472 4.7722C127.861 4.48263 127.51 4.88803 127.025 4.98649C127.078 4.98649 127.085 4.92277 127.132 4.9054C127.025 4.98648 126.84 4.9749 126.694 4.98649C126.382 4.9112 126.952 4.85328 126.873 4.7664H126.355C126.216 4.80695 126.083 4.83011 126.037 4.7664C126.155 4.67914 126.266 4.58429 126.369 4.48263L125.818 4.69111C125.878 4.58686 125.373 4.49999 125.765 4.43628H124.962L124.896 4.222C124.703 4.25675 124.696 4.29729 124.929 4.33204C124.657 4.27413 123.701 4.67374 123.854 4.26255C123.321 4.36313 122.779 4.42512 122.235 4.44788C122.825 4.26255 121.571 4.18724 122.188 4.10616C121.823 4.00771 121.744 4.23939 121.458 4.26834C121.193 4.17568 121.312 3.96718 121.604 3.89768L121.266 3.98456V3.96717L120.967 4.08301C120.656 3.96718 120.901 3.86873 120.583 3.83398L120.503 4.01931L120.291 3.90927C120.37 3.99614 120.178 4.03088 119.939 4.04247V3.96717L119.654 3.99612C119.939 3.88608 119.388 3.94979 119.528 3.81659C119.307 3.80244 119.085 3.80244 118.864 3.81659L118.937 3.94402C118.36 4.04827 118.937 3.75866 118.453 3.7355V3.88608C117.789 3.62547 117.311 4.00193 116.82 3.83398C117.106 3.80502 117.033 3.63127 117.026 3.6776C116.499 3.66841 115.972 3.71904 115.46 3.82818C115.308 3.6139 115.268 3.5502 114.797 3.44016C114.472 3.44016 114.418 3.44016 114.306 3.58495C113.994 3.48649 113.39 3.58494 113.377 3.43436C113.297 3.55599 113.091 3.39961 112.912 3.49806V3.43436V3.58495C112.368 3.23167 111.95 3.72971 111.393 3.41697L111.499 3.38222L111.253 3.42857C111.253 3.36486 111.32 3.33011 111.333 3.24323L110.225 3.16214L110.437 3.28378C110.205 3.28378 110.032 3.42277 109.774 3.28378C110.232 3.09266 109.409 3.24904 109.349 3.07529L109.588 3.03475C109.263 3.03475 109.263 3.03475 109.276 3.17954C108.851 3.17954 109.017 2.87835 108.613 3.01156H108.885C108.964 3.10422 108.752 3.21427 108.566 3.19689C108.526 3.19689 108.4 3.09843 108.566 3.08685C108.228 3.1216 107.737 3.00577 107.584 3.0521C107.412 2.99419 107.478 2.89573 107.584 2.86677C106.861 2.94206 107.279 2.81465 106.536 2.86677V2.78572L106.277 2.86677L105.939 2.66408L106.058 2.77992C105.838 2.81056 105.614 2.81056 105.394 2.77992L105.521 2.66408C104.857 2.66408 104.758 2.40924 104.101 2.54245C104.061 2.54245 104.167 2.48453 104.213 2.46716C103.61 2.62932 103.782 2.22394 103.172 2.42665C103.211 2.38611 103.172 2.33396 103.172 2.29921L102.9 2.36291V2.20077L102.667 2.4382L102.508 2.25287L102.402 2.33396C102.13 1.99805 101.738 2.21812 101.32 1.9633L101.38 2.17758C100.358 2.57719 99.1043 1.85328 97.89 2.02703V1.86485L97.3857 2.05018C97.1203 1.91119 97.545 1.91117 97.4654 1.81851C96.9345 1.90538 97.2397 2.06178 96.616 2.10232C96.3042 1.9807 96.7288 1.98067 96.8815 1.92275C96.2732 2.02189 95.6512 2.03948 95.0368 1.97489C95.0368 1.97489 94.997 2.027 95.0368 2.03279C94.5954 2.06755 94.1512 2.06755 93.7098 2.03279C93.7098 1.9575 93.8292 1.94592 93.9354 1.92855C93.7827 1.92855 93.5704 1.86484 93.4444 1.92855L93.6036 1.78376C93.2785 1.78376 92.6482 1.88222 92.5752 1.71427C92.615 1.77797 92.5752 1.89959 92.3164 1.8938C92.1571 1.63318 91.5467 1.99805 91.0955 1.85905C91.1486 1.80114 91.4803 1.78376 91.3874 1.78376C91.1618 1.71426 90.9561 1.8359 90.7239 1.91119L90.7836 1.81275L89.7353 1.95174C89.5827 1.69112 88.7466 1.98068 88.8196 1.79536C88.448 1.79536 89.1315 1.91119 88.6604 1.94014C88.5343 1.8301 88.2357 1.98646 88.2556 1.81851H88.3087H87.9769L88.1826 1.65636C87.904 1.69111 87.6916 1.85327 87.6784 1.97489C87.4063 1.88223 87.0148 1.9749 86.902 1.80695L87.0082 1.7664C86.2518 1.83011 85.7607 1.30888 85.1636 1.58687C85.1171 1.58687 85.1238 1.51738 85.2167 1.52317H84.7522L84.865 1.39574L84.0157 1.65057V1.56948C83.5048 1.52894 82.6886 1.56948 82.0251 1.56948L82.1246 1.53473C81.408 1.65056 81.4611 1.44207 80.9103 1.53473C80.9246 1.51959 80.9428 1.50767 80.9635 1.49998H80.4923L80.5985 1.41889C80.2468 1.59264 79.6099 1.16408 79.8222 1.32045C79.6232 1.39574 79.2781 1.48842 79.2184 1.59267C78.7008 1.59267 79.0923 1.48262 78.7804 1.40154C78.4686 1.32046 78.3359 1.52895 77.8316 1.44208V1.35519C77.5994 1.35519 77.4468 1.4189 77.1216 1.42469L77.2212 1.38994C76.6771 1.5521 76.5576 1.12355 76.1263 1.48263C75.9007 1.40734 75.4629 1.44786 75.5027 1.2799C74.8391 1.37257 74.3083 1.40731 73.6448 1.45944C73.5452 1.18144 73.4988 1.45946 73.1073 1.30309V1.45364C72.1718 1.45364 71.1167 1.04825 70.0683 1.07142V0.926628L69.856 1.08301C68.7413 0.978763 67.3081 0.87449 66.4189 0.839741C66.0354 0.972047 65.6227 1.02748 65.2114 1.00192H65.2578C64.4143 1.07587 63.5641 1.06616 62.7231 0.97297C62.7829 0.915055 62.7231 0.868729 62.7961 0.833979C62.5772 0.984559 62.2785 0.833979 62.0927 0.833979L62.3051 0.949781C62.1828 0.994674 62.0479 1.00653 61.9178 0.983822C61.7877 0.96111 61.6684 0.904885 61.5753 0.822385L61.1704 0.967173C61.1419 0.951775 61.1189 0.929711 61.1041 0.903475L61.0311 0.978767L60.8321 0.78184C60.7326 0.816589 60.2017 0.845537 60.0358 1.02507C59.996 0.961367 59.6311 0.897655 59.9164 0.874489L58.4766 0.764449L58.6955 0.839741C58.6955 0.990321 58.2841 1.06562 58.032 0.990326C58.3306 0.886079 58.032 0.781839 57.9457 0.6718C57.7467 0.74709 58.1116 0.805002 58.0055 0.886083C57.7165 0.978241 57.4034 0.996342 57.103 0.938222L57.2491 0.880286C56.9107 0.926618 56.7713 0.666003 56.4395 0.666003C56.1343 0.776042 55.922 0.665999 55.9751 0.915034C55.5371 0.949783 55.8158 0.735505 55.6765 0.706548C55.5312 0.753492 55.3746 0.767492 55.2215 0.747234C55.0683 0.726976 54.9234 0.673115 54.8006 0.59071C54.5485 0.955576 53.6527 0.422751 53.5465 0.729701L53.2016 0.544404C53.1888 0.624253 53.1436 0.697429 53.0742 0.750592C53.0047 0.803755 52.9157 0.83336 52.8233 0.833979C52.5579 0.735524 52.6309 0.590732 52.5512 0.503859L52.3589 0.810791C50.8195 0.422759 48.7626 0.590712 47.0507 0.266387C46.1858 0.359419 45.3138 0.392366 44.443 0.364868L44.5425 0.330085L43.66 0.225842L44.3236 0.382224C44.1519 0.431077 43.9732 0.458386 43.7927 0.463314C42.6577 0.24989 41.4929 0.183525 40.3358 0.266387C39.5528 0.608086 39.8315 -0.0637378 39.0817 0.185297C39.1481 0.185297 39.1746 0.104244 39.2277 0.0694953C38.539 0.148561 37.8581 0.272432 37.1907 0.440125C37.2902 0.086843 36.6665 0.440127 36.7461 0.26059L36.6731 0.405378C36.5006 0.312713 36.0825 0.277986 36.1423 0.173738L35.784 0.353274V0.202689C35.3195 0.202689 34.3109 0.301159 34.0654 0C32.5921 0.173617 31.102 0.210504 29.6198 0.11004C29.3156 0.220697 28.9867 0.270182 28.6577 0.254828L28.2994 0.0810543C27.961 0.133178 27.6359 0.370629 27.2908 0.26059C27.2867 0.25339 27.2846 0.245474 27.2846 0.237437C27.2846 0.229399 27.2867 0.221483 27.2908 0.214283C26.9524 0.254824 26.6273 0.167928 26.3022 0.335882C25.924 0.335882 25.559 0.249008 25.6718 0.0810543C25.6386 0.376422 24.8689 0.0810543 24.8689 0.0810543H24.0263C23.4888 0.0810543 22.6992 0.0810543 21.7703 0.0810543C19.8726 0.121595 17.3047 0.127412 14.5843 0.324323C9.14338 0.608108 3.13849 1.48261 0.928953 2.55404C0.796248 2.71041 0.371558 2.85522 0.563981 3.0058C0.238853 3.09846 0.0464468 2.86101 0 3.0058C0.477739 3.05213 -0.0796394 3.3938 0.398099 3.52121L0.11947 3.58495C0.0730235 3.69499 0.484403 3.42858 0.444592 3.6197L0.484361 3.34168C0.655195 3.33845 0.821886 3.38763 0.955439 3.48067C1.1545 3.35326 1.23419 2.97684 1.77829 3.07529L1.63889 3.11004C2.06355 3.05212 1.92426 3.25482 2.02379 3.28378H1.92424L2.30242 3.37643C2.0171 3.31851 1.63892 3.58494 1.83798 3.5444C2.35553 3.5444 1.69862 3.49226 2.0702 3.41697C2.30243 3.37643 2.25601 3.52703 2.26265 3.6139L2.68067 3.55596C2.68067 3.68338 2.40198 3.55599 2.58777 3.68919L3.0987 3.49806C3.24467 3.80501 3.65599 3.28376 3.94131 3.55596C3.56973 3.67179 3.98775 3.65445 3.94131 3.76448L4.87026 3.64285C4.96315 3.6776 4.63802 3.77025 4.77736 3.7355C4.96314 3.805 5.05608 3.62549 5.14897 3.6197C5.24186 3.6139 5.8125 3.5386 5.8125 3.75289C6.47602 3.83976 6.04474 3.46331 6.65519 3.53281C6.74808 3.65443 6.18406 3.60231 6.46274 3.71234L7.07321 3.6139C7.02676 3.6834 6.98032 3.82818 6.74145 3.82239C8.42017 3.82239 9.39553 4.44787 10.8686 4.15251C11.0942 4.28571 10.7225 4.26255 10.5832 4.37838C11.6515 4.07722 12.1491 4.60425 13.0714 4.52317V4.40154C14.3985 4.71428 15.9379 4.40153 17.4109 4.47103L17.2318 4.38994C17.4691 4.2823 17.7243 4.20802 17.9882 4.16986C18.028 4.23357 17.829 4.44788 18.2536 4.37838C18.1607 4.33784 17.9816 4.2973 18.028 4.2336C19.3086 4.52317 21.9561 4.30308 23.9998 4.43628C25.3998 4.36099 26.8596 4.36677 28.3127 4.38414C29.7658 4.40152 31.2189 4.45364 32.599 4.38414C32.1744 4.38414 32.3535 4.08301 32.672 4.15251C33.5346 4.67374 34.1716 4.06563 35.0607 4.43628C36.6664 4.27991 38.0931 4.74903 39.5926 4.36679V4.51158C39.8182 4.58687 39.8779 4.51158 40.1168 4.47683V4.51737C40.6675 4.58108 41.3443 4.44788 41.6562 4.51737V4.3494C41.988 4.3494 41.8221 4.48261 42.1671 4.39574V4.47683L42.5652 4.32624C42.5188 4.62161 43.4941 4.36678 43.7529 4.50578C44.375 4.41233 45.0081 4.38704 45.6373 4.43049C45.7568 4.58107 46.5464 4.60424 47.0507 4.69111C48.0393 4.69111 49.446 4.69111 50.7001 4.76061V4.56948H51.0252C51.0252 4.61002 51.065 4.63319 51.0252 4.65057C51.2707 4.87644 51.7816 4.61002 52.0404 4.75481C51.8811 4.57527 51.8147 4.72009 51.6289 4.7085C51.3635 4.61005 51.629 4.43628 51.9873 4.54053V4.58107L52.2394 4.48842C52.2394 4.639 52.4849 4.71427 52.5048 4.86485C53.5864 4.86485 54.3361 4.63321 55.4442 4.73745C55.3248 4.89962 56.2471 4.73743 56.0083 5.00384C56.6718 4.91697 55.9087 4.76639 56.2272 4.57527C56.413 4.57527 56.612 4.51158 56.6386 4.62162C56.5523 4.68532 56.7846 4.80113 56.6386 4.81851H57.0832C57.1296 4.81851 57.0301 4.88222 56.977 4.8996C57.8927 4.7606 58.5827 5.14284 59.4055 5.00384C59.4719 4.89959 59.087 4.9633 59.1467 4.85905C59.9828 4.67952 59.87 5.07335 60.6397 4.94594L60.4738 5.08493C60.7259 4.99806 60.8454 4.87643 61.2435 5.00384C61.3098 5.17759 60.8918 5.13128 60.6927 5.20657C60.9714 5.20657 61.6814 5.20654 61.4757 5.03859C61.8141 4.99805 61.9269 5.15444 62.1392 5.20657C62.1392 5.16023 61.8274 5.07914 62.0331 5.00964C62.5969 5.10871 63.1698 5.163 63.7449 5.17182C63.7449 5.21815 63.7449 5.28184 63.7449 5.29921C64.2625 5.05597 64.2028 5.43241 64.8198 5.40346Z" fill="#053D4C"/>
</svg>
