<svg width="522" height="251" viewBox="0 0 522 251" fill="none" xmlns="http://www.w3.org/2000/svg">
<g clip-path="url(#clip0_122_234)">
<path d="M63.7 211.48C53 211.48 47 205 47 191.09V183.67C47 169.76 53 163.27 63.69 163.27C72.5 163.27 76.69 165.59 79.45 171.62V145.62H98V210.51H81.78L79.46 203.1C76.68 209.16 72.51 211.48 63.7 211.48ZM79.46 187.38C79.46 184.13 77.61 181.81 72.51 181.81C67.41 181.81 65.51 184.13 65.51 187.38C65.51 190.63 67.37 192.94 72.51 192.94C77.65 192.94 79.46 190.62 79.46 187.38Z" fill="#2C281E"/>
<path d="M121.18 211.48C107.27 211.48 102.64 203.6 102.64 187.84V164.2H121.18V186.91C121.18 190.62 123.03 192.91 128.13 192.91C133.23 192.91 135.13 190.59 135.13 186.91V164.2H153.67V210.55H137.4L135.08 203.55C133.69 208.7 128.59 211.48 121.18 211.48Z" fill="#2C281E"/>
<path d="M211.56 164.2H227.79V211.48C227.79 223.53 220.84 230.02 202.29 230.02C182.36 230.02 175.87 225.39 175.87 215.19C175.87 208.98 179.3 205.19 185.33 203.14C179.67 200.45 176.8 196.14 176.8 189.7V183.7C176.8 169.79 182.8 163.3 193.49 163.3C202.29 163.3 206.49 165.62 209.25 171.65L211.56 164.2ZM209.25 211.48V204.53C207.67 206.53 204.71 207.77 201.37 207.77C196.27 207.77 194.37 209.63 194.37 212.41C194.37 215.19 195.49 216.12 201.79 216.12C207.67 216.12 209.25 215.19 209.25 211.48ZM202.25 181.81C197.16 181.81 195.3 184.13 195.3 187.38C195.3 190.63 197.16 192.94 202.25 192.94C207.34 192.94 209.25 190.62 209.25 187.38C209.25 184.14 207.39 181.81 202.29 181.81H202.25Z" fill="#2C281E"/>
<path d="M251 184.13C259.25 184.13 263.42 185.89 264.9 189.23V181.81C264.9 178.11 263.98 177.64 257.95 177.64C252.39 177.64 250.95 178.57 250.95 180.42V181.35H232.43V179.5C232.43 168.65 238.43 163.27 257.92 163.27C276.46 163.27 283.41 169.76 283.41 179.96V210.55H266.73L265.33 203.14C264.41 208.24 259.4 211.48 248.65 211.48C237.65 211.48 231.5 207.77 231.5 198.04C231.5 188.31 238.54 184.13 251 184.13ZM246.33 154L253.75 145.66H262.09L269.51 154V159.57H260.7L257.92 153.26L255.14 159.57H246.33V154ZM264.87 196.65C264.87 195.26 263.48 193.87 255.6 193.87C251.43 193.87 250.04 194.33 250.04 196.65C250.04 198.97 251.43 199.43 255.6 199.43C263.48 199.43 264.87 198 264.87 196.65Z" fill="#2C281E"/>
<path d="M321 210.55H304.27C293.42 210.55 288.05 205.92 288.05 196.65V165.13L290.83 154.93H306.59V164.2H321V180.89H306.59V188.3C306.59 191.3 309.37 192.01 312.15 192.01H321V210.55Z" fill="#2C281E"/>
<path d="M350.62 211.48C332.08 211.48 325.13 204.99 325.13 192.94V181.81C325.13 169.76 332.08 163.27 350.62 163.27C370.09 163.27 376.12 167.91 376.12 181.35V191.55H343.67V192.94C343.67 196.55 345.06 197.57 350.62 197.57C356.18 197.57 357.62 196.93 357.62 195.26V194.33H376.16V195.26C376.12 207.49 370.09 211.48 350.62 211.48ZM343.67 182.74H357.58V181.35C357.58 178.11 356.19 177.18 350.58 177.18C344.97 177.18 343.63 178.18 343.63 181.81L343.67 182.74Z" fill="#2C281E"/>
<path d="M399.29 184.13C407.54 184.13 411.72 185.89 413.2 189.23V181.81C413.2 178.11 412.27 177.64 406.25 177.64C400.68 177.64 399.25 178.57 399.25 180.42V181.35H380.75V179.5C380.75 168.65 386.75 163.27 406.25 163.27C424.79 163.27 431.74 169.76 431.74 179.96V210.55H415.05L413.66 203.14C412.74 208.24 407.73 211.48 396.98 211.48C385.98 211.48 379.83 207.77 379.83 198.04C379.83 188.31 386.87 184.13 399.29 184.13ZM413.2 196.65C413.2 195.26 411.81 193.87 403.93 193.87C399.76 193.87 398.37 194.33 398.37 196.65C398.37 198.97 399.76 199.43 403.93 199.43C411.81 199.43 413.2 198 413.2 196.65Z" fill="#2C281E"/>
<path d="M454.92 211.48C441.01 211.48 436.38 203.6 436.38 187.84V164.2H454.92V186.91C454.92 190.62 456.77 192.91 461.87 192.91C466.97 192.91 468.82 190.59 468.82 186.91V164.2H487.36V210.55H471.14L468.82 203.55C467.43 208.7 462.33 211.48 454.92 211.48Z" fill="#2C281E"/>
<path d="M62 64.0703H80.55V129H62V64.0703Z" fill="#2C281E"/>
<path d="M103.73 102.54C111.98 102.54 116.15 104.3 117.63 107.64V100.22C117.63 96.5097 116.71 96.0497 110.68 96.0497C105.12 96.0497 103.68 96.9797 103.68 98.8297V99.7597H85.1898V97.8997C85.1898 87.0597 91.1898 81.6797 110.68 81.6797C129.22 81.6797 136.18 88.1697 136.18 98.3697V129H119.49L118.1 121.58C117.17 126.68 112.17 129.93 101.41 129.93C90.4098 129.93 84.2598 126.22 84.2598 116.48C84.2598 106.74 91.3098 102.54 103.73 102.54ZM117.63 115.05C117.63 113.66 116.24 112.27 108.36 112.27C104.19 112.27 102.8 112.74 102.8 115.05C102.8 117.36 104.19 117.84 108.36 117.84C116.24 117.84 117.63 116.44 117.63 115.05Z" fill="#2C281E"/>
<path d="M177.89 121.54V147.54H159.35V82.6102H175.57L177.89 90.0002C180.67 84.0002 184.89 81.6602 193.65 81.6602C204.31 81.6602 210.34 88.1502 210.34 102.06V109.47C210.34 123.38 204.34 129.87 193.65 129.87C184.85 129.89 180.67 127.57 177.89 121.54ZM177.89 105.78C177.89 109.03 179.75 111.35 184.89 111.35C190.03 111.35 191.89 109.03 191.89 105.78C191.89 102.53 190.03 100.22 184.89 100.22C179.75 100.22 177.89 102.54 177.89 105.78Z" fill="#2C281E"/>
<path d="M233.51 102.54C241.77 102.54 245.94 104.3 247.42 107.64V100.22C247.42 96.5097 246.49 96.0497 240.47 96.0497C234.91 96.0497 233.47 96.9797 233.47 98.8297V99.7597H215V97.8997C215 87.0597 221 81.6797 240.5 81.6797C259 81.6797 266 88.1697 266 98.3697V129H249.27L247.88 121.58C246.96 126.68 241.95 129.93 231.2 129.93C220.2 129.93 214.05 126.22 214.05 116.48C214.05 106.74 221.09 102.54 233.51 102.54ZM247.42 115.05C247.42 113.66 246.03 112.27 238.15 112.27C233.98 112.27 232.59 112.74 232.59 115.05C232.59 117.36 233.98 117.84 238.15 117.84C246 117.84 247.42 116.44 247.42 115.05Z" fill="#2C281E"/>
<path d="M270.6 82.6098H286.82L289.14 89.9998C290.53 84.9098 292.38 82.5898 298.87 82.5898H303V101.13H296C290.44 101.13 289.05 102.52 289.05 109.47V129H270.6V82.6098Z" fill="#2C281E"/>
<path d="M340.59 129H323.9C313.06 129 307.68 124.37 307.68 115.09V83.5298L310.46 73.3398H326.22V82.6098H340.59V99.2898H326.22V106.71C326.22 109.71 329 110.42 331.78 110.42H340.59V129Z" fill="#2C281E"/>
<path d="M461.26 208.71C461.304 208.627 461.328 208.535 461.33 208.44C461.274 208.519 461.25 208.615 461.26 208.71Z" fill="#6B99B2"/>
<path d="M426.07 209.14L426.47 208.98C426.2 209 426.1 209.07 426.07 209.14Z" fill="#6B99B2"/>
<path d="M482.33 208.49C482.33 208.49 482.33 208.49 482.33 208.55H483.81L482.33 208.49Z" fill="#6B99B2"/>
<path d="M351.21 213.25L351.68 213.2C351.522 213.196 351.364 213.213 351.21 213.25Z" fill="#6B99B2"/>
<path d="M395.56 210.78C395.388 210.903 395.189 210.985 394.98 211.02C395.27 211 395.5 211 395.56 210.78Z" fill="#6B99B2"/>
<path d="M493.63 213.84L493.02 213.47C493 213.63 493.25 213.8 493.63 213.84Z" fill="#6B99B2"/>
<path d="M514.87 211.79C514.854 211.757 514.834 211.727 514.81 211.7C514.81 211.7 514.82 211.77 514.87 211.79Z" fill="#6B99B2"/>
<path d="M506.52 210.38C506.34 210.38 506.13 210.49 505.92 210.56C506.18 210.55 506.5 210.54 506.52 210.38Z" fill="#6B99B2"/>
<path d="M505.64 210.67L505.92 210.56C505.76 210.58 505.63 210.6 505.64 210.67Z" fill="#6B99B2"/>
<path d="M81.0004 243.23C80.409 243.329 79.848 243.562 79.3604 243.91L81.0004 243.23Z" fill="#6B99B2"/>
<path d="M283.62 219.38L283.74 219.21C283.62 219.27 283.6 219.33 283.62 219.38Z" fill="#6B99B2"/>
<path d="M80.5396 246.65H80.0996C80.2445 246.683 80.3948 246.683 80.5396 246.65Z" fill="#6B99B2"/>
<path d="M482.41 215.26C481.81 215.66 480.53 215.26 480.55 215.62C481.2 215.54 482.13 215.79 482.41 215.26Z" fill="#6B99B2"/>
<path d="M270.87 235.1L270.46 235.16L270.87 235.1Z" fill="#6B99B2"/>
<path d="M80.54 246.65H81.05C80.9986 246.585 80.9417 246.525 80.88 246.47C80.7812 246.554 80.6651 246.615 80.54 246.65Z" fill="#6B99B2"/>
<path d="M213.39 226.92L213.52 226.83L213.39 226.92Z" fill="#6B99B2"/>
<path d="M209.6 226.73L210.38 226.52C210.103 226.5 209.829 226.574 209.6 226.73Z" fill="#6B99B2"/>
<path d="M79.3597 243.91L78.4297 244.29C78.7558 244.207 79.0687 244.079 79.3597 243.91Z" fill="#6B99B2"/>
<path d="M169.59 231.82L169.95 231.74C169.826 231.744 169.704 231.771 169.59 231.82Z" fill="#6B99B2"/>
<path d="M398.42 210.78C398.529 210.806 398.639 210.826 398.75 210.84C398.78 210.75 398.76 210.68 398.42 210.78Z" fill="#6B99B2"/>
<path d="M372.9 222.53C372.363 222.541 371.85 222.752 371.46 223.12C371.992 223.09 372.499 222.882 372.9 222.53Z" fill="#6B99B2"/>
<path d="M392.24 222C392.108 221.933 391.967 221.886 391.82 221.86C391.948 221.938 392.092 221.986 392.24 222Z" fill="#6B99B2"/>
<path d="M398.91 221.51H398.14C398.14 221.64 398.14 221.79 397.79 221.96L398.91 221.51Z" fill="#6B99B2"/>
<path d="M362.65 224.16C362.557 224.211 362.47 224.271 362.39 224.34C362.57 224.3 362.62 224.23 362.65 224.16Z" fill="#6B99B2"/>
<path d="M353.93 226C354.55 225.82 353.98 225.71 353.66 225.59C353.65 225.67 353.68 225.81 353.93 226Z" fill="#6B99B2"/>
<path d="M419.32 218.4C419.19 218.46 419.12 218.55 419.15 218.67C419.32 218.55 419.35 218.47 419.32 218.4Z" fill="#6B99B2"/>
<path d="M476.12 215.5L475.89 215.42C475.959 215.465 476.038 215.492 476.12 215.5Z" fill="#6B99B2"/>
<path d="M472.93 214.71C472.716 214.718 472.504 214.755 472.3 214.82C472.516 214.839 472.733 214.802 472.93 214.71Z" fill="#6B99B2"/>
<path d="M405.58 219.63C405.369 219.659 405.17 219.741 405 219.87C405.215 219.86 405.42 219.775 405.58 219.63Z" fill="#6B99B2"/>
<path d="M471.65 215H470.85C470.845 215.037 470.845 215.074 470.85 215.11L471.65 215Z" fill="#6B99B2"/>
<path d="M477.12 215.53C476.81 215.53 476.39 215.53 476.12 215.53C476.443 215.65 476.797 215.65 477.12 215.53Z" fill="#6B99B2"/>
<path d="M440.11 216.23H440.03C439.43 216.54 439.81 216.41 440.11 216.23Z" fill="#6B99B2"/>
<path d="M468.23 216.16H468.12L467.9 216.33L468.23 216.16Z" fill="#6B99B2"/>
<path d="M480.55 215.62C480.411 215.63 480.277 215.674 480.16 215.75L480.61 215.8C480.581 215.744 480.561 215.683 480.55 215.62Z" fill="#6B99B2"/>
<path d="M452.06 216.43C452.206 216.298 452.308 216.123 452.35 215.93C452.08 216 451.92 216.06 452.06 216.43Z" fill="#6B99B2"/>
<path d="M117.25 112.54C117.228 112.481 117.201 112.425 117.17 112.37C117.178 112.434 117.206 112.493 117.25 112.54Z" fill="#6B99B2"/>
<path d="M101.51 123.27L101.63 123.07C101.53 123.17 101.5 123.23 101.51 123.27Z" fill="#6B99B2"/>
<path d="M126.62 106L127.29 105.55L126.62 106Z" fill="#6B99B2"/>
<path d="M94.2296 119.13L94.0996 119.34C94.1596 119.25 94.2196 119.2 94.2296 119.13Z" fill="#6B99B2"/>
<path d="M90.0004 129.83C89.9701 129.898 89.9216 129.957 89.8604 130C89.8604 130 90.0004 130 90.0004 129.83Z" fill="#6B99B2"/>
<path d="M133.75 105.47H133.34C133.397 105.518 133.47 105.544 133.545 105.544C133.62 105.544 133.692 105.518 133.75 105.47Z" fill="#6B99B2"/>
<path d="M138.21 99.6504C138.139 99.7388 138.076 99.8324 138.02 99.9304C138.12 99.8404 138.27 99.7404 138.21 99.6504Z" fill="#6B99B2"/>
<path d="M137.93 100.07L138.02 99.9297C138 99.9997 137.9 99.9997 137.93 100.07Z" fill="#6B99B2"/>
<path d="M34.6603 107.37C34.4616 107.668 34.3444 108.013 34.3203 108.37L34.6603 107.37Z" fill="#6B99B2"/>
<path d="M114.37 88.4004V88.5204C114.43 88.4404 114.4 88.4104 114.37 88.4004Z" fill="#6B99B2"/>
<path d="M36.1197 109.15L35.9297 109.3C36.0064 109.27 36.0724 109.218 36.1197 109.15Z" fill="#6B99B2"/>
<path d="M129.27 109.67C129.16 110.07 128.43 110.24 128.59 110.44C128.84 110.19 129.36 110 129.27 109.67Z" fill="#6B99B2"/>
<path d="M110.31 76.7496L110.4 76.5596C110.363 76.6196 110.333 76.6833 110.31 76.7496Z" fill="#6B99B2"/>
<path d="M36.1201 109.15L36.3401 108.97H36.1901C36.1804 109.034 36.1565 109.096 36.1201 109.15Z" fill="#6B99B2"/>
<path d="M97.4199 68.5202L97.4899 68.4502L97.4199 68.5202Z" fill="#6B99B2"/>
<path d="M95.2998 68.7698L95.6998 68.5498C95.6216 68.5569 95.5456 68.5802 95.4768 68.618C95.408 68.6559 95.3477 68.7075 95.2998 68.7698Z" fill="#6B99B2"/>
<path d="M34.3199 108.34L34.1299 108.89C34.2226 108.718 34.2868 108.532 34.3199 108.34Z" fill="#6B99B2"/>
<path d="M74.54 77.4198L74.71 77.2998C74.6435 77.3237 74.5848 77.3651 74.54 77.4198Z" fill="#6B99B2"/>
<path d="M90.5703 129.85H90.6403C90.6503 129.83 90.6403 129.78 90.5703 129.85Z" fill="#6B99B2"/>
<path d="M81.9297 124.66L81.9397 124.65H81.9297V124.66Z" fill="#6B99B2"/>
<path d="M81.6804 125.84C81.8962 125.487 81.9844 125.071 81.9304 124.66C81.7276 125.018 81.6403 125.43 81.6804 125.84Z" fill="#6B99B2"/>
<path d="M83.1601 122.67L83.0801 122.74C83.1108 122.722 83.138 122.698 83.1601 122.67Z" fill="#6B99B2"/>
<path d="M89.8997 137.47V137.45L89.8896 137.47H89.8997Z" fill="#6B99B2"/>
<path d="M85.1396 137.58C85.0624 137.518 84.9786 137.464 84.8896 137.42C84.9519 137.501 85.0403 137.557 85.1396 137.58Z" fill="#6B99B2"/>
<path d="M86.75 115.31H86.76V115.3L86.75 115.31Z" fill="#6B99B2"/>
<path d="M80.77 37.92C80.03 37.87 80.5 38.4 80.77 38.41C74.14 44.78 59.18 39.41 59.85 28.16C53.85 32.56 48.79 37.27 43.27 41.7C25.51 36.64 42.59 18.87 45.12 10L45.19 8.75C46.24 8.06 45.24 8 45.19 8.75C43.49 7.9 43.87 9.92 42.87 9.87C43.02 11.63 44.17 9.19 45.12 10C38 15.6 31 20.69 24.81 27.33C24.2103 27.2155 23.6308 27.0133 23.09 26.73C20.8 31.61 13.28 35.92 9 40.92C3.55 39.85 4.69 33.4 0 31.92C6.33 22.23 14.5 15.46 22.91 8.69C24.55 10.54 25.73 11.86 26.34 14.15C34.86 9.9 39.78 2.93 49.47 0C61.52 8 48 20.2 43.92 30.22C51.25 24.9 57.4 18.22 65.45 13.47C73.23 17.47 68.45 26.47 66.02 33.29C77.14 36 94 22.67 104.55 21.3C105.06 21.08 105.34 20.59 105.4 19.59C106.9 19.68 107.5 22.22 107.69 18.98C108.92 19.3 108.09 20.76 108.79 21.55C110.58 20.9 110.44 19.14 113.14 20.05C110.84 24.93 104.56 25.3 101.14 28.36C101.79 30.15 101.98 26.9 103.68 27.76C103.36 28.99 102.58 29.44 101.79 30.15C99.79 30.78 101.41 28.15 99.37 28.75C97.87 28.66 95.49 30.75 98.02 30.42C97.96 31.42 97.02 30.86 96.2 31.57C93.45 31.4 96.26 30.57 96.3 29.82C95.6 29.03 91.97 31.07 92.55 33.82C92.07 33.54 91.85 33.02 91.92 31.82C90.13 32.46 91.75 34.82 89.46 35.43C89.0434 34.8668 88.4755 34.4334 87.8223 34.1802C87.169 33.9271 86.4573 33.8646 85.77 34C85.09 37 87.02 34.07 86.87 36.56C84.14 36.15 82.67 39.82 80.74 38.45L80.77 37.92ZM20 28.3C20.77 28.1 21.25 28.38 21.3 27.63C20.52 27.83 20 27.55 20 28.3ZM29 21.07C28.6427 21.0041 28.2737 21.0551 27.9477 21.2154C27.6216 21.3757 27.356 21.6368 27.19 21.96C27.5402 22.063 27.9165 22.0282 28.2419 21.8628C28.5672 21.6973 28.817 21.4137 28.94 21.07H29ZM94.9 32C94.85 32.75 94.37 32.47 93.61 32.68C93.65 31.92 94.13 32.2 94.9 32ZM98.17 27.44C99.28 25.75 96.28 25.58 96.46 26.84C96.96 26.84 97.19 27.13 96.93 27.37L98.17 27.44ZM107.44 23.23C107.459 22.8465 107.359 22.4666 107.155 22.1412C106.952 21.8158 106.653 21.5607 106.3 21.41C106.3 22.16 105.77 21.88 105.72 22.63C106.47 22.66 106.43 23.41 107.44 23.22V23.23Z" fill="#DD5543"/>
<path d="M128.11 29.4597C128.87 29.2497 128.66 28.4597 128.96 27.7497C128.21 27.7497 128.4 28.7497 128.11 29.4597C127.87 29.1897 127.61 29.4597 127.58 29.9297C126.52 30.8597 125.92 32.5797 124.86 33.5197C124.63 33.2597 124.4 32.7397 124.48 31.5197C114.93 36.2197 108.48 44.5997 97.7097 47.9697C91.4597 47.8497 89.9597 43.4997 88.4697 39.1497C94.9297 27.2697 104.21 18.5497 117.74 14.3497C121.42 15.5697 123.82 17.2097 126.97 19.1497L136.8 13.7197C138.8 14.0897 139.43 15.8797 142.22 15.2997C144.48 23.6897 133.38 29.2997 134.74 40.1497C135.43 41.1497 136.92 41.2797 137.63 42.0697C146.85 38.6097 154.63 34.5597 163.63 30.3397C163.56 31.5897 162.81 31.5397 162.74 32.7897C163.79 31.8497 167.6 31.0797 165.95 29.2297C168.19 29.6097 170.83 27.2297 171.2 25.2797C173.84 27.1897 175.45 25.2797 178.2 24.6997C173.84 30.6997 165.81 35.2297 159.6 38.6197C153.42 41.5097 146.48 48.6197 138.5 48.1297C135.8 47.2197 133.63 45.8397 130.94 44.6797C127.94 40.2497 128.08 33.7397 127.56 29.9597C127.81 30.1897 128.08 29.9997 128.11 29.4597ZM105 34.5997C111.23 30.9597 117.46 27.3197 122.51 22.3597C110.28 21.6397 103.87 32.5297 96.9097 40.1297C101.18 40.1297 102.63 36.7097 105 34.5997Z" fill="#DD5543"/>
<path d="M298.33 233.46C303.88 232.69 311.03 231.23 316.57 230.92C317.7 230.03 319.45 229.85 321.2 229.51L321.48 230.51L322.92 230.04C323.55 230.3 321.81 230.34 322.92 230.63L323.42 229.94C323.57 230.3 327.21 229.84 324.82 230.81L330.53 230.29C331.79 230.2 331.19 229.36 332.6 229.49C332.91 229.76 332.12 229.74 332.27 230.1C336.53 230.49 336.94 227.67 340.9 227.79L340.58 227.95C341.22 227.62 342.49 227.54 342.49 227.39C341.9 226.39 341.84 228.02 340.59 227.51C340.59 226.63 342.04 226.91 341.9 226.25C342.85 226.48 343.34 225.94 344.14 225.81C345.55 226.24 347.47 225.68 348.55 226.28C349.2 225.94 349.87 225.02 351.3 224.85C352.39 225.45 351.11 225.53 352.53 225.66L352.71 225.13C353.87 225.13 353.71 225.27 353.71 225.51C354.94 225.43 354.71 224.72 356.24 224.92L355.42 225.49C356.462 225.247 357.53 225.132 358.6 225.15C358.6 225.44 357.96 225.48 357.48 225.43C358.41 226.11 358.93 224.98 359.4 225.02C359.25 224.81 358.14 224.8 358.63 224.26C359.43 224.26 360.25 223.42 360.86 223.97L360.05 224.54C361.65 224 360.87 223.83 362.77 223.86C362.67 223.91 362.77 224.03 362.7 224.14C363.83 223.38 365.44 223.84 367.2 223.74L366.88 223.9C367.58 223.67 367.93 223.18 368.31 223.18C367.31 222.98 367.55 222.8 367.41 222.32C368.81 223.05 369.36 221.18 371.57 221.49C371.534 221.599 371.473 221.7 371.393 221.783C371.313 221.867 371.216 221.932 371.107 221.973C370.999 222.014 370.883 222.031 370.768 222.021C370.652 222.012 370.541 221.977 370.44 221.92C369.77 222.85 369.75 223.58 368.44 224.1C369.24 223.83 370.2 223.63 370.03 224.01L370.21 223.19C370.71 223.12 371.11 223.14 371.48 223.11C371.65 222.58 370.41 222.36 371.53 221.93C372.81 221.56 372.29 222.69 372.46 222.32C374.22 221.85 373.13 221.39 374.87 221.51C374.71 221.59 374.38 221.76 374.23 221.7C375.49 221.92 377.23 221.29 377.69 222.23C377.53 222.46 377.52 222.75 377.04 222.71V222.56C375.74 223.38 378.16 222.28 377.81 223.18C377.67 222.67 379.41 222.64 380.2 222.67L379.9 222.1C382.36 220.1 379.9 223.28 382.41 222.84C384.01 222.31 381.78 222.73 382.75 222.23C383.86 222.23 384.32 222.74 385.91 222.35C386.38 222.54 387.32 222.78 387.45 223.44C388.45 223.09 390.45 223.44 390.96 222.8C389.24 222.38 389.35 223.63 387.32 222.93L387.81 222.24C389.17 222.17 390.89 221.7 391.81 221.85C391.61 221.74 391.51 221.58 391.62 221.44C393.54 221.04 394.04 220.35 395.94 220.44C396.23 221.01 395.12 220.99 394.33 221.11C395.58 221.49 395.6 221.04 397.49 221.11C397.63 221.62 396.22 221.18 396.05 221.7L398.12 221.37C398.111 221.406 398.111 221.444 398.12 221.48C398.35 220.59 399.71 221.43 400.97 221.07C403.97 220.84 404.36 219.64 405.97 218.82C406.43 219.02 406.58 219.23 406.41 219.47C405.64 219.14 405.79 219.47 405.55 219.67C406.55 219.51 407.85 220.36 407.31 220.75C408.91 220.37 406.69 220.33 407.66 219.99L409.88 219.88C409.58 219.46 408.79 219.42 409.88 219C410.772 218.848 411.676 218.777 412.58 218.79C412.41 219.02 413.03 219.43 412.08 219.48C412.7 219.6 413.66 219.55 413.99 219.09C412.58 218.79 416.24 218.54 415.15 217.93L416.57 218.23C416.25 218.23 416.24 218.54 415.76 218.49C416.21 219.13 416.88 218.22 417.36 218.12C417.86 218.21 419.13 218.18 419.25 218.44C419.68 218.22 420.76 218.29 420.98 218.62C421.63 218.44 420.98 218.18 421.18 217.95L423.4 217.85C423.54 218.21 423.8 219.23 423.47 219.39C424.29 218.99 423.7 218.27 424.97 218.22C424.29 218.99 426.68 218.66 425.68 219.59C426.45 220.06 428.51 219.9 429.68 219.59C430.34 218.97 428.42 219.35 428.46 218.76C431.64 218.34 431.73 216.71 434.1 216.84L433.48 216.71C434.243 216.58 434.965 216.276 435.59 215.82C435.23 216.57 437.38 217.66 439.78 217.35C439.96 216.97 438.38 216.74 438.78 216.14L440.37 215.93C440.49 215.98 440.32 216.11 440.12 216.22C441.54 215.88 442.85 217 443.21 216.13L444.73 217.13L444.13 216.7C444.31 216.33 445.91 216.13 446.23 215.97C446.737 215.76 447.285 215.668 447.832 215.701C448.38 215.734 448.912 215.891 449.39 216.16C449.09 215.87 448.34 215.23 449.62 215.04C449.68 216.22 452.36 215.33 452.36 215.94C452.88 215.94 453.82 216.22 453.86 215.72L453.81 216.46C453.87 215.46 455.81 215.38 457.23 215.12C456.97 216.52 458.82 214.92 459.53 216.12C459.76 215.12 462.1 215.61 462.32 214.79C463.44 214.69 463.37 215.58 463.67 215.87L464.17 215.49C464.76 215.91 466.87 215.88 468.17 216.12L469.3 215.23L469.75 215.59C469.92 215.37 470.89 215.2 470.27 214.92H470.9C470.9 214 471.78 214.63 473.02 214.18C473.32 214.31 473.25 214.53 473.02 214.67C473.65 214.67 473.4 215.13 473.76 215.42C473.31 215.2 475.95 213.68 474.24 213.34C474.11 212.98 475.09 212.67 475.71 212.81L476.12 213.61L476.83 212.72C477.83 212.56 478.23 213.07 479.02 213.13C478.22 213.21 477.3 214.77 479.37 214.67C478.613 214.833 477.885 215.11 477.21 215.49C477.64 215.49 477.86 215.58 477.21 215.95C478.81 215.63 477.73 215.43 479.32 215.26C479.26 216 479.72 216.21 481.13 216.41L480 216C480.042 215.915 480.108 215.845 480.19 215.8C479.79 215.73 479.68 215.62 479.58 215.35C479.9 215.35 481.4 214.35 481.69 214.8C480.03 213.72 484.46 213.8 483.41 213.16C483.58 212.94 484.7 212.85 484.83 213.16C483.51 213.77 485.83 213.96 485.67 214.48C486.16 214.25 484.6 213.97 485.26 213.67C485.921 213.667 486.566 213.866 487.11 214.24L486.79 214.39L488.03 214.68C488.22 214.31 486.81 214.09 487.94 213.87C488.25 214.01 489.38 213.79 489.35 214.08C488.83 214.6 489.25 215.26 488.28 215.41C489.08 215.34 491.63 215.17 490.58 214.52H491.58C490.97 214.23 489.27 213.73 491.19 213.57V213.71L492.51 213.12L493.11 213.48C493.11 213.29 493.29 213.11 493.79 213.11C493.92 213.33 494.39 213.4 494.36 213.7C495.8 213.61 495.67 213.25 495.86 213.03C496.66 212.95 496.96 213.09 496.6 213.54C497.7 213.59 499.6 213.46 500.39 213.83C501.85 213.47 500.08 213.68 500.93 213.17C502.23 214.42 505.81 213.55 508.21 213.34C507.54 212.23 508.87 213.19 509.29 212.17C508.78 212.52 511.59 212.99 509.49 213.34L510.77 213.21C511.66 213.81 508.65 213.7 510 214.52C511.43 214.52 512.36 213.23 514.06 213.62C513.5 214.42 515.36 213.34 514.95 214.22C514.6 214.51 514.13 214.43 513.65 214.49L513.95 214.65C517.11 214.83 514.85 213.7 516.5 213.13C518.42 213.01 518.02 213.74 518.14 214.13C518.737 214.232 519.351 214.163 519.91 213.93C518.74 214.43 517.73 213.46 518.27 212.93C519.12 213.83 521.12 212.93 521.64 212.61C518.89 211.69 519.74 212.61 517.15 211.61C516.79 211.9 516.86 212.71 515.31 212.4C516.31 211.99 515.24 211.95 514.96 211.82C515.27 212.28 513.89 212.03 513.42 212.23C512.98 211.86 514.33 211.14 512.76 210.97L512.48 212.07C511.86 211.92 512.73 211.27 511.42 211.54C512.12 210.96 511.19 210.66 512.96 210.46C510.83 209.55 509.73 211 508.09 211.46C508.26 211.39 508.28 211.25 508.44 211.17C507.986 211.407 507.483 211.533 506.97 211.54C505.88 211.31 507.82 211.02 507.53 210.73L505.78 210.79C505.78 210.79 505.73 210.74 505.73 210.72C505.27 210.88 504.83 210.99 504.67 210.72C505.042 210.406 505.395 210.072 505.73 209.72L503.9 210.52C504.09 210.16 502.36 209.93 503.67 209.64L500.94 209.85L500.69 209.12C500.04 209.26 500.02 209.41 500.81 209.48C499.87 209.33 496.7 210.88 497.15 209.41C495.03 210.08 494.25 209.87 491.66 210.32C493.66 209.58 489.35 209.53 491.45 209.14C490.2 208.86 489.97 209.67 489 209.82C488.07 209.54 488.46 208.82 489.44 208.5L488.29 208.87V208.72L487.29 209.17C486.2 208.81 487.03 208.43 485.92 208.37L485.71 209.03L484.94 208.68C485.24 208.97 484.59 209.13 483.79 209.21V209L482.79 209.16C483.74 208.73 481.89 209.06 482.32 208.57C481.53 208.567 480.74 208.63 479.96 208.76L480.24 209.2C478.29 209.66 480.13 208.54 478.54 208.56L478.66 209.07C476.33 208.3 474.79 209.7 473.08 209.23C474.08 209.07 473.77 208.48 473.76 208.63C472.3 208.88 469.92 208.86 468.44 209.55C467.85 208.83 467.71 208.61 466.14 208.35C465.02 208.45 464.86 208.52 464.51 208.97C463.4 208.73 461.37 209.27 461.29 208.73C461.06 209.17 460.29 208.73 459.72 209.09L459.58 208.88L459.7 209.39C457.7 208.34 456.47 210.21 454.46 209.31L454.79 209.16L453.98 209.4C453.84 209.19 454.16 209.03 454.18 208.73L450.36 208.84L451.13 209.19C450.33 209.28 449.82 209.82 448.88 209.56C450.36 208.69 447.61 209.56 447.33 209.02L448.13 208.77C447.02 208.89 447.02 208.89 447.13 209.4C445.69 209.67 446.07 208.47 444.77 209.11H445.72C446.02 209.39 445.36 209.85 444.72 209.88C444.57 209.81 444.1 209.61 444.58 209.51C443.45 209.78 441.72 209.61 441.23 209.85C440.6 209.73 440.78 209.35 441.1 209.19C438.69 209.79 439.99 209.19 437.57 209.76V209.47L436.75 209.87L435.51 209.33L435.97 209.68C435.239 209.866 434.485 209.947 433.73 209.92L434.08 209.46C431.83 209.85 431.41 208.9 429.29 209.65C429.14 209.58 429.47 209.42 429.63 209.34C427.68 210.16 428.07 208.67 426.12 209.63C426.23 209.48 426 209.32 426.07 209.19L425.17 209.53V208.94L424.49 209.86L423.88 209.29L423.55 209.6C422.49 208.55 421.17 209.49 419.78 208.74L420.06 209.47C416.79 211.23 412.29 209.16 408.27 210.17V209.59L406.64 210.4C405.7 210.01 407.14 209.86 406.84 209.58C405.07 210.04 406.16 210.5 404.08 210.82C402.98 210.51 404.42 210.37 404.91 210.12C402.882 210.66 400.789 210.919 398.69 210.89C398.69 210.97 398.59 211.08 398.69 211.11C397.212 211.347 395.718 211.474 394.22 211.49C394.22 211.22 394.59 211.15 394.94 211.07C394.42 211.07 393.7 210.94 393.28 211.25L393.78 210.7C392.67 210.7 390.58 211.32 390.29 210.7C390.44 210.91 390.42 211.35 389.46 211.4C388.86 210.55 386.9 211.99 385.33 211.64C385.49 211.41 386.61 211.27 386.33 211.29C385.577 211.241 384.832 211.465 384.23 211.92L384.41 211.54L380.89 212.33C380.28 211.48 377.54 212.75 377.72 212.07C376.45 212.15 378.82 212.38 377.22 212.62C376.76 212.28 375.79 212.92 375.8 212.33L375.97 212.25L374.85 212.39L375.51 211.76C374.51 211.97 373.89 212.6 373.88 213.04C372.94 212.8 371.65 213.17 371.19 212.68L371.52 212.51C368.96 212.96 367.12 211.3 365.18 212.45C365.02 212.38 365.02 212.24 365.34 212.22L363.75 212.32L364.09 211.85L361.51 212.74V212.45C359.76 212.45 357.06 212.87 354.83 213.15L355.15 212.98C352.75 213.65 352.77 212.91 351.01 213.39C351.054 213.325 351.117 213.276 351.19 213.25L349.59 213.4L349.91 213.09C348.78 213.82 346.44 212.57 347.22 213.03C346.57 213.37 345.44 213.81 345.28 214.18C343.53 214.37 344.82 213.85 343.71 213.69C342.44 213.78 342.26 214.3 340.52 214.19V213.89C339.72 214.02 339.24 214.27 338.13 214.41L338.45 214.24C336.68 215.02 336.1 213.58 334.78 214.99C333.99 214.82 332.56 215.13 332.57 214.54C330.33 215.12 328.57 215.46 326.34 215.9C325.89 214.98 325.86 216.01 324.44 215.59L324.59 216.09C321.4 216.45 317.59 215.51 314.11 216.04L313.96 215.54L313.31 216.17C309.49 216.3 304.57 216.57 301.54 216.85C300.295 217.483 298.934 217.857 297.54 217.95L297.69 217.86C294.872 218.518 291.994 218.883 289.1 218.95C289.26 218.71 288.95 218.59 289.27 218.42C288.62 219.06 287.52 218.63 286.88 218.67L287.67 218.98C287.279 219.193 286.837 219.296 286.391 219.278C285.946 219.261 285.514 219.123 285.14 218.88L283.85 219.57C283.76 219.57 283.61 219.46 283.58 219.38L283.37 219.67L282.59 219.07C282.27 219.24 280.51 219.6 280.03 220.3C279.87 220.09 278.6 220.05 279.56 219.82L274.64 220.14L275.43 220.3C275.58 220.8 274.14 221.3 273.35 221.12C274.35 220.61 273.35 220.39 272.89 220.05C272.26 220.4 273.52 220.45 273.2 220.77C272.27 221.229 271.236 221.439 270.2 221.38L270.67 221.12C269.56 221.43 268.94 220.59 267.82 220.75C266.82 221.27 266.08 220.96 266.38 221.83C264.94 222.16 265.75 221.29 265.27 221.25C264.63 221.75 262.57 221.69 262.27 221.25C261.61 222.64 258.27 221.25 258.12 222.33L256.86 221.85C256.84 222.149 256.716 222.433 256.51 222.652C256.304 222.87 256.028 223.011 255.73 223.05C254.79 222.83 254.95 222.3 254.64 222.05L254.14 223.2C248.76 222.6 241.92 224.2 236.06 223.84C233.189 224.558 230.272 225.083 227.33 225.41L227.64 225.23H224.64L226.86 225.48C226.298 225.719 225.711 225.896 225.11 226.01C221.186 225.774 217.247 226.067 213.4 226.88C210.94 228.42 211.54 225.97 209.15 227.16C209.35 227.02 209.41 226.84 209.59 226.69C207.318 227.251 205.086 227.966 202.91 228.83C203.07 227.56 201.16 229.06 201.33 228.38L201.16 228.91C200.53 228.67 199.1 228.72 199.27 228.34L198.15 229.1L197.99 228.6C196.41 228.74 193.08 229.54 192.13 228.6C188.32 229.83 182.13 230.28 177.24 230.6C176.249 231.098 175.167 231.39 174.06 231.46L172.8 230.98C171.69 231.29 170.57 232.2 169.47 231.93C169.471 231.893 169.482 231.856 169.501 231.825C169.52 231.793 169.548 231.767 169.58 231.75C168.44 232.01 167.31 231.8 166.29 232.49C165.03 232.6 163.76 232.41 164.09 231.79C164.09 232.79 161.39 231.95 161.39 231.95C161.39 231.95 145.12 233.12 126.94 235.08C108.76 237.04 88.6703 239.68 80.9903 243.16C80.5003 243.71 79.0603 244.16 79.6703 244.73C78.5503 245.02 77.9503 244.18 77.7803 244.73C79.3503 244.93 77.4103 246.08 78.9803 246.57L77.9803 246.78C77.8103 247.16 79.2703 246.25 79.0903 246.93L79.2703 245.93C79.8346 245.918 80.3857 246.102 80.8303 246.45C81.5403 246.02 81.8903 244.69 83.7103 245.09L83.2303 245.19C84.6603 245.03 84.1603 245.72 84.4803 245.85H84.1603L85.4103 246.21C84.4703 245.98 83.0203 246.88 83.8103 246.76C85.5503 246.86 83.3403 246.57 84.6203 246.33C85.4103 246.21 85.2403 246.74 85.2303 247.03L86.6603 246.87C86.6603 247.31 85.7103 246.93 86.3303 247.33L88.1003 246.7C88.5303 247.78 90.0103 245.98 90.9403 246.95C89.6603 247.33 91.0903 247.32 90.9403 247.69L94.1303 247.34C94.4403 247.47 93.3203 247.76 93.8003 247.66C94.4303 247.91 94.8003 247.3 95.0803 247.28C95.3903 247.56 97.4603 247.03 97.4403 247.78C99.6503 248.06 98.2603 246.78 100.31 246.98C100.62 247.4 98.7303 247.24 99.6603 247.62L101.74 247.25C101.653 247.475 101.497 247.668 101.294 247.801C101.091 247.934 100.852 248 100.61 247.99C106.31 247.99 109.61 250.1 114.7 248.99C115.48 249.45 114.21 249.4 113.7 249.8C117.37 248.72 119.07 250.44 122.26 250.05V249.61C126.84 250.52 132.1 249.16 137.18 249.19L136.55 248.95C137.353 248.513 138.216 248.197 139.11 248.01C139.26 248.21 138.61 249.01 140.04 248.67C139.73 248.55 139.1 248.45 139.26 248.21C143.69 248.91 152.75 247.63 159.89 247.42C169.42 246.03 179.89 245.72 189.25 244.42C187.82 244.62 188.31 243.42 189.42 243.6C192.58 245.1 194.5 242.71 197.65 243.6C203.06 242.39 208.12 243.42 213.04 241.43L213.2 241.94C213.98 242.09 214.2 241.71 214.94 241.57V241.71C216.84 241.71 219.06 240.91 220.17 241.03V240.44C221.28 240.27 220.8 240.83 221.91 240.36V240.66L223.18 239.96C223.18 240.96 226.35 239.68 227.3 240.04C229.369 239.444 231.494 239.062 233.64 238.9C234.11 239.38 236.8 239.07 238.55 239.15C241.87 238.64 246.63 237.94 250.9 237.66L250.75 237L251.86 236.83C251.86 236.98 252.02 237.04 251.86 237.13C252.8 237.79 254.39 236.62 255.34 236.99C254.71 236.45 254.55 236.99 253.91 236.99C252.97 236.78 253.77 236.05 255.04 236.24V236.39L255.84 235.95C255.99 236.46 256.78 236.61 256.93 237.11C260.57 236.6 262.93 235.44 266.76 235.27C266.44 235.89 269.46 234.84 268.81 235.92C271.03 235.3 268.35 235.15 269.31 234.33C269.94 234.28 270.58 233.94 270.73 234.33C270.46 234.6 271.31 234.88 270.81 235.03L272.31 234.79C272.46 234.85 272.15 235.03 271.99 235.11C274.99 234.21 277.52 235.19 280.22 234.31C280.39 233.93 279.12 234.31 279.28 233.94C281.99 232.94 281.81 234.33 284.35 233.55L283.86 234.1C284.207 233.803 284.618 233.592 285.061 233.483C285.503 233.373 285.966 233.369 286.41 233.47C286.71 234.04 285.29 234.07 284.65 234.41C285.65 234.34 287.98 233.94 287.2 233.48C288.31 233.18 288.78 233.66 289.41 233.76C289.41 233.61 288.31 233.47 288.94 233.13C290.896 233.209 292.855 233.139 294.8 232.92C294.8 233.06 294.95 233.27 294.8 233.36C296.29 232.51 296.26 233.84 298.33 233.46Z" fill="#DD5543"/>
<path d="M101.74 88.79C100.22 91.41 98.4902 94.98 96.7402 97.43C96.6814 98.3281 96.3846 99.1945 95.8802 99.94L95.2402 99.65L94.9902 100.44C94.6302 100.6 95.2202 99.85 94.6802 100.19L94.8802 100.68C94.6302 100.6 93.6102 102.32 93.8802 100.92L92.1602 103.53C91.7702 104.1 92.4302 104.19 91.8702 104.73C91.6102 104.73 91.8702 104.43 91.6602 104.34C89.9702 105.99 91.3402 107.34 89.9102 108.93V108.73C89.9102 109.14 89.4702 109.73 89.5502 109.73C90.2902 109.88 89.4402 109.2 90.1402 108.87C90.6002 109.24 89.9602 109.73 90.3602 109.94C89.9102 110.25 90.0402 110.68 89.8302 111.06C89.1102 111.49 88.7602 112.54 88.0602 112.76C88.1717 113.347 88.1163 113.953 87.9002 114.51C87.2002 114.74 87.5902 114.16 87.0402 114.72L87.2602 115.01C86.8802 115.51 86.8502 115.38 86.7302 115.27C86.3502 115.84 86.8302 116 86.1902 116.6V116.03C85.9681 116.577 85.6684 117.089 85.3002 117.55C85.1402 117.43 85.3002 117.13 85.5202 116.95C84.8402 117.08 85.2802 117.75 85.1002 117.95C85.2702 117.95 85.6402 117.49 85.7702 117.95C85.4902 118.28 85.6902 118.95 85.1802 119.03V118.46C84.9302 119.37 85.2902 119.09 84.6402 119.92C84.6402 119.86 84.5602 119.84 84.5102 119.78C84.5102 120.57 83.7702 121.12 83.2402 121.95V121.74C83.1402 122.15 83.3002 122.49 83.1702 122.67C83.6202 122.27 83.6302 122.46 83.9402 122.58C83.5102 122.76 83.5102 123.09 83.5102 123.48C83.5003 124.085 83.2892 124.669 82.9102 125.14C82.7302 125.06 82.6902 124.61 83.0902 124.28C82.8402 123.54 82.5002 123.14 82.6102 122.39C82.5628 122.615 82.489 122.833 82.3902 123.04C82.2602 123.28 82.1502 123.41 82.0802 123.27L82.4602 123.71L81.9502 124.65C82.2002 124.91 82.8402 124.13 82.6402 125.01C82.4402 125.89 81.8502 125.35 82.0202 125.55C81.5902 126.87 82.3302 126.16 81.6402 127.33C81.6242 127.171 81.6555 127.011 81.7302 126.87C81.4631 127.322 81.2292 127.794 81.0302 128.28C80.9896 128.485 80.9074 128.679 80.7887 128.851C80.67 129.023 80.5174 129.169 80.3402 129.28C80.2102 129.17 80.0102 129.18 80.1402 128.83H80.2402C79.9302 127.89 80.2402 129.64 79.6502 129.42C79.8502 129.36 79.8402 129.65 79.8102 130.03C79.7938 130.402 79.7537 130.773 79.6902 131.14L80.1002 130.84C80.6902 131.54 80.5202 131.57 80.2002 131.67C79.8802 131.77 79.4002 131.91 79.7602 132.83C80.3402 133.9 79.7602 132.33 80.1902 132.93C80.4302 133.72 80.1902 134.24 81.1002 135.15C81.2102 135.5 81.5702 136.15 81.3002 136.51C82.0102 136.89 83.1702 138.02 83.8802 137.7C82.8802 136.92 82.3302 137.6 81.4902 136.21C81.7002 136.21 81.9302 136.21 82.1402 136.21C82.9202 136.94 84.3202 137.12 84.9002 137.45C84.8102 137.33 84.8102 137.22 84.9002 137.16C86.4102 137.28 86.9702 136.85 88.3302 136.89C88.3302 137.08 88.1902 137.19 87.9102 137.26C87.6302 137.33 87.2802 137.26 86.9102 137.26C87.7402 137.6 87.9102 137.26 89.3602 137.26C89.3602 137.61 88.3602 137.36 88.0902 137.73C88.6702 137.61 89.2502 137.56 89.8302 137.38C89.8302 137.38 89.8302 137.38 89.8302 137.46C90.1002 136.76 91.1602 137.28 92.2102 136.68C93.0457 136.504 93.7947 136.045 94.3302 135.38C94.6202 134.98 94.7702 134.56 95.1002 134.13C95.4102 134.13 95.5502 134.25 95.5102 134.43C95.0002 134.43 95.1602 134.54 95.0902 134.75C95.6002 134.42 96.5502 134.65 96.3502 135.01C97.1502 134.41 95.9002 134.91 96.3502 134.47L97.5202 133.85C97.2302 133.67 96.8102 133.85 97.2802 133.31C97.7061 132.998 98.1539 132.717 98.6202 132.47C98.6202 132.65 99.0602 132.73 98.6202 133.01C98.9802 132.91 99.4702 132.62 99.4802 132.26C98.6802 132.48 100.4 131.31 99.6502 131.26L100.45 131.03C100.3 131.13 100.45 131.3 100.14 131.4C100.59 131.65 100.61 130.93 100.79 130.74C100.97 130.55 101.65 130.27 101.79 130.38C101.91 130.13 102.45 129.86 102.68 129.98C102.92 129.69 102.53 129.73 102.53 129.55L103.53 128.85C103.73 129.01 104.23 129.5 104.14 129.69C104.37 129.22 103.83 129 104.4 128.6C104.4 129.22 105.4 128.34 105.25 129.15C105.79 129.15 106.68 128.49 107.1 128.01C107.17 127.47 106.43 128.25 106.22 127.91C107.53 126.73 106.95 125.81 108.08 125.17L107.75 125.29C108.25 124.62 108.21 124.72 108.37 124.17C108.5 124.69 109.9 124.65 110.87 123.76C110.81 123.5 110.01 123.84 109.94 123.41L110.58 122.81C110.66 122.81 110.63 122.93 110.58 123.05C111.09 122.43 112.12 122.66 111.95 122.05L113.01 122.13L112.58 122.08C112.51 121.82 113.16 121.23 113.25 121.08C113.399 120.815 113.618 120.596 113.882 120.446C114.146 120.297 114.446 120.222 114.75 120.23C114.5 120.17 113.92 120.04 114.42 119.55C114.9 120.18 115.77 118.88 116.01 119.22C116.22 119.04 116.77 118.92 116.6 118.64L116.86 119.06C116.49 118.48 117.33 117.87 117.86 117.29C118.29 118.14 118.5 116.7 119.3 117.15C119.03 116.56 120.3 116.15 120.04 115.59C120.51 115.19 120.82 115.69 121.04 115.76L121.12 115.4C121.54 115.45 122.47 114.78 123.12 114.53L123.28 113.71H123.62C123.62 113.54 123.98 113.15 123.62 113.19L124 113C123.65 112.49 124.28 112.57 124.66 111.95C124.85 111.95 124.91 112.07 124.84 112.23C125.11 112.02 125.19 112.36 125.46 112.41C125.17 112.41 125.77 110.79 124.87 111.13C124.67 110.97 124.98 110.5 125.32 110.38L125.82 110.7V109.99C126.19 109.61 126.58 109.76 126.96 109.55C126.63 109.84 126.82 110.98 127.71 110.29C127.429 110.618 127.209 110.994 127.06 111.4C127.26 111.27 127.39 111.25 127.24 111.65C127.83 110.99 127.24 111.2 127.92 110.65C128.18 111.07 128.47 111.05 129.17 110.72L128.5 110.78C128.484 110.724 128.484 110.666 128.5 110.61C128.429 110.651 128.346 110.668 128.265 110.657C128.183 110.646 128.108 110.609 128.05 110.55C128.19 110.45 128.48 109.45 128.78 109.6C127.62 109.52 129.64 108.21 128.92 108.18C128.92 108 129.38 107.62 129.58 107.78C129.22 108.51 130.35 107.9 130.46 108.24C130.6 107.97 129.79 108.24 129.97 107.92C130.268 107.731 130.619 107.643 130.97 107.67L130.88 107.85L131.55 107.63C131.49 107.37 130.78 107.63 131.2 107.21C131.39 107.21 131.81 106.73 131.91 106.9C131.91 107.34 132.31 107.58 131.91 107.96C132.24 107.67 133.32 106.8 132.59 106.76L133.02 106.46C132.63 106.46 131.68 106.74 132.48 106.06V106.14L132.84 105.41H133.25C133.16 105.32 133.19 105.16 133.41 105.01C133.55 105.08 133.79 105.01 133.89 105.15C134.51 104.67 134.31 104.51 134.31 104.33C134.64 104.05 134.83 104.03 134.84 104.39C135.36 104.09 136.16 103.39 136.64 103.39C137.16 102.74 136.45 103.39 136.64 102.86C137.71 103.16 138.97 101.58 139.97 100.75C139.25 100.34 140.22 100.48 139.97 99.75C139.87 100.11 141.31 99.52 140.5 100.35L141.03 99.88C141.65 99.95 140.26 100.79 141.18 100.88C141.8 100.41 141.74 99.45 142.65 99.15C142.7 99.76 143.13 98.61 143.28 99.22C143.28 99.48 142.99 99.58 142.8 99.76H142.99C144.48 98.93 142.99 98.97 143.57 98.17C144.39 97.53 144.48 98.06 144.67 98.23C144.86 98.23 145.25 97.87 145.4 97.6C145.06 98.22 144.24 97.98 144.3 97.54C145.01 97.78 145.6 96.71 145.7 96.36C144.12 96.65 144.83 96.91 143.29 97.12C143.29 97.38 143.57 97.82 142.75 98.12C143.04 97.6 142.55 97.89 142.38 97.9C142.69 98.07 141.97 98.33 141.84 98.59C141.5 98.51 141.84 97.71 141.07 98.09L141.36 98.79C141.02 98.89 141.17 98.26 140.69 98.79C140.78 98.26 140.25 98.37 140.97 97.72C139.67 97.86 139.72 99.01 139.15 99.72C139.2 99.63 139.15 99.54 139.15 99.45C139.15 99.72 138.82 99.9 138.63 100.09C138.05 100.29 138.82 99.55 138.57 99.47L137.81 100.04C137.66 100.27 137.51 100.46 137.33 100.37C137.375 100.075 137.405 99.778 137.42 99.48L136.9 100.48C136.85 100.22 135.98 100.62 136.46 100.06L135.31 101.06L134.92 100.73C134.68 101.01 134.73 101.09 135.11 100.89C134.63 101.09 133.81 102.89 133.45 101.97C132.811 102.759 132.097 103.486 131.32 104.14C131.93 103.14 129.98 104.41 130.78 103.56C130.1 103.78 130.32 104.3 129.94 104.68C129.41 104.81 129.3 104.29 129.62 103.82L129.25 104.38L129.2 104.29L128.93 104.84C128.31 104.98 128.53 104.52 128.01 104.84L128.17 105.27H127.69C127.93 105.34 127.69 105.63 127.37 105.91V105.83L126.99 106.21C127.25 105.69 126.55 106.43 126.55 106.03C126.192 106.275 125.857 106.553 125.55 106.86L125.85 107.01C125.15 107.86 125.54 106.68 124.85 107.18L125.1 107.43C123.75 107.71 123.61 108.96 122.66 109.22C123.03 108.84 122.66 108.6 122.73 108.69C122.17 109.27 121.09 109.98 120.73 110.81C120.505 110.674 120.248 110.602 119.985 110.602C119.723 110.602 119.465 110.674 119.24 110.81C118.77 111.21 118.73 111.3 118.75 111.65C118.16 111.86 117.45 112.77 117.21 112.5C117.27 112.81 116.75 112.78 116.64 113.17L116.49 113.1L116.75 113.34C115.44 113.34 115.61 114.77 114.36 114.89L114.44 114.7L114.17 115.08C114.03 115.01 114.11 114.82 114.01 114.65L112.33 115.88H112.81C112.49 116.18 112.46 116.62 111.93 116.76C112.27 115.84 111.38 117.17 111.03 116.93L111.3 116.55C110.83 116.95 110.83 116.95 111.09 117.19C110.54 117.77 110.26 117 109.91 117.74L110.33 117.44C110.57 117.51 110.45 117.96 110.17 118.16C110.08 118.16 109.79 118.16 109.97 118C109.56 118.49 108.72 118.92 108.58 119.19C108.25 119.32 108.19 119.05 108.28 118.87C107.41 119.87 107.76 119.18 106.9 120.24L106.79 120.07L106.58 120.53L105.81 120.6L106.15 120.66C105.82 120.95 105.69 121.23 105.22 121.45V121.09C104.34 121.97 103.79 121.58 103.12 122.6C103.02 122.6 103.12 122.43 103.12 122.33C102.54 123.33 102.12 122.41 101.63 123.52C101.63 123.4 101.46 123.37 101.44 123.28L101.16 123.73L100.96 123.39V124.1L100.47 123.95V124.22C99.6002 123.93 99.3502 124.84 98.4702 124.8L98.8702 125.13C98.0002 127.03 95.2702 127.04 93.8702 128.38L93.7102 128.02C93.5502 128.29 93.3902 128.57 93.2202 128.83C92.6902 128.74 93.2902 128.41 93.0802 128.3C92.4202 128.87 93.0802 128.97 92.1802 129.52C91.6102 129.52 92.1802 129.2 92.3702 128.95C92.173 129.113 91.9659 129.263 91.7502 129.4L91.4102 129.62L91.2302 129.75C91.0102 129.88 90.7802 129.98 90.6302 129.9C90.625 129.95 90.625 130 90.6302 130.05C90.3502 130.33 89.9602 130.25 89.6302 130.31C89.6456 130.245 89.6751 130.185 89.7166 130.133C89.7581 130.081 89.8105 130.039 89.8702 130.01C89.7602 130.01 89.6802 129.87 89.5102 130.09L89.7602 129.69C89.6202 129.69 89.0202 130 89.2602 129.52C89.1802 129.7 88.9602 130.04 88.7802 129.99C88.9702 129.64 88.7802 129.68 88.5902 129.74C88.4002 129.8 88.0602 129.82 88.1402 129.55C88.3302 129.44 88.5102 129.55 88.4802 129.49C88.5502 129.25 88.1502 129.49 87.8502 129.49L88.1702 129.31C87.921 129.234 87.6989 129.088 87.5302 128.89C88.2502 128.47 87.5302 128.25 88.0802 128.14C88.1902 127.9 87.6702 128.41 87.7002 128.14C88.0402 128 87.7002 127.87 88.1402 127.83L88.1902 127.64L88.5902 127.72C88.3836 127.551 88.1268 127.456 87.8602 127.45C88.1702 127.29 88.1202 127.02 88.5102 127.04L88.5802 127.11C88.5802 127 88.6902 126.92 88.8102 126.87C88.9302 126.82 89.0302 126.87 89.2802 126.64C89.5078 126.501 89.6974 126.308 89.8318 126.077C89.9662 125.847 90.0412 125.587 90.0502 125.32C90.1402 125.32 90.2202 125.32 90.1302 125.48L90.5802 124.76L90.7302 125.08L91.0502 123.66L91.2102 123.78C91.7502 123.03 92.4202 121.78 93.0002 120.69V120.89C93.4302 119.61 93.8302 119.89 94.1502 118.99C94.1593 119.01 94.164 119.033 94.164 119.055C94.164 119.077 94.1593 119.1 94.1502 119.12L94.6002 118.38L94.6602 118.64C94.6602 117.88 96.1102 117.39 95.6002 117.54C95.6002 117.13 95.7802 116.48 95.6002 116.26C96.0902 115.45 95.9402 116.2 96.4002 115.8C96.7802 115.23 96.5602 114.95 97.2202 114.26L97.3702 114.39C97.5802 114 97.6002 113.7 97.9102 113.17V113.38C98.1002 112.32 99.0702 112.66 98.7702 111.54C99.1302 111.28 99.4502 110.54 99.7702 110.8C100.24 109.63 100.66 108.8 101.2 107.65C101.85 107.84 101.31 107.4 102.03 106.98L101.71 106.84C102.62 105.36 104.43 104.17 105.37 102.49L105.69 102.64L105.58 102.11C106.85 100.47 108.43 98.31 109.34 96.93C109.435 96.1712 109.713 95.4469 110.15 94.82V94.92C110.793 93.4898 111.613 92.146 112.59 90.92C112.66 91.09 112.83 91.01 112.81 91.21C112.7 90.68 113.31 90.39 113.51 90.1L113.07 90.31C113.07 89.74 113.67 89.31 114.01 89.31L114.1 88.49C114.1 88.49 114.24 88.43 114.29 88.49L114.21 88.28L114.8 88.19C114.8 87.99 115.25 87.1 115.04 86.61C115.21 86.61 115.68 86.11 115.46 86.61L117.01 84.39L116.65 84.66C116.33 84.53 116.57 83.72 116.93 83.44C116.87 84.06 117.32 83.74 117.66 83.67C117.66 83.25 117.23 83.78 117.17 83.51C117.243 82.934 117.495 82.3955 117.89 81.97V82.28C117.938 82.1497 118.013 82.0309 118.109 81.931C118.206 81.8312 118.322 81.7525 118.45 81.7C118.586 81.6326 118.711 81.545 118.82 81.44C118.995 81.2565 119.147 81.0515 119.27 80.83C119.53 79.83 120.12 79.3 119.44 79.29C119.98 78.06 120.1 78.93 120.38 78.54C120.67 77.5234 121.23 76.6043 122 75.88C121.66 75.54 122.11 74.74 122.58 73.94C123.05 73.14 123.2 72.48 122.82 72.48C123.05 72.14 123.33 71.76 123.52 71.41C123.434 71.4442 123.34 71.4568 123.248 71.4466C123.155 71.4364 123.067 71.4038 122.99 71.3515C122.913 71.2992 122.85 71.2289 122.806 71.1468C122.763 71.0646 122.74 70.973 122.74 70.88C123.01 70.18 123.38 70.15 123.58 69.88H122.76C122.835 69.4432 122.835 68.9968 122.76 68.56C122.662 68.0381 122.428 67.5515 122.08 67.15C121.418 66.3724 120.567 65.7769 119.61 65.42C118.465 65.0091 117.265 64.7698 116.05 64.71C114.69 64.71 113.28 64.71 111.86 64.71C110.55 64.96 109.09 65.36 107.62 65.71C106.782 65.9932 105.927 66.2236 105.06 66.4L105.22 66.26L103.52 66.49H104.8C104.51 66.6809 104.198 66.8354 103.87 66.95C101.651 67.0555 99.4714 67.5709 97.4402 68.47C96.3002 69.72 96.2802 68.05 95.1402 69.07C95.2302 68.96 95.2302 68.83 95.3102 68.72C94.1429 69.3368 93.0349 70.0599 92.0002 70.88C91.8802 70.03 91.0802 71.22 91.0602 70.76V71.12C90.6702 71.04 89.9002 71.24 89.9302 70.98L89.4502 71.6L89.2702 71.3C88.4302 71.57 86.7702 72.52 86.0802 72.03C83.6499 73.4208 81.0873 74.5665 78.4302 75.45C78.0071 75.8956 77.4869 76.2378 76.9102 76.45L76.1302 76.35C75.6002 76.72 75.2102 77.48 74.5602 77.49C74.5486 77.4721 74.5424 77.4513 74.5424 77.43C74.5424 77.4087 74.5486 77.3878 74.5602 77.37C74.0102 77.72 73.3602 77.78 72.9802 78.37C72.3302 78.65 71.6102 78.76 71.6402 78.37C71.8802 79.02 70.2502 78.94 70.2502 78.94C70.2502 78.94 68.1502 79.85 64.9602 81.45C60.8947 83.488 56.9574 85.7723 53.1702 88.29C48.8428 91.1301 44.8213 94.411 41.1702 98.08C37.8002 101.54 35.4502 105.01 34.7002 107.35C34.7602 107.81 34.4102 108.6 34.9202 108.61C34.6102 109.19 33.9202 109.04 34.1402 109.35C34.8702 108.81 34.6602 110.11 35.5302 109.71L35.2502 110.18C35.3702 110.42 35.5002 109.44 35.7602 109.82L35.3602 109.3C35.5922 109.071 35.9043 108.942 36.2302 108.94C36.3002 108.46 35.8302 107.71 36.7602 107.2L36.6102 107.43C37.1202 106.81 37.2402 107.33 37.4302 107.27L37.3102 107.4L38.0002 107.12C37.4902 107.35 37.3302 108.33 37.5902 107.97C38.3402 107.38 37.3102 108.05 37.7202 107.47C38.0002 107.12 38.1602 107.47 38.3002 107.58L38.8102 106.99C39.0102 107.21 38.4502 107.36 38.8902 107.33L39.3302 106.39C40.0002 106.77 39.8202 105.39 40.6402 105.53C40.2702 106.16 40.8602 105.66 40.9602 105.91L42.1502 104.67C42.3402 104.67 41.9902 105.15 42.1502 104.94C42.5202 104.86 42.4102 104.44 42.5402 104.32C42.7902 104.32 43.4702 103.43 43.7802 103.83C44.8602 103.28 43.7202 103.03 44.7102 102.51C45.0202 102.64 44.1202 103.14 44.7102 103.05L45.4702 102.22C45.4702 102.39 45.6302 102.72 45.2702 102.96C47.8302 101.24 50.0802 101.48 52.0002 99.5C52.5202 99.5 51.9202 99.86 51.8502 100.21C53.1402 98.63 54.5402 99.21 55.8502 98.21L55.7002 97.95C58.1402 97.37 60.1802 95.37 62.6502 94.31H62.2802C62.4302 93.87 62.9302 93.55 63.2802 93.2C63.4202 93.3 63.3402 93.91 63.9402 93.41C63.7502 93.41 63.4102 93.47 63.4202 93.3C65.7602 92.77 69.8502 90.24 73.4202 88.88C77.8402 86.37 83.1102 84.61 87.6502 82.58C86.9602 82.89 86.9802 82.09 87.5802 82.03C89.4902 82.59 90.0402 80.83 91.8402 81.03C94.4202 79.64 97.2102 79.8 99.4702 78.03L99.6202 78.35C100.05 78.35 100.08 78.12 100.47 77.96V78.05C101.47 77.88 102.47 77.2 103.1 77.2L103.02 76.81C103.58 76.62 103.4 77.02 103.92 76.64V76.84L104.49 76.29C104.61 76.97 106.1 75.91 106.63 76.1C106.98 75.94 107.48 75.72 108.04 75.5C108.32 75.4 108.62 75.31 108.91 75.23C109.055 75.1871 109.202 75.1537 109.35 75.13C109.47 75.13 109.7 75.07 109.67 75.13C109.77 75.46 109.93 75.43 109.95 75.61C110.08 75.5 110.51 75.31 110.55 75.51L111.19 75.01H111.32C111.222 75.0867 111.118 75.1569 111.01 75.22C110.29 75.76 111.27 75.22 110.77 75.57C111.4 75.23 110.89 75.47 110.91 75.43C111.25 75.16 111.91 74.86 111.53 75.18L111.38 75.25L111.71 75.16C111.18 75.42 110.91 75.58 110.41 75.79C110.51 75.79 111.14 75.92 110.77 76.23C110.39 76.11 110.77 76.45 110.15 76.15C110.32 76.36 110.66 76.36 111.06 76.63C111.06 76.63 111.06 76.63 111.06 76.79C111.06 76.95 110.93 76.99 110.81 76.96C110.75 76.74 110.32 76.96 110.41 76.71L110.04 77.43C109.95 77.43 109.97 77.27 109.97 77.17C109.45 78.78 108.07 79.43 107.61 80.9C107.76 81.12 107.98 80.43 108.13 80.65C107.76 82.19 107.05 81.54 106.6 82.91L106.47 82.49C106.47 83 106.57 83.32 105.94 83.8C105.53 83.7 106 83.09 106.04 82.69C105.75 83.11 105.14 84.26 105.65 84.12C105.43 84.71 105.01 84.71 104.74 84.93C104.82 84.99 105.28 84.59 105.24 84.99C104.517 85.7659 103.871 86.6098 103.31 87.51C103.24 87.44 103.07 87.42 103.08 87.32C103 88.34 102.27 87.78 101.74 88.79Z" fill="#DD5543"/>
<path d="M90.5498 137.39L89.8998 137.47C89.8998 137.57 89.8998 137.68 89.5498 137.85L90.5498 137.39Z" fill="#6B99B2"/>
<path d="M84.4802 119.78C84.4849 119.717 84.4849 119.653 84.4802 119.59C84.4613 119.618 84.4512 119.651 84.4512 119.685C84.4512 119.719 84.4613 119.752 84.4802 119.78Z" fill="#6B99B2"/>
<path d="M86.4303 115.26C86.3203 115.6 86.5703 115.39 86.7503 115.26C86.702 115.231 86.6467 115.216 86.5903 115.216C86.5339 115.216 86.4786 115.231 86.4303 115.26Z" fill="#6B99B2"/>
<path d="M101.82 130.38C101.796 130.407 101.782 130.443 101.782 130.48C101.782 130.517 101.796 130.552 101.82 130.58C101.88 130.46 101.86 130.41 101.82 130.38Z" fill="#6B99B2"/>
<path d="M126.55 111.72H126.42C126.462 111.737 126.508 111.737 126.55 111.72Z" fill="#6B99B2"/>
<path d="M124.82 112.27C124.725 112.339 124.64 112.424 124.57 112.52C124.681 112.469 124.77 112.381 124.82 112.27Z" fill="#6B99B2"/>
<path d="M95.1604 134.74C95.0523 134.807 94.9628 134.9 94.9004 135.01C95.0188 134.957 95.112 134.861 95.1604 134.74Z" fill="#6B99B2"/>
<path d="M124.35 112.81L124 113V113.06L124.35 112.81Z" fill="#6B99B2"/>
<path d="M127 111.44C126.856 111.548 126.702 111.642 126.54 111.72C126.633 111.711 126.722 111.681 126.802 111.633C126.882 111.585 126.949 111.519 127 111.44Z" fill="#6B99B2"/>
<path d="M110.6 123.05C110.41 123.42 110.53 123.24 110.6 123.05V123.05Z" fill="#6B99B2"/>
<path d="M123.27 114.49L123.21 114.51L123.18 114.68L123.27 114.49Z" fill="#6B99B2"/>
<path d="M128.59 110.44C128.527 110.488 128.481 110.555 128.46 110.63L128.68 110.51C128.643 110.498 128.611 110.473 128.59 110.44Z" fill="#6B99B2"/>
<path d="M116.09 119.56C116.102 119.437 116.081 119.313 116.03 119.2C115.91 119.29 115.88 119.4 116.09 119.56Z" fill="#6B99B2"/>
</g>
<defs>
<clipPath id="clip0_122_234">
<rect width="521.55" height="250.19" fill="white"/>
</clipPath>
</defs>
</svg>
