<svg width="29" height="29" viewBox="0 0 29 29" fill="none" xmlns="http://www.w3.org/2000/svg">
<path d="M0.731066 14.8495C0.329311 14.461 0.323916 13.8187 0.719088 13.4235L13.4351 0.707504C13.8256 0.316998 14.4587 0.316977 14.8492 0.707457L17.1421 3L16.6428 4.49976L19.1421 5L27.5772 13.4355C27.9677 13.826 27.9677 14.4592 27.5772 14.8497L14.8566 27.5702C14.4632 27.9636 13.8244 27.9603 13.4351 27.5628L10.7504 24.8216L9.75035 20.3216L8.64307 22.5L0.731066 14.8495Z" fill="#F2C09E"/>
<path d="M22.1904 24.1269L22.2054 24.0111C22.2507 24.017 22.2998 24.0225 22.3502 24.0281C22.4238 24.0364 22.5002 24.0449 22.5713 24.0553M22.1904 24.1269L7.74607 19.0411C7.74211 19.2035 7.7138 19.2967 7.6681 19.3558C7.62428 19.4125 7.54821 19.4585 7.39814 19.4876L7.39789 19.4877C7.13217 19.5398 6.86334 19.606 6.59793 19.6713C6.42075 19.7149 6.24509 19.7581 6.07291 19.7966C5.90038 19.8344 5.73902 19.9044 5.63295 20.0283C5.52131 20.1588 5.4872 20.3296 5.53433 20.5284C5.58187 20.7289 5.69276 20.8655 5.85291 20.9304C6.00513 20.9921 6.18196 20.9808 6.35205 20.9349C6.42736 20.9147 6.50252 20.8944 6.57759 20.8741C6.93988 20.7764 7.29989 20.6793 7.6622 20.5929C7.94748 20.5253 8.16854 20.4725 8.33539 20.4124C8.50384 20.3518 8.63429 20.278 8.72563 20.1581C8.81587 20.0395 8.85559 19.8918 8.87894 19.7115C8.89867 19.5592 8.90816 19.3687 8.91988 19.1333C8.92198 19.0911 8.92416 19.0474 8.92647 19.0023L8.81941 18.9968L8.92647 19.0023C8.94466 18.6479 8.95058 18.288 8.95641 17.9295L8.95649 17.9247C8.96231 17.5671 8.9681 17.211 8.98577 16.8589C9.02126 16.1513 9.10446 15.4688 9.32764 14.8435C10.0935 12.6981 11.0127 10.6096 11.934 8.51627C12.2913 7.70441 12.649 6.89183 12.9981 6.07495C13.0593 5.93191 13.1456 5.84003 13.2314 5.80181C13.3097 5.76695 13.4054 5.76836 13.5186 5.85024L13.5919 5.74895L13.5184 5.85011C13.5338 5.86129 13.5554 5.88557 13.578 5.92739C13.5999 5.96789 13.619 6.01814 13.6331 6.07268C13.6623 6.18622 13.6636 6.29418 13.6439 6.35447C13.2915 7.40931 12.8962 8.4501 12.4958 9.49106C12.4307 9.63176 12.321 9.74698 12.1839 9.81878C11.7112 10.0633 11.3886 10.4176 11.2595 10.9543L11.2595 10.9543C11.1149 11.5555 10.9673 12.1489 10.8195 12.7428C10.6822 13.295 10.5447 13.8476 10.4095 14.4072L10.4094 14.4075C10.3728 14.5601 10.3296 14.7538 10.3661 14.9241C10.3853 15.014 10.4271 15.1005 10.5033 15.1714C10.5785 15.2413 10.6793 15.2885 10.8046 15.3149L10.8046 15.3149C10.9245 15.3402 11.0319 15.339 11.1269 15.309C11.2231 15.2786 11.2971 15.2216 11.3537 15.1511C11.4612 15.0174 11.5104 14.8282 11.5487 14.6655L11.5487 14.6654C11.8075 13.563 12.0753 12.4622 12.3522 11.3633L12.3523 11.3629C12.3895 11.2135 12.427 11.0808 12.4924 10.9909C12.523 10.9488 12.5569 10.9204 12.5966 10.9039C12.6362 10.8874 12.6913 10.8787 12.7706 10.8919C12.8511 10.9053 12.9003 10.9306 12.9316 10.9577C12.9627 10.9845 12.9843 11.0198 12.9984 11.0666C13.029 11.168 13.0195 11.302 13.0028 11.4599C12.9775 11.6923 12.9547 11.9236 12.9319 12.1541C12.8844 12.6352 12.8372 13.113 12.7689 13.5905L12.7688 13.5906C12.6468 14.4482 12.7161 15.2605 13.183 16.0441C13.398 16.4055 13.5855 16.8216 13.6009 17.2047L13.601 17.2058C13.6654 18.517 13.5409 19.6584 13.0919 20.6071C12.645 21.5516 11.8706 22.317 10.6108 22.8681C9.19916 23.4826 7.70311 23.8806 6.17306 24.0485L6.1724 24.0486C6.01699 24.0665 5.84555 24.1043 5.71622 24.2008C5.57589 24.3056 5.50116 24.4672 5.52211 24.6879C5.54274 24.9052 5.64136 25.0561 5.79785 25.1363C5.9446 25.2115 6.12234 25.214 6.28714 25.1875L6.28735 25.1875C6.48125 25.156 6.67682 25.1263 6.87321 25.0965C7.48705 25.0034 8.1089 24.909 8.71311 24.7543C10.3682 24.3335 12.0038 23.7401 13.2217 22.4303C13.4952 22.1368 13.7167 21.7987 13.9225 21.453C14.0005 21.3219 14.0755 21.1912 14.1501 21.0611C14.2367 20.91 14.3228 20.7599 14.4126 20.611C14.7082 21.7555 15.4559 22.5526 16.3817 23.1934C17.6849 24.0956 19.1523 24.5825 20.6641 24.9166C21.1615 25.0275 21.6711 25.0918 22.1728 25.1551C22.2759 25.1681 22.3787 25.181 22.481 25.1943L22.481 25.1944C22.6335 25.2142 22.7992 25.2083 22.9371 25.1352C23.0839 25.0574 23.178 24.9149 23.2012 24.7102L23.2013 24.7102L23.2015 24.7074C23.2214 24.4901 23.1566 24.3276 23.0219 24.2188C22.8976 24.1185 22.7295 24.0775 22.5713 24.0553M22.1904 24.1269L22.2054 24.0111C20.5958 23.8028 19.0535 23.3868 17.6244 22.6239C15.3635 21.4105 14.3591 18.2969 15.5421 16.0188L15.5422 16.0185M22.1904 24.1269L15.5422 16.0185M22.5713 24.0553C22.5712 24.0553 22.5711 24.0553 22.5709 24.0553L22.5536 24.1791L22.5718 24.0554C22.5716 24.0554 22.5715 24.0554 22.5713 24.0553ZM15.5422 16.0185C15.9749 15.1798 16.0594 14.3596 15.92 13.4655C15.8094 12.7453 15.7382 12.0196 15.7067 11.2917C15.7036 11.2189 15.7137 11.1173 15.7495 11.0347C15.7838 10.9558 15.8341 10.9073 15.9127 10.8966L15.913 10.8966M15.5422 16.0185L15.913 10.8966M15.913 10.8966C16.0467 10.8782 16.1165 10.9134 16.1628 10.9567C16.2174 11.008 16.2523 11.0821 16.2921 11.1717C16.3362 11.2761 16.3717 11.3839 16.3983 11.4941L16.3984 11.4945M15.913 10.8966L16.3984 11.4945M16.3984 11.4945C16.4395 11.6629 16.4807 11.8313 16.5219 11.9996C16.7417 12.8978 16.9615 13.7956 17.1738 14.6958C17.2138 14.8674 17.2715 15.0539 17.3891 15.1816C17.4506 15.2484 17.5285 15.2993 17.6255 15.3233C17.7213 15.347 17.8276 15.3426 17.9442 15.3126C18.0617 15.2825 18.156 15.2339 18.2261 15.1651C18.2971 15.0954 18.3358 15.0122 18.3533 14.926C18.3865 14.7629 18.3443 14.5794 18.3089 14.4333L18.3088 14.433M16.3984 11.4945L18.3088 14.433M18.3088 14.433C18.2158 14.0534 18.1208 13.6748 18.026 13.2967C17.8448 12.5742 17.6641 11.8534 17.4979 11.1307C17.3574 10.5152 17.052 10.0404 16.4373 9.78508C16.357 9.75088 16.2921 9.68807 16.2552 9.60876L16.2393 9.56698C15.8178 8.45774 15.3969 7.34978 15.0167 6.2289L15.0166 6.2288M18.3088 14.433L15.0166 6.2288M15.0166 6.2288C15.0146 6.2229 15.0113 6.20089 15.0193 6.1589C15.0267 6.11969 15.0418 6.07398 15.063 6.02845C15.0841 5.98297 15.1094 5.94144 15.1348 5.90969C15.162 5.87574 15.1817 5.86251 15.1886 5.85953C15.1995 5.8548 15.2231 5.84954 15.2623 5.85064C15.3 5.8517 15.3448 5.85844 15.3929 5.87064C15.4899 5.89525 15.586 5.93838 15.6486 5.98351C15.6913 6.01633 15.7281 6.07314 15.7659 6.15784C15.7845 6.19943 15.8015 6.2436 15.8199 6.29108L15.8203 6.29234C15.8381 6.33829 15.8571 6.38758 15.8781 6.43449L15.8781 6.4345M15.0166 6.2288L15.8781 6.4345M15.8781 6.4345C16.7421 8.36102 17.6032 10.2879 18.4616 12.2151M15.8781 6.4345L18.5757 12.1643M19.7886 19.5482H19.7886C19.7944 19.0193 19.7826 18.493 19.7708 17.9644C19.7635 17.6384 19.7562 17.3116 19.753 16.9827M19.7886 19.5482L18.5757 12.1643M19.7886 19.5482V19.5495M19.7886 19.5482V19.5495M19.753 16.9827L19.878 16.9815L19.753 16.9829C19.753 16.9828 19.753 16.9828 19.753 16.9827ZM19.753 16.9827C19.7344 15.2907 19.1413 13.7508 18.4616 12.2151M18.4616 12.2151C18.4616 12.2151 18.4616 12.2151 18.4616 12.2151L18.5757 12.1643M18.4616 12.2151C18.4615 12.215 18.4615 12.2149 18.4614 12.2149L18.5757 12.1643M19.7886 19.5495C19.7886 19.7916 19.8302 20.0003 19.9523 20.1623C20.0761 20.3264 20.2663 20.4217 20.5175 20.4712L20.5176 20.4712M19.7886 19.5495L20.5176 20.4712M20.5176 20.4712C21.1272 20.5908 21.7316 20.7492 22.333 20.9207L22.3332 20.9208M20.5176 20.4712L22.3332 20.9208M22.3332 20.9208C22.5036 20.9692 22.6783 20.9885 22.831 20.9371M22.3332 20.9208L22.831 20.9371M20.9712 18.4465L20.9712 18.4474C20.9768 18.6674 20.975 18.8887 20.9732 19.1195C20.9725 19.2071 20.9718 19.2961 20.9715 19.387C21.1207 19.4243 21.268 19.4616 21.4141 19.4984C21.8198 19.6009 22.2156 19.7008 22.6135 19.7948L20.9712 18.4465ZM20.9712 18.4465C20.9116 16.6141 20.8326 14.7624 20.0507 13.0171C19.5195 11.831 18.9952 10.6366 18.4707 9.44163C17.8936 8.1269 17.3162 6.81151 16.7291 5.5058C16.3569 4.67715 15.4271 4.43197 14.5998 4.80559L14.5998 4.80555M20.9712 18.4465L14.5998 4.80555M14.5998 4.80555L14.5967 4.80704M14.5998 4.80555L14.5967 4.80704M14.5967 4.80704C14.4693 4.86884 14.3236 4.88115 14.1877 4.84178M14.5967 4.80704L14.1877 4.84178M7.92722 15.7293L7.92747 15.728C8.16873 14.5249 8.53212 13.3497 9.01198 12.2207C9.73826 10.4737 10.5197 8.75186 11.3003 7.03184C11.5073 6.5756 11.7143 6.11948 11.9202 5.66305L7.92722 15.7293ZM7.92722 15.7293C7.76892 16.5638 7.76234 17.4315 7.75588 18.2831M7.92722 15.7293L7.75588 18.2831M14.1568 11.2236L14.1568 11.2236C14.0543 12.1608 13.9545 13.0979 13.8575 14.0351C13.8281 14.3229 13.8973 14.5709 14.014 14.818C14.0727 14.9424 14.1429 15.0654 14.2186 15.1935C14.2348 15.2209 14.2512 15.2486 14.2679 15.2766C14.2954 15.3229 14.3233 15.37 14.3513 15.4178C14.7726 14.7836 14.9265 14.1722 14.8126 13.4722L14.1568 11.2236ZM14.1568 11.2236C14.2146 10.6928 14.1355 10.1897 13.7019 9.7791C13.6707 9.74624 13.647 9.70685 13.6327 9.66374C13.6194 9.62348 13.6145 9.58092 13.6183 9.53872C13.8069 8.98651 14.0107 8.44022 14.2154 7.8918C14.2605 7.77076 14.3057 7.64962 14.3508 7.52828C14.3988 7.65726 14.4468 7.78613 14.4948 7.91492C14.6941 8.44952 14.8928 8.98279 15.0831 9.51691C15.0934 9.55162 15.0957 9.58826 15.0898 9.62401C15.0845 9.65601 15.0727 9.68652 15.0552 9.7137C14.4188 10.2517 14.5026 10.9631 14.5816 11.5962L14.1568 11.2236ZM22.831 20.9371C22.993 20.8826 23.1083 20.7563 23.1672 20.5636M22.831 20.9371L23.1672 20.5636M23.1672 20.5636C23.2346 20.3454 23.1999 20.1636 23.0759 20.028C22.9615 19.903 22.7869 19.8354 22.6138 19.7949L23.1672 20.5636ZM14.1877 4.84178C13.6983 4.62703 13.2446 4.57276 12.8505 4.70997C12.4526 4.84847 12.1407 5.17317 11.9203 5.66295L14.1877 4.84178ZM7.75588 18.2831C7.75395 18.5376 7.75203 18.7907 7.74607 19.0411L7.75588 18.2831Z" fill="#053D4C" stroke="#053D4C" stroke-width="0.25"/>
<path d="M14.4717 0H14.2319C14.051 0 13.9043 0.146945 13.9043 0.328211V2.94026C13.9043 3.12153 14.051 3.26847 14.2319 3.26847H14.4717C14.6526 3.26847 14.7993 3.12153 14.7993 2.94026V0.328211C14.7993 0.146945 14.6526 0 14.4717 0Z" fill="#053D4C"/>
<path d="M25 11.1933V10.9532C25 10.7719 24.8533 10.625 24.6723 10.625H22.0647C21.8838 10.625 21.7371 10.7719 21.7371 10.9532V11.1933C21.7371 11.3746 21.8838 11.5216 22.0647 11.5216H24.6723C24.8533 11.5216 25 11.3746 25 11.1933Z" fill="#053D4C"/>
<path d="M7.2627 11.1953V10.9552C7.2627 10.7739 7.116 10.627 6.93504 10.627H4.32743C4.14647 10.627 3.99978 10.7739 3.99978 10.9552V11.1953C3.99978 11.3766 4.14647 11.5235 4.32743 11.5235H6.93504C7.116 11.5235 7.2627 11.3766 7.2627 11.1953Z" fill="#053D4C"/>
<path d="M20.6818 1.68079L20.487 1.54086C20.3399 1.43524 20.1352 1.46903 20.0298 1.61634L18.5104 3.73915C18.4049 3.88646 18.4387 4.09151 18.5857 4.19713L18.7805 4.33706C18.9276 4.44268 19.1323 4.40887 19.2377 4.26156L20.7572 2.13876C20.8626 1.99145 20.8289 1.78641 20.6818 1.68079Z" fill="#053D4C"/>
<path d="M24.0406 5.80172L23.9009 5.60657C23.7954 5.45926 23.5907 5.42547 23.4437 5.53109L21.3245 7.05311C21.1774 7.15873 21.1437 7.36377 21.2491 7.51108L21.3888 7.70623C21.4942 7.85355 21.6989 7.88733 21.846 7.78171L23.9652 6.25969C24.1123 6.15407 24.146 5.94904 24.0406 5.80172Z" fill="#053D4C"/>
<path d="M7.37253 7.66891L7.51221 7.47376C7.61765 7.32644 7.58391 7.12141 7.43684 7.01579L5.31765 5.49377C5.17059 5.38815 4.9659 5.42193 4.86046 5.56925L4.72077 5.7644C4.61533 5.91172 4.64906 6.11677 4.79613 6.22239L6.91532 7.74441C7.06238 7.85003 7.26708 7.81622 7.37253 7.66891Z" fill="#053D4C"/>
<path d="M9.89145 4.33507L10.0863 4.19514C10.2333 4.08952 10.2671 3.88448 10.1616 3.73717L8.64219 1.61437C8.53675 1.46706 8.33206 1.43325 8.185 1.53887L7.99017 1.6788C7.84311 1.78442 7.80938 1.98946 7.91482 2.13677L9.43425 4.25957C9.5397 4.40688 9.74438 4.44069 9.89145 4.33507Z" fill="#053D4C"/>
</svg>
